<?xml version="1.0" encoding="utf-8" standalone="no"?>
<!DOCTYPE svg PUBLIC "-//W3C//DTD SVG 1.1//EN"
  "http://www.w3.org/Graphics/SVG/1.1/DTD/svg11.dtd">
<svg xmlns:xlink="http://www.w3.org/1999/xlink" width="432pt" height="288pt" viewBox="0 0 432 288" xmlns="http://www.w3.org/2000/svg" version="1.1">
 <metadata>
  <rdf:RDF xmlns:dc="http://purl.org/dc/elements/1.1/" xmlns:cc="http://creativecommons.org/ns#" xmlns:rdf="http://www.w3.org/1999/02/22-rdf-syntax-ns#">
   <cc:Work>
    <dc:type rdf:resource="http://purl.org/dc/dcmitype/StillImage"/>
    <dc:date>2022-12-05T13:56:54.494706</dc:date>
    <dc:format>image/svg+xml</dc:format>
    <dc:creator>
     <cc:Agent>
      <dc:title>Matplotlib v3.5.2, https://matplotlib.org/</dc:title>
     </cc:Agent>
    </dc:creator>
   </cc:Work>
  </rdf:RDF>
 </metadata>
 <defs>
  <style type="text/css">*{stroke-linejoin: round; stroke-linecap: butt}</style>
 </defs>
 <g id="figure_1">
  <g id="patch_1">
   <path d="M 0 288 
L 432 288 
L 432 0 
L 0 0 
z
" style="fill: #ffffff"/>
  </g>
  <g id="axes_1">
   <g id="patch_2">
    <path d="M 58.4975 237.4 
L 420.055519 237.4 
L 420.055519 10.8 
L 58.4975 10.8 
z
" style="fill: #eaeaf2"/>
   </g>
   <g id="matplotlib.axis_1">
    <g id="xtick_1">
     <g id="line2d_1">
      <path d="M 70.365409 237.4 
L 70.365409 10.8 
" clip-path="url(#pdf71ecc9b6)" style="fill: none; stroke: #ffffff; stroke-width: 0.8; stroke-linecap: round"/>
     </g>
     <g id="text_1">
      <!-- 0 -->
      <g style="fill: #262626" transform="translate(65.916659 255.8525)scale(0.16 -0.16)">
       <defs>
        <path id="ArialMT-30" d="M 266 2259 
Q 266 3072 433 3567 
Q 600 4063 929 4331 
Q 1259 4600 1759 4600 
Q 2128 4600 2406 4451 
Q 2684 4303 2865 4023 
Q 3047 3744 3150 3342 
Q 3253 2941 3253 2259 
Q 3253 1453 3087 958 
Q 2922 463 2592 192 
Q 2263 -78 1759 -78 
Q 1097 -78 719 397 
Q 266 969 266 2259 
z
M 844 2259 
Q 844 1131 1108 757 
Q 1372 384 1759 384 
Q 2147 384 2411 759 
Q 2675 1134 2675 2259 
Q 2675 3391 2411 3762 
Q 2147 4134 1753 4134 
Q 1366 4134 1134 3806 
Q 844 3388 844 2259 
z
" transform="scale(0.015625)"/>
       </defs>
       <use xlink:href="#ArialMT-30"/>
      </g>
     </g>
    </g>
    <g id="xtick_2">
     <g id="line2d_2">
      <path d="M 118.435823 237.4 
L 118.435823 10.8 
" clip-path="url(#pdf71ecc9b6)" style="fill: none; stroke: #ffffff; stroke-width: 0.8; stroke-linecap: round"/>
     </g>
     <g id="text_2">
      <!-- 50 -->
      <g style="fill: #262626" transform="translate(109.538323 255.8525)scale(0.16 -0.16)">
       <defs>
        <path id="ArialMT-35" d="M 266 1200 
L 856 1250 
Q 922 819 1161 601 
Q 1400 384 1738 384 
Q 2144 384 2425 690 
Q 2706 997 2706 1503 
Q 2706 1984 2436 2262 
Q 2166 2541 1728 2541 
Q 1456 2541 1237 2417 
Q 1019 2294 894 2097 
L 366 2166 
L 809 4519 
L 3088 4519 
L 3088 3981 
L 1259 3981 
L 1013 2750 
Q 1425 3038 1878 3038 
Q 2478 3038 2890 2622 
Q 3303 2206 3303 1553 
Q 3303 931 2941 478 
Q 2500 -78 1738 -78 
Q 1113 -78 717 272 
Q 322 622 266 1200 
z
" transform="scale(0.015625)"/>
       </defs>
       <use xlink:href="#ArialMT-35"/>
       <use xlink:href="#ArialMT-30" x="55.615234"/>
      </g>
     </g>
    </g>
    <g id="xtick_3">
     <g id="line2d_3">
      <path d="M 166.506237 237.4 
L 166.506237 10.8 
" clip-path="url(#pdf71ecc9b6)" style="fill: none; stroke: #ffffff; stroke-width: 0.8; stroke-linecap: round"/>
     </g>
     <g id="text_3">
      <!-- 100 -->
      <g style="fill: #262626" transform="translate(153.159987 255.8525)scale(0.16 -0.16)">
       <defs>
        <path id="ArialMT-31" d="M 2384 0 
L 1822 0 
L 1822 3584 
Q 1619 3391 1289 3197 
Q 959 3003 697 2906 
L 697 3450 
Q 1169 3672 1522 3987 
Q 1875 4303 2022 4600 
L 2384 4600 
L 2384 0 
z
" transform="scale(0.015625)"/>
       </defs>
       <use xlink:href="#ArialMT-31"/>
       <use xlink:href="#ArialMT-30" x="55.615234"/>
       <use xlink:href="#ArialMT-30" x="111.230469"/>
      </g>
     </g>
    </g>
    <g id="xtick_4">
     <g id="line2d_4">
      <path d="M 214.576651 237.4 
L 214.576651 10.8 
" clip-path="url(#pdf71ecc9b6)" style="fill: none; stroke: #ffffff; stroke-width: 0.8; stroke-linecap: round"/>
     </g>
     <g id="text_4">
      <!-- 150 -->
      <g style="fill: #262626" transform="translate(201.230401 255.8525)scale(0.16 -0.16)">
       <use xlink:href="#ArialMT-31"/>
       <use xlink:href="#ArialMT-35" x="55.615234"/>
       <use xlink:href="#ArialMT-30" x="111.230469"/>
      </g>
     </g>
    </g>
    <g id="xtick_5">
     <g id="line2d_5">
      <path d="M 262.647065 237.4 
L 262.647065 10.8 
" clip-path="url(#pdf71ecc9b6)" style="fill: none; stroke: #ffffff; stroke-width: 0.8; stroke-linecap: round"/>
     </g>
     <g id="text_5">
      <!-- 200 -->
      <g style="fill: #262626" transform="translate(249.300815 255.8525)scale(0.16 -0.16)">
       <defs>
        <path id="ArialMT-32" d="M 3222 541 
L 3222 0 
L 194 0 
Q 188 203 259 391 
Q 375 700 629 1000 
Q 884 1300 1366 1694 
Q 2113 2306 2375 2664 
Q 2638 3022 2638 3341 
Q 2638 3675 2398 3904 
Q 2159 4134 1775 4134 
Q 1369 4134 1125 3890 
Q 881 3647 878 3216 
L 300 3275 
Q 359 3922 746 4261 
Q 1134 4600 1788 4600 
Q 2447 4600 2831 4234 
Q 3216 3869 3216 3328 
Q 3216 3053 3103 2787 
Q 2991 2522 2730 2228 
Q 2469 1934 1863 1422 
Q 1356 997 1212 845 
Q 1069 694 975 541 
L 3222 541 
z
" transform="scale(0.015625)"/>
       </defs>
       <use xlink:href="#ArialMT-32"/>
       <use xlink:href="#ArialMT-30" x="55.615234"/>
       <use xlink:href="#ArialMT-30" x="111.230469"/>
      </g>
     </g>
    </g>
    <g id="xtick_6">
     <g id="line2d_6">
      <path d="M 310.717479 237.4 
L 310.717479 10.8 
" clip-path="url(#pdf71ecc9b6)" style="fill: none; stroke: #ffffff; stroke-width: 0.8; stroke-linecap: round"/>
     </g>
     <g id="text_6">
      <!-- 250 -->
      <g style="fill: #262626" transform="translate(297.371229 255.8525)scale(0.16 -0.16)">
       <use xlink:href="#ArialMT-32"/>
       <use xlink:href="#ArialMT-35" x="55.615234"/>
       <use xlink:href="#ArialMT-30" x="111.230469"/>
      </g>
     </g>
    </g>
    <g id="xtick_7">
     <g id="line2d_7">
      <path d="M 358.787893 237.4 
L 358.787893 10.8 
" clip-path="url(#pdf71ecc9b6)" style="fill: none; stroke: #ffffff; stroke-width: 0.8; stroke-linecap: round"/>
     </g>
     <g id="text_7">
      <!-- 300 -->
      <g style="fill: #262626" transform="translate(345.441643 255.8525)scale(0.16 -0.16)">
       <defs>
        <path id="ArialMT-33" d="M 269 1209 
L 831 1284 
Q 928 806 1161 595 
Q 1394 384 1728 384 
Q 2125 384 2398 659 
Q 2672 934 2672 1341 
Q 2672 1728 2419 1979 
Q 2166 2231 1775 2231 
Q 1616 2231 1378 2169 
L 1441 2663 
Q 1497 2656 1531 2656 
Q 1891 2656 2178 2843 
Q 2466 3031 2466 3422 
Q 2466 3731 2256 3934 
Q 2047 4138 1716 4138 
Q 1388 4138 1169 3931 
Q 950 3725 888 3313 
L 325 3413 
Q 428 3978 793 4289 
Q 1159 4600 1703 4600 
Q 2078 4600 2393 4439 
Q 2709 4278 2876 4000 
Q 3044 3722 3044 3409 
Q 3044 3113 2884 2869 
Q 2725 2625 2413 2481 
Q 2819 2388 3044 2092 
Q 3269 1797 3269 1353 
Q 3269 753 2831 336 
Q 2394 -81 1725 -81 
Q 1122 -81 723 278 
Q 325 638 269 1209 
z
" transform="scale(0.015625)"/>
       </defs>
       <use xlink:href="#ArialMT-33"/>
       <use xlink:href="#ArialMT-30" x="55.615234"/>
       <use xlink:href="#ArialMT-30" x="111.230469"/>
      </g>
     </g>
    </g>
    <g id="xtick_8">
     <g id="line2d_8">
      <path d="M 406.858307 237.4 
L 406.858307 10.8 
" clip-path="url(#pdf71ecc9b6)" style="fill: none; stroke: #ffffff; stroke-width: 0.8; stroke-linecap: round"/>
     </g>
     <g id="text_8">
      <!-- 350 -->
      <g style="fill: #262626" transform="translate(393.512057 255.8525)scale(0.16 -0.16)">
       <use xlink:href="#ArialMT-33"/>
       <use xlink:href="#ArialMT-35" x="55.615234"/>
       <use xlink:href="#ArialMT-30" x="111.230469"/>
      </g>
     </g>
    </g>
    <g id="text_9">
     <!-- Time (s) -->
     <g style="fill: #262626" transform="translate(210.250259 274.68)scale(0.16 -0.16)">
      <defs>
       <path id="ArialMT-54" d="M 1659 0 
L 1659 4041 
L 150 4041 
L 150 4581 
L 3781 4581 
L 3781 4041 
L 2266 4041 
L 2266 0 
L 1659 0 
z
" transform="scale(0.015625)"/>
       <path id="ArialMT-69" d="M 425 3934 
L 425 4581 
L 988 4581 
L 988 3934 
L 425 3934 
z
M 425 0 
L 425 3319 
L 988 3319 
L 988 0 
L 425 0 
z
" transform="scale(0.015625)"/>
       <path id="ArialMT-6d" d="M 422 0 
L 422 3319 
L 925 3319 
L 925 2853 
Q 1081 3097 1340 3245 
Q 1600 3394 1931 3394 
Q 2300 3394 2536 3241 
Q 2772 3088 2869 2813 
Q 3263 3394 3894 3394 
Q 4388 3394 4653 3120 
Q 4919 2847 4919 2278 
L 4919 0 
L 4359 0 
L 4359 2091 
Q 4359 2428 4304 2576 
Q 4250 2725 4106 2815 
Q 3963 2906 3769 2906 
Q 3419 2906 3187 2673 
Q 2956 2441 2956 1928 
L 2956 0 
L 2394 0 
L 2394 2156 
Q 2394 2531 2256 2718 
Q 2119 2906 1806 2906 
Q 1569 2906 1367 2781 
Q 1166 2656 1075 2415 
Q 984 2175 984 1722 
L 984 0 
L 422 0 
z
" transform="scale(0.015625)"/>
       <path id="ArialMT-65" d="M 2694 1069 
L 3275 997 
Q 3138 488 2766 206 
Q 2394 -75 1816 -75 
Q 1088 -75 661 373 
Q 234 822 234 1631 
Q 234 2469 665 2931 
Q 1097 3394 1784 3394 
Q 2450 3394 2872 2941 
Q 3294 2488 3294 1666 
Q 3294 1616 3291 1516 
L 816 1516 
Q 847 969 1125 678 
Q 1403 388 1819 388 
Q 2128 388 2347 550 
Q 2566 713 2694 1069 
z
M 847 1978 
L 2700 1978 
Q 2663 2397 2488 2606 
Q 2219 2931 1791 2931 
Q 1403 2931 1139 2672 
Q 875 2413 847 1978 
z
" transform="scale(0.015625)"/>
       <path id="ArialMT-20" transform="scale(0.015625)"/>
       <path id="ArialMT-28" d="M 1497 -1347 
Q 1031 -759 709 28 
Q 388 816 388 1659 
Q 388 2403 628 3084 
Q 909 3875 1497 4659 
L 1900 4659 
Q 1522 4009 1400 3731 
Q 1209 3300 1100 2831 
Q 966 2247 966 1656 
Q 966 153 1900 -1347 
L 1497 -1347 
z
" transform="scale(0.015625)"/>
       <path id="ArialMT-73" d="M 197 991 
L 753 1078 
Q 800 744 1014 566 
Q 1228 388 1613 388 
Q 2000 388 2187 545 
Q 2375 703 2375 916 
Q 2375 1106 2209 1216 
Q 2094 1291 1634 1406 
Q 1016 1563 777 1677 
Q 538 1791 414 1992 
Q 291 2194 291 2438 
Q 291 2659 392 2848 
Q 494 3038 669 3163 
Q 800 3259 1026 3326 
Q 1253 3394 1513 3394 
Q 1903 3394 2198 3281 
Q 2494 3169 2634 2976 
Q 2775 2784 2828 2463 
L 2278 2388 
Q 2241 2644 2061 2787 
Q 1881 2931 1553 2931 
Q 1166 2931 1000 2803 
Q 834 2675 834 2503 
Q 834 2394 903 2306 
Q 972 2216 1119 2156 
Q 1203 2125 1616 2013 
Q 2213 1853 2448 1751 
Q 2684 1650 2818 1456 
Q 2953 1263 2953 975 
Q 2953 694 2789 445 
Q 2625 197 2315 61 
Q 2006 -75 1616 -75 
Q 969 -75 630 194 
Q 291 463 197 991 
z
" transform="scale(0.015625)"/>
       <path id="ArialMT-29" d="M 791 -1347 
L 388 -1347 
Q 1322 153 1322 1656 
Q 1322 2244 1188 2822 
Q 1081 3291 891 3722 
Q 769 4003 388 4659 
L 791 4659 
Q 1378 3875 1659 3084 
Q 1900 2403 1900 1659 
Q 1900 816 1576 28 
Q 1253 -759 791 -1347 
z
" transform="scale(0.015625)"/>
      </defs>
      <use xlink:href="#ArialMT-54"/>
      <use xlink:href="#ArialMT-69" x="57.333984"/>
      <use xlink:href="#ArialMT-6d" x="79.550781"/>
      <use xlink:href="#ArialMT-65" x="162.851562"/>
      <use xlink:href="#ArialMT-20" x="218.466797"/>
      <use xlink:href="#ArialMT-28" x="246.25"/>
      <use xlink:href="#ArialMT-73" x="279.550781"/>
      <use xlink:href="#ArialMT-29" x="329.550781"/>
     </g>
    </g>
   </g>
   <g id="matplotlib.axis_2">
    <g id="ytick_1">
     <g id="line2d_9">
      <path d="M 58.4975 227.1 
L 420.055519 227.1 
" clip-path="url(#pdf71ecc9b6)" style="fill: none; stroke: #ffffff; stroke-width: 0.8; stroke-linecap: round"/>
     </g>
     <g id="text_10">
      <!-- 0.0 -->
      <g style="fill: #262626" transform="translate(29.2575 232.82625)scale(0.16 -0.16)">
       <defs>
        <path id="ArialMT-2e" d="M 581 0 
L 581 641 
L 1222 641 
L 1222 0 
L 581 0 
z
" transform="scale(0.015625)"/>
       </defs>
       <use xlink:href="#ArialMT-30"/>
       <use xlink:href="#ArialMT-2e" x="55.615234"/>
       <use xlink:href="#ArialMT-30" x="83.398438"/>
      </g>
     </g>
    </g>
    <g id="ytick_2">
     <g id="line2d_10">
      <path d="M 58.4975 185.9 
L 420.055519 185.9 
" clip-path="url(#pdf71ecc9b6)" style="fill: none; stroke: #ffffff; stroke-width: 0.8; stroke-linecap: round"/>
     </g>
     <g id="text_11">
      <!-- 0.2 -->
      <g style="fill: #262626" transform="translate(29.2575 191.62625)scale(0.16 -0.16)">
       <use xlink:href="#ArialMT-30"/>
       <use xlink:href="#ArialMT-2e" x="55.615234"/>
       <use xlink:href="#ArialMT-32" x="83.398438"/>
      </g>
     </g>
    </g>
    <g id="ytick_3">
     <g id="line2d_11">
      <path d="M 58.4975 144.7 
L 420.055519 144.7 
" clip-path="url(#pdf71ecc9b6)" style="fill: none; stroke: #ffffff; stroke-width: 0.8; stroke-linecap: round"/>
     </g>
     <g id="text_12">
      <!-- 0.4 -->
      <g style="fill: #262626" transform="translate(29.2575 150.42625)scale(0.16 -0.16)">
       <defs>
        <path id="ArialMT-34" d="M 2069 0 
L 2069 1097 
L 81 1097 
L 81 1613 
L 2172 4581 
L 2631 4581 
L 2631 1613 
L 3250 1613 
L 3250 1097 
L 2631 1097 
L 2631 0 
L 2069 0 
z
M 2069 1613 
L 2069 3678 
L 634 1613 
L 2069 1613 
z
" transform="scale(0.015625)"/>
       </defs>
       <use xlink:href="#ArialMT-30"/>
       <use xlink:href="#ArialMT-2e" x="55.615234"/>
       <use xlink:href="#ArialMT-34" x="83.398438"/>
      </g>
     </g>
    </g>
    <g id="ytick_4">
     <g id="line2d_12">
      <path d="M 58.4975 103.5 
L 420.055519 103.5 
" clip-path="url(#pdf71ecc9b6)" style="fill: none; stroke: #ffffff; stroke-width: 0.8; stroke-linecap: round"/>
     </g>
     <g id="text_13">
      <!-- 0.6 -->
      <g style="fill: #262626" transform="translate(29.2575 109.22625)scale(0.16 -0.16)">
       <defs>
        <path id="ArialMT-36" d="M 3184 3459 
L 2625 3416 
Q 2550 3747 2413 3897 
Q 2184 4138 1850 4138 
Q 1581 4138 1378 3988 
Q 1113 3794 959 3422 
Q 806 3050 800 2363 
Q 1003 2672 1297 2822 
Q 1591 2972 1913 2972 
Q 2475 2972 2870 2558 
Q 3266 2144 3266 1488 
Q 3266 1056 3080 686 
Q 2894 316 2569 119 
Q 2244 -78 1831 -78 
Q 1128 -78 684 439 
Q 241 956 241 2144 
Q 241 3472 731 4075 
Q 1159 4600 1884 4600 
Q 2425 4600 2770 4297 
Q 3116 3994 3184 3459 
z
M 888 1484 
Q 888 1194 1011 928 
Q 1134 663 1356 523 
Q 1578 384 1822 384 
Q 2178 384 2434 671 
Q 2691 959 2691 1453 
Q 2691 1928 2437 2201 
Q 2184 2475 1800 2475 
Q 1419 2475 1153 2201 
Q 888 1928 888 1484 
z
" transform="scale(0.015625)"/>
       </defs>
       <use xlink:href="#ArialMT-30"/>
       <use xlink:href="#ArialMT-2e" x="55.615234"/>
       <use xlink:href="#ArialMT-36" x="83.398438"/>
      </g>
     </g>
    </g>
    <g id="ytick_5">
     <g id="line2d_13">
      <path d="M 58.4975 62.3 
L 420.055519 62.3 
" clip-path="url(#pdf71ecc9b6)" style="fill: none; stroke: #ffffff; stroke-width: 0.8; stroke-linecap: round"/>
     </g>
     <g id="text_14">
      <!-- 0.8 -->
      <g style="fill: #262626" transform="translate(29.2575 68.02625)scale(0.16 -0.16)">
       <defs>
        <path id="ArialMT-38" d="M 1131 2484 
Q 781 2613 612 2850 
Q 444 3088 444 3419 
Q 444 3919 803 4259 
Q 1163 4600 1759 4600 
Q 2359 4600 2725 4251 
Q 3091 3903 3091 3403 
Q 3091 3084 2923 2848 
Q 2756 2613 2416 2484 
Q 2838 2347 3058 2040 
Q 3278 1734 3278 1309 
Q 3278 722 2862 322 
Q 2447 -78 1769 -78 
Q 1091 -78 675 323 
Q 259 725 259 1325 
Q 259 1772 486 2073 
Q 713 2375 1131 2484 
z
M 1019 3438 
Q 1019 3113 1228 2906 
Q 1438 2700 1772 2700 
Q 2097 2700 2305 2904 
Q 2513 3109 2513 3406 
Q 2513 3716 2298 3927 
Q 2084 4138 1766 4138 
Q 1444 4138 1231 3931 
Q 1019 3725 1019 3438 
z
M 838 1322 
Q 838 1081 952 856 
Q 1066 631 1291 507 
Q 1516 384 1775 384 
Q 2178 384 2440 643 
Q 2703 903 2703 1303 
Q 2703 1709 2433 1975 
Q 2163 2241 1756 2241 
Q 1359 2241 1098 1978 
Q 838 1716 838 1322 
z
" transform="scale(0.015625)"/>
       </defs>
       <use xlink:href="#ArialMT-30"/>
       <use xlink:href="#ArialMT-2e" x="55.615234"/>
       <use xlink:href="#ArialMT-38" x="83.398438"/>
      </g>
     </g>
    </g>
    <g id="ytick_6">
     <g id="line2d_14">
      <path d="M 58.4975 21.1 
L 420.055519 21.1 
" clip-path="url(#pdf71ecc9b6)" style="fill: none; stroke: #ffffff; stroke-width: 0.8; stroke-linecap: round"/>
     </g>
     <g id="text_15">
      <!-- 1.0 -->
      <g style="fill: #262626" transform="translate(29.2575 26.82625)scale(0.16 -0.16)">
       <use xlink:href="#ArialMT-31"/>
       <use xlink:href="#ArialMT-2e" x="55.615234"/>
       <use xlink:href="#ArialMT-30" x="83.398438"/>
      </g>
     </g>
    </g>
    <g id="text_16">
     <!-- % of Experiments -->
     <g style="fill: #262626" transform="translate(22.0775 186.78875)rotate(-90)scale(0.16 -0.16)">
      <defs>
       <path id="ArialMT-25" d="M 372 3481 
Q 372 3972 619 4315 
Q 866 4659 1334 4659 
Q 1766 4659 2048 4351 
Q 2331 4044 2331 3447 
Q 2331 2866 2045 2552 
Q 1759 2238 1341 2238 
Q 925 2238 648 2547 
Q 372 2856 372 3481 
z
M 1350 4272 
Q 1141 4272 1002 4090 
Q 863 3909 863 3425 
Q 863 2984 1003 2804 
Q 1144 2625 1350 2625 
Q 1563 2625 1702 2806 
Q 1841 2988 1841 3469 
Q 1841 3913 1700 4092 
Q 1559 4272 1350 4272 
z
M 1353 -169 
L 3859 4659 
L 4316 4659 
L 1819 -169 
L 1353 -169 
z
M 3334 1075 
Q 3334 1569 3581 1911 
Q 3828 2253 4300 2253 
Q 4731 2253 5014 1945 
Q 5297 1638 5297 1041 
Q 5297 459 5011 145 
Q 4725 -169 4303 -169 
Q 3888 -169 3611 142 
Q 3334 453 3334 1075 
z
M 4316 1866 
Q 4103 1866 3964 1684 
Q 3825 1503 3825 1019 
Q 3825 581 3965 400 
Q 4106 219 4313 219 
Q 4528 219 4667 400 
Q 4806 581 4806 1063 
Q 4806 1506 4665 1686 
Q 4525 1866 4316 1866 
z
" transform="scale(0.015625)"/>
       <path id="ArialMT-6f" d="M 213 1659 
Q 213 2581 725 3025 
Q 1153 3394 1769 3394 
Q 2453 3394 2887 2945 
Q 3322 2497 3322 1706 
Q 3322 1066 3130 698 
Q 2938 331 2570 128 
Q 2203 -75 1769 -75 
Q 1072 -75 642 372 
Q 213 819 213 1659 
z
M 791 1659 
Q 791 1022 1069 705 
Q 1347 388 1769 388 
Q 2188 388 2466 706 
Q 2744 1025 2744 1678 
Q 2744 2294 2464 2611 
Q 2184 2928 1769 2928 
Q 1347 2928 1069 2612 
Q 791 2297 791 1659 
z
" transform="scale(0.015625)"/>
       <path id="ArialMT-66" d="M 556 0 
L 556 2881 
L 59 2881 
L 59 3319 
L 556 3319 
L 556 3672 
Q 556 4006 616 4169 
Q 697 4388 901 4523 
Q 1106 4659 1475 4659 
Q 1713 4659 2000 4603 
L 1916 4113 
Q 1741 4144 1584 4144 
Q 1328 4144 1222 4034 
Q 1116 3925 1116 3625 
L 1116 3319 
L 1763 3319 
L 1763 2881 
L 1116 2881 
L 1116 0 
L 556 0 
z
" transform="scale(0.015625)"/>
       <path id="ArialMT-45" d="M 506 0 
L 506 4581 
L 3819 4581 
L 3819 4041 
L 1113 4041 
L 1113 2638 
L 3647 2638 
L 3647 2100 
L 1113 2100 
L 1113 541 
L 3925 541 
L 3925 0 
L 506 0 
z
" transform="scale(0.015625)"/>
       <path id="ArialMT-78" d="M 47 0 
L 1259 1725 
L 138 3319 
L 841 3319 
L 1350 2541 
Q 1494 2319 1581 2169 
Q 1719 2375 1834 2534 
L 2394 3319 
L 3066 3319 
L 1919 1756 
L 3153 0 
L 2463 0 
L 1781 1031 
L 1600 1309 
L 728 0 
L 47 0 
z
" transform="scale(0.015625)"/>
       <path id="ArialMT-70" d="M 422 -1272 
L 422 3319 
L 934 3319 
L 934 2888 
Q 1116 3141 1344 3267 
Q 1572 3394 1897 3394 
Q 2322 3394 2647 3175 
Q 2972 2956 3137 2557 
Q 3303 2159 3303 1684 
Q 3303 1175 3120 767 
Q 2938 359 2589 142 
Q 2241 -75 1856 -75 
Q 1575 -75 1351 44 
Q 1128 163 984 344 
L 984 -1272 
L 422 -1272 
z
M 931 1641 
Q 931 1000 1190 694 
Q 1450 388 1819 388 
Q 2194 388 2461 705 
Q 2728 1022 2728 1688 
Q 2728 2322 2467 2637 
Q 2206 2953 1844 2953 
Q 1484 2953 1207 2617 
Q 931 2281 931 1641 
z
" transform="scale(0.015625)"/>
       <path id="ArialMT-72" d="M 416 0 
L 416 3319 
L 922 3319 
L 922 2816 
Q 1116 3169 1280 3281 
Q 1444 3394 1641 3394 
Q 1925 3394 2219 3213 
L 2025 2691 
Q 1819 2813 1613 2813 
Q 1428 2813 1281 2702 
Q 1134 2591 1072 2394 
Q 978 2094 978 1738 
L 978 0 
L 416 0 
z
" transform="scale(0.015625)"/>
       <path id="ArialMT-6e" d="M 422 0 
L 422 3319 
L 928 3319 
L 928 2847 
Q 1294 3394 1984 3394 
Q 2284 3394 2536 3286 
Q 2788 3178 2913 3003 
Q 3038 2828 3088 2588 
Q 3119 2431 3119 2041 
L 3119 0 
L 2556 0 
L 2556 2019 
Q 2556 2363 2490 2533 
Q 2425 2703 2258 2804 
Q 2091 2906 1866 2906 
Q 1506 2906 1245 2678 
Q 984 2450 984 1813 
L 984 0 
L 422 0 
z
" transform="scale(0.015625)"/>
       <path id="ArialMT-74" d="M 1650 503 
L 1731 6 
Q 1494 -44 1306 -44 
Q 1000 -44 831 53 
Q 663 150 594 308 
Q 525 466 525 972 
L 525 2881 
L 113 2881 
L 113 3319 
L 525 3319 
L 525 4141 
L 1084 4478 
L 1084 3319 
L 1650 3319 
L 1650 2881 
L 1084 2881 
L 1084 941 
Q 1084 700 1114 631 
Q 1144 563 1211 522 
Q 1278 481 1403 481 
Q 1497 481 1650 503 
z
" transform="scale(0.015625)"/>
      </defs>
      <use xlink:href="#ArialMT-25"/>
      <use xlink:href="#ArialMT-20" x="88.916016"/>
      <use xlink:href="#ArialMT-6f" x="116.699219"/>
      <use xlink:href="#ArialMT-66" x="172.314453"/>
      <use xlink:href="#ArialMT-20" x="200.097656"/>
      <use xlink:href="#ArialMT-45" x="227.880859"/>
      <use xlink:href="#ArialMT-78" x="294.580078"/>
      <use xlink:href="#ArialMT-70" x="344.580078"/>
      <use xlink:href="#ArialMT-65" x="400.195312"/>
      <use xlink:href="#ArialMT-72" x="455.810547"/>
      <use xlink:href="#ArialMT-69" x="489.111328"/>
      <use xlink:href="#ArialMT-6d" x="511.328125"/>
      <use xlink:href="#ArialMT-65" x="594.628906"/>
      <use xlink:href="#ArialMT-6e" x="650.244141"/>
      <use xlink:href="#ArialMT-74" x="705.859375"/>
      <use xlink:href="#ArialMT-73" x="733.642578"/>
     </g>
    </g>
   </g>
   <g id="line2d_15">
    <path d="M 96.581741 227.1 
L 99.970386 226.252263 
L 100.030416 225.404527 
L 100.406977 224.55679 
L 100.783476 222.861317 
L 101.96106 222.01358 
L 102.329386 221.165844 
L 102.370377 220.318107 
L 102.650283 218.622634 
L 102.692476 217.774897 
L 102.909372 216.92716 
L 104.65001 216.079424 
L 105.103619 212.688477 
L 105.243234 209.297531 
L 105.392025 206.754321 
L 105.572965 205.906584 
L 106.88635 205.058848 
L 106.981666 204.211111 
L 107.216082 203.363374 
L 107.298115 201.667901 
L 107.585598 199.124691 
L 107.856296 195.733745 
L 108.589162 193.190535 
L 109.101087 192.342798 
L 109.553525 190.647325 
L 109.796317 188.951852 
L 110.197405 188.104115 
L 110.31931 185.560905 
L 110.478446 184.713169 
L 111.577513 183.017695 
L 111.631667 182.169959 
L 112.132658 179.626749 
L 112.546779 178.779012 
L 113.541903 177.931276 
L 113.687925 175.388066 
L 114.295015 172.844856 
L 114.392528 171.149383 
L 114.742232 170.301646 
L 114.836771 169.453909 
L 115.231587 167.758436 
L 116.523181 166.062963 
L 116.789319 165.215226 
L 116.871045 164.36749 
L 117.123235 163.519753 
L 117.577173 159.28107 
L 117.821187 158.433333 
L 118.218136 157.585597 
L 119.925249 155.890123 
L 121.589496 155.042387 
L 121.934619 152.499177 
L 122.744957 151.65144 
L 122.787743 149.955967 
L 123.021671 149.10823 
L 123.049637 148.260494 
L 123.206447 147.412757 
L 123.40097 144.869547 
L 123.785936 143.174074 
L 123.796876 142.326337 
L 124.052955 141.478601 
L 124.214476 138.935391 
L 124.225712 138.087654 
L 124.661417 137.239918 
L 124.746825 135.544444 
L 125.08429 134.696708 
L 125.207659 133.001235 
L 125.824704 132.153498 
L 126.277274 130.458025 
L 126.390314 128.762551 
L 127.007326 127.914815 
L 127.406846 127.067078 
L 127.491135 126.219342 
L 127.867675 125.371605 
L 128.182097 122.828395 
L 128.537379 121.132922 
L 128.547666 120.285185 
L 128.674489 119.437449 
L 128.920658 118.589712 
L 129.511015 114.351029 
L 129.932513 112.655556 
L 129.935371 111.807819 
L 130.06733 110.112346 
L 130.363066 105.873663 
L 130.896045 97.396296 
L 131.307252 95.700823 
L 131.827196 94.853086 
L 132.076273 94.00535 
L 132.4431 91.46214 
L 132.447838 90.614403 
L 132.609425 89.766667 
L 132.767551 87.223457 
L 133.115069 86.37572 
L 133.12673 84.680247 
L 133.38232 83.83251 
L 134.124334 78.746091 
L 134.278645 77.898354 
L 134.427345 74.507407 
L 134.671042 73.659671 
L 135.229388 72.811934 
L 135.252571 71.964198 
L 135.582555 71.116461 
L 135.587167 70.268724 
L 136.118502 67.725514 
L 136.135309 66.877778 
L 136.387643 66.030041 
L 136.54627 64.334568 
L 136.897426 62.639095 
L 136.932007 61.791358 
L 137.196957 60.095885 
L 137.263926 58.400412 
L 137.593579 57.552675 
L 137.767251 56.704938 
L 137.819341 55.857202 
L 138.195018 55.009465 
L 138.30082 52.466255 
L 138.591682 51.618519 
L 139.397156 50.770782 
L 140.359872 48.227572 
L 140.424225 46.532099 
L 140.771873 45.684362 
L 140.883195 43.988889 
L 141.381296 43.141152 
L 141.395269 42.293416 
L 141.559414 41.445679 
L 142.771045 39.750206 
L 142.915303 38.902469 
L 143.833275 38.054733 
L 144.497273 36.359259 
L 145.701183 35.511523 
L 145.726751 34.663786 
L 146.10451 33.816049 
L 146.177548 32.968313 
L 146.913412 32.120576 
L 147.302219 31.27284 
L 148.783453 30.425103 
L 150.618986 29.577366 
L 151.064577 28.72963 
L 151.179492 27.881893 
L 152.255295 27.034156 
L 153.118412 26.18642 
L 154.153144 25.338683 
L 156.598747 23.64321 
L 181.690708 22.795473 
L 183.786838 21.947737 
L 222.368675 21.1 
L 222.368675 21.1 
" clip-path="url(#pdf71ecc9b6)" style="fill: none; stroke: #1f77b4; stroke-width: 1.5; stroke-linecap: round"/>
   </g>
   <g id="line2d_16">
    <path d="M 80.588249 227.1 
L 80.734328 225.404527 
L 80.854805 222.01358 
L 82.712475 221.165844 
L 82.968685 209.297531 
L 84.67994 208.449794 
L 84.812135 205.906584 
L 85.071462 196.581481 
L 86.732169 195.733745 
L 87.205859 184.713169 
L 88.850674 183.865432 
L 89.079269 177.931276 
L 89.148974 175.388066 
L 90.847446 174.540329 
L 90.992402 172.844856 
L 91.037437 169.453909 
L 91.184936 167.758436 
L 91.196254 166.062963 
L 91.372271 165.215226 
L 93.067611 164.36749 
L 93.079761 162.672016 
L 93.224325 161.82428 
L 93.265907 158.433333 
L 95.019736 157.585597 
L 95.173095 155.890123 
L 95.321676 149.10823 
L 95.495352 144.021811 
L 95.628646 142.326337 
L 95.72834 140.630864 
L 97.193483 139.783128 
L 97.357688 133.848971 
L 97.478955 129.610288 
L 97.713882 121.132922 
L 97.919623 117.741975 
L 99.061885 116.894239 
L 99.310126 110.960082 
L 99.439687 100.787243 
L 99.527903 95.700823 
L 99.6977 87.223457 
L 100.037085 82.984774 
L 101.201338 82.137037 
L 101.425789 79.593827 
L 101.71186 69.420988 
L 101.83099 67.725514 
L 101.932736 65.182305 
L 102.223126 63.486831 
L 102.348333 61.791358 
L 103.321947 60.943621 
L 103.402177 59.248148 
L 103.420925 57.552675 
L 103.582443 56.704938 
L 103.671929 49.923045 
L 103.766883 47.379835 
L 103.780821 46.532099 
L 104.093368 45.684362 
L 105.076129 44.836626 
L 105.570196 43.988889 
L 105.63275 42.293416 
L 105.712484 41.445679 
L 106.692574 39.750206 
L 107.419327 38.902469 
L 107.50524 37.206996 
L 107.752848 35.511523 
L 107.787408 33.816049 
L 108.033284 32.968313 
L 108.073044 32.120576 
L 108.891915 30.425103 
L 109.357343 27.881893 
L 110.150608 27.034156 
L 111.539612 26.18642 
L 111.670889 24.490947 
L 112.391876 23.64321 
L 112.444117 22.795473 
L 113.227596 21.947737 
L 114.197821 21.1 
L 403.621064 21.1 
L 403.621064 21.1 
" clip-path="url(#pdf71ecc9b6)" style="fill: none; stroke: #ff7f0e; stroke-width: 1.5; stroke-linecap: round"/>
   </g>
   <g id="line2d_17">
    <path d="M 74.931955 227.1 
L 75.443492 226.252263 
L 77.079091 225.404527 
L 77.415293 224.55679 
L 78.251251 223.709053 
L 79.435947 222.861317 
L 79.779206 222.01358 
L 80.744496 221.165844 
L 80.797554 220.318107 
L 81.699929 219.47037 
L 82.635454 217.774897 
L 83.376617 216.92716 
L 85.154657 216.079424 
L 85.679641 215.231687 
L 85.924612 214.383951 
L 86.862806 213.536214 
L 88.263069 212.688477 
L 88.735548 211.840741 
L 88.953587 209.297531 
L 90.558554 208.449794 
L 91.518437 207.602058 
L 92.691583 205.906584 
L 93.175793 205.058848 
L 93.466872 203.363374 
L 93.890701 202.515638 
L 94.673466 201.667901 
L 95.799591 200.820165 
L 96.404342 199.972428 
L 97.286651 199.124691 
L 98.376734 197.429218 
L 98.705357 195.733745 
L 99.122838 194.886008 
L 99.205676 194.038272 
L 99.692446 193.190535 
L 100.178994 191.495062 
L 101.359578 190.647325 
L 101.571582 188.951852 
L 101.846278 187.256379 
L 102.346421 186.408642 
L 102.542184 185.560905 
L 102.564643 184.713169 
L 103.608355 183.865432 
L 105.3763 183.017695 
L 105.649705 182.169959 
L 106.284762 181.322222 
L 106.498461 177.931276 
L 106.616008 177.083539 
L 106.930591 176.235802 
L 107.034293 175.388066 
L 108.327345 174.540329 
L 108.770844 173.692593 
L 109.213823 167.758436 
L 109.379833 166.9107 
L 110.579436 166.062963 
L 110.960091 164.36749 
L 111.720393 162.672016 
L 112.210747 161.82428 
L 112.728873 160.128807 
L 113.107156 159.28107 
L 113.360414 158.433333 
L 114.55775 157.585597 
L 114.59466 156.73786 
L 116.097286 155.890123 
L 116.402826 154.19465 
L 116.614797 153.346914 
L 117.110171 152.499177 
L 119.338606 151.65144 
L 119.831203 150.803704 
L 122.914021 149.10823 
L 123.770947 147.412757 
L 124.704563 146.565021 
L 125.067363 144.021811 
L 125.694624 143.174074 
L 127.148447 142.326337 
L 127.558803 141.478601 
L 127.619691 140.630864 
L 128.096154 139.783128 
L 128.218777 138.935391 
L 128.674298 138.087654 
L 129.617095 137.239918 
L 131.379696 133.001235 
L 133.490795 132.153498 
L 133.813096 131.305761 
L 133.844671 130.458025 
L 134.323898 129.610288 
L 137.112857 128.762551 
L 137.345223 127.914815 
L 137.358635 127.067078 
L 137.58163 126.219342 
L 138.003887 125.371605 
L 138.2177 123.676132 
L 138.632264 122.828395 
L 138.925794 121.132922 
L 139.242841 120.285185 
L 139.247428 119.437449 
L 141.2414 117.741975 
L 141.715354 116.894239 
L 142.707611 116.046502 
L 142.898177 115.198765 
L 143.463595 114.351029 
L 143.790187 113.503292 
L 144.303327 112.655556 
L 144.51088 110.960082 
L 144.644739 110.112346 
L 145.050421 109.264609 
L 146.221437 108.416872 
L 147.198407 107.569136 
L 147.46917 106.721399 
L 148.308902 105.873663 
L 150.211485 105.025926 
L 150.482457 104.178189 
L 151.029943 103.330453 
L 151.131925 102.482716 
L 152.366648 101.634979 
L 152.562221 100.787243 
L 153.375709 99.939506 
L 153.450061 99.09177 
L 153.6381 98.244033 
L 153.650953 97.396296 
L 153.985621 96.54856 
L 153.991333 95.700823 
L 154.789891 94.853086 
L 155.429557 92.309877 
L 156.583442 91.46214 
L 156.796044 90.614403 
L 156.8336 89.766667 
L 157.499391 88.91893 
L 159.602995 88.071193 
L 160.400815 87.223457 
L 160.6561 86.37572 
L 161.152269 85.527984 
L 161.190272 84.680247 
L 161.975426 83.83251 
L 163.020125 82.984774 
L 163.095256 82.137037 
L 163.303638 81.2893 
L 163.376221 80.441564 
L 164.079263 79.593827 
L 164.602471 78.746091 
L 165.424869 77.898354 
L 167.701843 77.050617 
L 168.098216 76.202881 
L 168.151488 75.355144 
L 169.206975 74.507407 
L 169.335134 73.659671 
L 169.57942 72.811934 
L 170.200913 71.964198 
L 170.29745 71.116461 
L 170.811992 70.268724 
L 171.893017 69.420988 
L 171.955977 68.573251 
L 172.700492 67.725514 
L 172.964553 66.877778 
L 173.634914 66.030041 
L 175.002915 65.182305 
L 176.60883 63.486831 
L 177.112013 62.639095 
L 177.896264 61.791358 
L 179.188408 60.943621 
L 179.413366 60.095885 
L 180.588389 59.248148 
L 180.617489 58.400412 
L 181.657691 57.552675 
L 183.734743 56.704938 
L 187.628437 55.857202 
L 187.644628 55.009465 
L 187.814541 54.161728 
L 189.279146 53.313992 
L 191.979577 52.466255 
L 193.306377 51.618519 
L 193.686427 50.770782 
L 193.891994 49.923045 
L 193.946045 49.075309 
L 194.782412 48.227572 
L 195.268185 46.532099 
L 197.853456 45.684362 
L 198.199001 44.836626 
L 202.223902 43.988889 
L 203.422962 43.141152 
L 203.690439 42.293416 
L 204.395727 41.445679 
L 204.927987 40.597942 
L 208.140603 39.750206 
L 208.297227 38.902469 
L 208.954013 38.054733 
L 209.078426 37.206996 
L 212.919081 36.359259 
L 213.056323 35.511523 
L 220.358872 34.663786 
L 223.682314 33.816049 
L 232.148862 32.968313 
L 234.025532 32.120576 
L 236.229404 31.27284 
L 236.93876 30.425103 
L 244.816033 29.577366 
L 245.330418 28.72963 
L 246.287805 27.881893 
L 257.625459 27.034156 
L 259.648336 26.18642 
L 266.07574 25.338683 
L 291.838497 24.490947 
L 328.726082 23.64321 
L 350.069492 22.795473 
L 358.132417 21.947737 
L 403.621064 21.1 
L 403.621064 21.1 
" clip-path="url(#pdf71ecc9b6)" style="fill: none; stroke: #2ca02c; stroke-width: 1.5; stroke-linecap: round"/>
   </g>
   <g id="patch_3">
    <path d="M 58.4975 237.4 
L 58.4975 10.8 
" style="fill: none; stroke: #ffffff; stroke-width: 0.8; stroke-linejoin: miter; stroke-linecap: square"/>
   </g>
   <g id="patch_4">
    <path d="M 420.055519 237.4 
L 420.055519 10.8 
" style="fill: none; stroke: #ffffff; stroke-width: 0.8; stroke-linejoin: miter; stroke-linecap: square"/>
   </g>
   <g id="patch_5">
    <path d="M 58.4975 237.4 
L 420.055519 237.4 
" style="fill: none; stroke: #ffffff; stroke-width: 0.8; stroke-linejoin: miter; stroke-linecap: square"/>
   </g>
   <g id="patch_6">
    <path d="M 58.4975 10.8 
L 420.055519 10.8 
" style="fill: none; stroke: #ffffff; stroke-width: 0.8; stroke-linejoin: miter; stroke-linecap: square"/>
   </g>
   <g id="legend_1">
    <g id="patch_7">
     <path d="M 218.340519 229.4 
L 408.855519 229.4 
Q 412.055519 229.4 412.055519 226.2 
L 412.055519 159.9025 
Q 412.055519 156.7025 408.855519 156.7025 
L 218.340519 156.7025 
Q 215.140519 156.7025 215.140519 159.9025 
L 215.140519 226.2 
Q 215.140519 229.4 218.340519 229.4 
z
" style="fill: #eaeaf2; opacity: 0.8; stroke: #cccccc; stroke-linejoin: miter"/>
    </g>
    <g id="line2d_18">
     <path d="M 221.540519 168.955 
L 237.540519 168.955 
L 253.540519 168.955 
" style="fill: none; stroke: #1f77b4; stroke-width: 1.5; stroke-linecap: round"/>
    </g>
    <g id="text_17">
     <!-- Randomized PADM -->
     <g style="fill: #262626" transform="translate(266.340519 174.555)scale(0.16 -0.16)">
      <defs>
       <path id="ArialMT-52" d="M 503 0 
L 503 4581 
L 2534 4581 
Q 3147 4581 3465 4457 
Q 3784 4334 3975 4021 
Q 4166 3709 4166 3331 
Q 4166 2844 3850 2509 
Q 3534 2175 2875 2084 
Q 3116 1969 3241 1856 
Q 3506 1613 3744 1247 
L 4541 0 
L 3778 0 
L 3172 953 
Q 2906 1366 2734 1584 
Q 2563 1803 2427 1890 
Q 2291 1978 2150 2013 
Q 2047 2034 1813 2034 
L 1109 2034 
L 1109 0 
L 503 0 
z
M 1109 2559 
L 2413 2559 
Q 2828 2559 3062 2645 
Q 3297 2731 3419 2920 
Q 3541 3109 3541 3331 
Q 3541 3656 3305 3865 
Q 3069 4075 2559 4075 
L 1109 4075 
L 1109 2559 
z
" transform="scale(0.015625)"/>
       <path id="ArialMT-61" d="M 2588 409 
Q 2275 144 1986 34 
Q 1697 -75 1366 -75 
Q 819 -75 525 192 
Q 231 459 231 875 
Q 231 1119 342 1320 
Q 453 1522 633 1644 
Q 813 1766 1038 1828 
Q 1203 1872 1538 1913 
Q 2219 1994 2541 2106 
Q 2544 2222 2544 2253 
Q 2544 2597 2384 2738 
Q 2169 2928 1744 2928 
Q 1347 2928 1158 2789 
Q 969 2650 878 2297 
L 328 2372 
Q 403 2725 575 2942 
Q 747 3159 1072 3276 
Q 1397 3394 1825 3394 
Q 2250 3394 2515 3294 
Q 2781 3194 2906 3042 
Q 3031 2891 3081 2659 
Q 3109 2516 3109 2141 
L 3109 1391 
Q 3109 606 3145 398 
Q 3181 191 3288 0 
L 2700 0 
Q 2613 175 2588 409 
z
M 2541 1666 
Q 2234 1541 1622 1453 
Q 1275 1403 1131 1340 
Q 988 1278 909 1158 
Q 831 1038 831 891 
Q 831 666 1001 516 
Q 1172 366 1500 366 
Q 1825 366 2078 508 
Q 2331 650 2450 897 
Q 2541 1088 2541 1459 
L 2541 1666 
z
" transform="scale(0.015625)"/>
       <path id="ArialMT-64" d="M 2575 0 
L 2575 419 
Q 2259 -75 1647 -75 
Q 1250 -75 917 144 
Q 584 363 401 755 
Q 219 1147 219 1656 
Q 219 2153 384 2558 
Q 550 2963 881 3178 
Q 1213 3394 1622 3394 
Q 1922 3394 2156 3267 
Q 2391 3141 2538 2938 
L 2538 4581 
L 3097 4581 
L 3097 0 
L 2575 0 
z
M 797 1656 
Q 797 1019 1065 703 
Q 1334 388 1700 388 
Q 2069 388 2326 689 
Q 2584 991 2584 1609 
Q 2584 2291 2321 2609 
Q 2059 2928 1675 2928 
Q 1300 2928 1048 2622 
Q 797 2316 797 1656 
z
" transform="scale(0.015625)"/>
       <path id="ArialMT-7a" d="M 125 0 
L 125 456 
L 2238 2881 
Q 1878 2863 1603 2863 
L 250 2863 
L 250 3319 
L 2963 3319 
L 2963 2947 
L 1166 841 
L 819 456 
Q 1197 484 1528 484 
L 3063 484 
L 3063 0 
L 125 0 
z
" transform="scale(0.015625)"/>
       <path id="ArialMT-50" d="M 494 0 
L 494 4581 
L 2222 4581 
Q 2678 4581 2919 4538 
Q 3256 4481 3484 4323 
Q 3713 4166 3852 3881 
Q 3991 3597 3991 3256 
Q 3991 2672 3619 2267 
Q 3247 1863 2275 1863 
L 1100 1863 
L 1100 0 
L 494 0 
z
M 1100 2403 
L 2284 2403 
Q 2872 2403 3119 2622 
Q 3366 2841 3366 3238 
Q 3366 3525 3220 3729 
Q 3075 3934 2838 4000 
Q 2684 4041 2272 4041 
L 1100 4041 
L 1100 2403 
z
" transform="scale(0.015625)"/>
       <path id="ArialMT-41" d="M -9 0 
L 1750 4581 
L 2403 4581 
L 4278 0 
L 3588 0 
L 3053 1388 
L 1138 1388 
L 634 0 
L -9 0 
z
M 1313 1881 
L 2866 1881 
L 2388 3150 
Q 2169 3728 2063 4100 
Q 1975 3659 1816 3225 
L 1313 1881 
z
" transform="scale(0.015625)"/>
       <path id="ArialMT-44" d="M 494 0 
L 494 4581 
L 2072 4581 
Q 2606 4581 2888 4516 
Q 3281 4425 3559 4188 
Q 3922 3881 4101 3404 
Q 4281 2928 4281 2316 
Q 4281 1794 4159 1391 
Q 4038 988 3847 723 
Q 3656 459 3429 307 
Q 3203 156 2883 78 
Q 2563 0 2147 0 
L 494 0 
z
M 1100 541 
L 2078 541 
Q 2531 541 2789 625 
Q 3047 709 3200 863 
Q 3416 1078 3536 1442 
Q 3656 1806 3656 2325 
Q 3656 3044 3420 3430 
Q 3184 3816 2847 3947 
Q 2603 4041 2063 4041 
L 1100 4041 
L 1100 541 
z
" transform="scale(0.015625)"/>
       <path id="ArialMT-4d" d="M 475 0 
L 475 4581 
L 1388 4581 
L 2472 1338 
Q 2622 884 2691 659 
Q 2769 909 2934 1394 
L 4031 4581 
L 4847 4581 
L 4847 0 
L 4263 0 
L 4263 3834 
L 2931 0 
L 2384 0 
L 1059 3900 
L 1059 0 
L 475 0 
z
" transform="scale(0.015625)"/>
      </defs>
      <use xlink:href="#ArialMT-52"/>
      <use xlink:href="#ArialMT-61" x="72.216797"/>
      <use xlink:href="#ArialMT-6e" x="127.832031"/>
      <use xlink:href="#ArialMT-64" x="183.447266"/>
      <use xlink:href="#ArialMT-6f" x="239.0625"/>
      <use xlink:href="#ArialMT-6d" x="294.677734"/>
      <use xlink:href="#ArialMT-69" x="377.978516"/>
      <use xlink:href="#ArialMT-7a" x="400.195312"/>
      <use xlink:href="#ArialMT-65" x="450.195312"/>
      <use xlink:href="#ArialMT-64" x="505.810547"/>
      <use xlink:href="#ArialMT-20" x="561.425781"/>
      <use xlink:href="#ArialMT-50" x="589.208984"/>
      <use xlink:href="#ArialMT-41" x="648.533203"/>
      <use xlink:href="#ArialMT-44" x="715.232422"/>
      <use xlink:href="#ArialMT-4d" x="787.449219"/>
     </g>
    </g>
    <g id="line2d_19">
     <path d="M 221.540519 191.5875 
L 237.540519 191.5875 
L 253.540519 191.5875 
" style="fill: none; stroke: #ff7f0e; stroke-width: 1.5; stroke-linecap: round"/>
    </g>
    <g id="text_18">
     <!-- PADM -->
     <g style="fill: #262626" transform="translate(266.340519 197.1875)scale(0.16 -0.16)">
      <use xlink:href="#ArialMT-50"/>
      <use xlink:href="#ArialMT-41" x="59.324219"/>
      <use xlink:href="#ArialMT-44" x="126.023438"/>
      <use xlink:href="#ArialMT-4d" x="198.240234"/>
     </g>
    </g>
    <g id="line2d_20">
     <path d="M 221.540519 214.22 
L 237.540519 214.22 
L 253.540519 214.22 
" style="fill: none; stroke: #2ca02c; stroke-width: 1.5; stroke-linecap: round"/>
    </g>
    <g id="text_19">
     <!-- Exact -->
     <g style="fill: #262626" transform="translate(266.340519 219.82)scale(0.16 -0.16)">
      <defs>
       <path id="ArialMT-63" d="M 2588 1216 
L 3141 1144 
Q 3050 572 2676 248 
Q 2303 -75 1759 -75 
Q 1078 -75 664 370 
Q 250 816 250 1647 
Q 250 2184 428 2587 
Q 606 2991 970 3192 
Q 1334 3394 1763 3394 
Q 2303 3394 2647 3120 
Q 2991 2847 3088 2344 
L 2541 2259 
Q 2463 2594 2264 2762 
Q 2066 2931 1784 2931 
Q 1359 2931 1093 2626 
Q 828 2322 828 1663 
Q 828 994 1084 691 
Q 1341 388 1753 388 
Q 2084 388 2306 591 
Q 2528 794 2588 1216 
z
" transform="scale(0.015625)"/>
      </defs>
      <use xlink:href="#ArialMT-45"/>
      <use xlink:href="#ArialMT-78" x="66.699219"/>
      <use xlink:href="#ArialMT-61" x="116.699219"/>
      <use xlink:href="#ArialMT-63" x="172.314453"/>
      <use xlink:href="#ArialMT-74" x="222.314453"/>
     </g>
    </g>
   </g>
  </g>
 </g>
 <defs>
  <clipPath id="pdf71ecc9b6">
   <rect x="58.4975" y="10.8" width="361.558019" height="226.6"/>
  </clipPath>
 </defs>
</svg>
