<?xml version="1.0" encoding="utf-8" standalone="no"?>
<!DOCTYPE svg PUBLIC "-//W3C//DTD SVG 1.1//EN"
  "http://www.w3.org/Graphics/SVG/1.1/DTD/svg11.dtd">
<svg xmlns:xlink="http://www.w3.org/1999/xlink" width="432pt" height="216pt" viewBox="0 0 432 216" xmlns="http://www.w3.org/2000/svg" version="1.1">
 <metadata>
  <rdf:RDF xmlns:dc="http://purl.org/dc/elements/1.1/" xmlns:cc="http://creativecommons.org/ns#" xmlns:rdf="http://www.w3.org/1999/02/22-rdf-syntax-ns#">
   <cc:Work>
    <dc:type rdf:resource="http://purl.org/dc/dcmitype/StillImage"/>
    <dc:date>2023-06-03T10:43:23.714034</dc:date>
    <dc:format>image/svg+xml</dc:format>
    <dc:creator>
     <cc:Agent>
      <dc:title>Matplotlib v3.5.2, https://matplotlib.org/</dc:title>
     </cc:Agent>
    </dc:creator>
   </cc:Work>
  </rdf:RDF>
 </metadata>
 <defs>
  <style type="text/css">*{stroke-linejoin: round; stroke-linecap: butt}</style>
 </defs>
 <g id="figure_1">
  <g id="patch_1">
   <path d="M 0 216 
L 432 216 
L 432 0 
L 0 0 
z
" style="fill: #ffffff"/>
  </g>
  <g id="axes_1">
   <g id="patch_2">
    <path d="M 54 192.24 
L 388.8 192.24 
L 388.8 25.92 
L 54 25.92 
z
" style="fill: #ffffff"/>
   </g>
   <g id="matplotlib.axis_1">
    <g id="xtick_1">
     <g id="line2d_1">
      <path d="M 137.7 192.24 
L 137.7 25.92 
" clip-path="url(#pcc411b7e82)" style="fill: none; stroke: #b0b0b0; stroke-width: 0.8; stroke-linecap: square"/>
     </g>
     <g id="line2d_2">
      <defs>
       <path id="m24f37462b6" d="M 0 0 
L 0 3.5 
" style="stroke: #000000; stroke-width: 0.8"/>
      </defs>
      <g>
       <use xlink:href="#m24f37462b6" x="137.7" y="192.24" style="stroke: #000000; stroke-width: 0.8"/>
      </g>
     </g>
     <g id="text_1">
      <!-- PADM -->
      <g transform="translate(114.079531 210.309588)scale(0.16 -0.16)">
       <defs>
        <path id="CMR17-50" d="M 1267 2048 
L 2291 2048 
C 3117 2048 3718 2583 3718 3187 
C 3718 3791 3130 4352 2291 4352 
L 333 4352 
L 333 4185 
C 774 4185 845 4185 845 3899 
L 845 453 
C 845 166 774 166 333 166 
L 333 0 
C 518 12 858 12 1056 12 
C 1254 12 1594 12 1779 0 
L 1779 166 
C 1338 166 1267 166 1267 453 
L 1267 2048 
z
M 1254 2182 
L 1254 3937 
C 1254 4153 1267 4185 1523 4185 
L 2170 4185 
C 2995 4185 3232 3715 3232 3187 
C 3232 2608 2950 2182 2170 2182 
L 1254 2182 
z
" transform="scale(0.015625)"/>
        <path id="CMR17-41" d="M 2323 4441 
C 2291 4524 2278 4544 2214 4544 
C 2150 4544 2138 4524 2106 4441 
L 749 580 
C 627 236 371 166 147 166 
L 147 0 
C 262 12 518 12 640 12 
C 800 12 1056 12 1210 0 
L 1210 166 
C 909 179 864 382 864 459 
C 864 516 877 548 890 586 
L 1229 1536 
L 2906 1536 
L 3290 453 
C 3322 376 3322 363 3322 338 
C 3322 166 3046 166 2925 166 
L 2925 0 
C 3110 12 3443 12 3642 12 
C 3808 12 4128 12 4282 0 
L 4282 166 
C 3942 166 3827 166 3744 402 
L 2323 4441 
z
M 2067 3924 
L 2848 1702 
L 1286 1702 
L 2067 3924 
z
" transform="scale(0.015625)"/>
        <path id="CMR17-44" d="M 333 4352 
L 333 4185 
C 774 4185 845 4185 845 3898 
L 845 453 
C 845 166 774 166 333 166 
L 333 0 
L 2368 0 
C 3398 0 4224 943 4224 2140 
C 4224 3344 3411 4352 2368 4352 
L 333 4352 
z
M 1523 166 
C 1267 166 1254 198 1254 414 
L 1254 3936 
C 1254 4153 1267 4185 1523 4185 
L 2240 4185 
C 2771 4185 3750 3873 3750 2140 
C 3750 1242 3488 879 3366 707 
C 3213 510 2848 166 2240 166 
L 1523 166 
z
" transform="scale(0.015625)"/>
        <path id="CMR17-4d" d="M 1338 4249 
C 1299 4345 1293 4352 1158 4352 
L 339 4352 
L 339 4185 
C 781 4185 851 4185 851 3898 
L 851 624 
C 851 465 851 166 339 166 
L 339 0 
C 486 12 755 12 915 12 
C 1075 12 1344 12 1491 0 
L 1491 166 
C 979 166 979 465 979 624 
L 979 4159 
L 986 4159 
L 2490 102 
C 2515 38 2528 0 2579 0 
C 2630 0 2643 38 2669 102 
L 4186 4191 
L 4192 4191 
L 4192 453 
C 4192 166 4122 166 3680 166 
L 3680 0 
C 3853 12 4198 12 4384 12 
C 4570 12 4922 12 5094 0 
L 5094 166 
C 4653 166 4582 166 4582 453 
L 4582 3898 
C 4582 4185 4653 4185 5094 4185 
L 5094 4352 
L 4282 4352 
C 4147 4352 4141 4345 4102 4249 
L 2720 516 
L 1338 4249 
z
" transform="scale(0.015625)"/>
       </defs>
       <use xlink:href="#CMR17-50" transform="scale(0.996264)"/>
       <use xlink:href="#CMR17-41" transform="translate(54.779045 0)scale(0.996264)"/>
       <use xlink:href="#CMR17-44" transform="translate(123.851475 0)scale(0.996264)"/>
       <use xlink:href="#CMR17-4d" transform="translate(194.245031 0)scale(0.996264)"/>
      </g>
     </g>
    </g>
    <g id="xtick_2">
     <g id="line2d_3">
      <path d="M 305.1 192.24 
L 305.1 25.92 
" clip-path="url(#pcc411b7e82)" style="fill: none; stroke: #b0b0b0; stroke-width: 0.8; stroke-linecap: square"/>
     </g>
     <g id="line2d_4">
      <g>
       <use xlink:href="#m24f37462b6" x="305.1" y="192.24" style="stroke: #000000; stroke-width: 0.8"/>
      </g>
     </g>
     <g id="text_2">
      <!-- ADM -->
      <g transform="translate(286.13887 210.309588)scale(0.16 -0.16)">
       <use xlink:href="#CMR17-41" transform="scale(0.996264)"/>
       <use xlink:href="#CMR17-44" transform="translate(69.07243 0)scale(0.996264)"/>
       <use xlink:href="#CMR17-4d" transform="translate(139.465986 0)scale(0.996264)"/>
      </g>
     </g>
    </g>
   </g>
   <g id="matplotlib.axis_2">
    <g id="ytick_1">
     <g id="line2d_5">
      <path d="M 54 157.236164 
L 388.8 157.236164 
" clip-path="url(#pcc411b7e82)" style="fill: none; stroke: #b0b0b0; stroke-width: 0.8; stroke-linecap: square"/>
     </g>
     <g id="line2d_6">
      <defs>
       <path id="m1752d16071" d="M 0 0 
L -3.5 0 
" style="stroke: #000000; stroke-width: 0.8"/>
      </defs>
      <g>
       <use xlink:href="#m1752d16071" x="54" y="157.236164" style="stroke: #000000; stroke-width: 0.8"/>
      </g>
     </g>
     <g id="text_3">
      <!-- $\mathdefault{0.25}$ -->
      <g transform="translate(19.252491 162.770959)scale(0.16 -0.16)">
       <defs>
        <path id="CMR17-30" d="M 2688 2038 
C 2688 2430 2682 3099 2413 3613 
C 2176 4063 1798 4224 1466 4224 
C 1158 4224 768 4082 525 3620 
C 269 3137 243 2539 243 2038 
C 243 1671 250 1112 448 623 
C 723 -39 1216 -128 1466 -128 
C 1760 -128 2208 -7 2470 604 
C 2662 1048 2688 1568 2688 2038 
z
M 1466 -26 
C 1056 -26 813 328 723 816 
C 653 1196 653 1749 653 2109 
C 653 2604 653 3015 736 3407 
C 858 3954 1216 4121 1466 4121 
C 1728 4121 2067 3947 2189 3420 
C 2272 3054 2278 2623 2278 2109 
C 2278 1691 2278 1176 2202 797 
C 2067 96 1690 -26 1466 -26 
z
" transform="scale(0.015625)"/>
        <path id="CMMI12-3a" d="M 1178 307 
C 1178 492 1024 620 870 620 
C 685 620 557 467 557 313 
C 557 128 710 0 864 0 
C 1050 0 1178 153 1178 307 
z
" transform="scale(0.015625)"/>
        <path id="CMR17-32" d="M 2669 990 
L 2554 990 
C 2490 537 2438 460 2413 422 
C 2381 371 1920 371 1830 371 
L 602 371 
C 832 620 1280 1073 1824 1596 
C 2214 1966 2669 2400 2669 3033 
C 2669 3788 2067 4224 1395 4224 
C 691 4224 262 3603 262 3027 
C 262 2777 448 2745 525 2745 
C 589 2745 781 2783 781 3007 
C 781 3206 614 3264 525 3264 
C 486 3264 448 3257 422 3244 
C 544 3788 915 4057 1306 4057 
C 1862 4057 2227 3616 2227 3033 
C 2227 2477 1901 1998 1536 1583 
L 262 147 
L 262 0 
L 2515 0 
L 2669 990 
z
" transform="scale(0.015625)"/>
        <path id="CMR17-35" d="M 730 3750 
C 794 3724 1056 3641 1325 3641 
C 1920 3641 2246 3961 2432 4140 
C 2432 4191 2432 4224 2394 4224 
C 2387 4224 2374 4224 2323 4198 
C 2099 4102 1837 4032 1517 4032 
C 1325 4032 1037 4055 723 4191 
C 653 4224 640 4224 634 4224 
C 602 4224 595 4217 595 4090 
L 595 2231 
C 595 2113 595 2080 659 2080 
C 691 2080 704 2093 736 2139 
C 941 2435 1222 2560 1542 2560 
C 1766 2560 2246 2415 2246 1293 
C 2246 1087 2246 716 2054 422 
C 1894 159 1645 25 1370 25 
C 947 25 518 319 403 812 
C 429 806 480 793 506 793 
C 589 793 749 838 749 1036 
C 749 1209 627 1280 506 1280 
C 358 1280 262 1190 262 1011 
C 262 454 704 -128 1382 -128 
C 2042 -128 2669 441 2669 1267 
C 2669 2054 2170 2662 1549 2662 
C 1222 2662 947 2540 730 2304 
L 730 3750 
z
" transform="scale(0.015625)"/>
       </defs>
       <use xlink:href="#CMR17-30" transform="scale(0.996264)"/>
       <use xlink:href="#CMMI12-3a" transform="translate(45.690477 0)scale(0.996264)"/>
       <use xlink:href="#CMR17-32" transform="translate(72.787654 0)scale(0.996264)"/>
       <use xlink:href="#CMR17-35" transform="translate(118.478131 0)scale(0.996264)"/>
      </g>
     </g>
    </g>
    <g id="ytick_2">
     <g id="line2d_7">
      <path d="M 54 115.98411 
L 388.8 115.98411 
" clip-path="url(#pcc411b7e82)" style="fill: none; stroke: #b0b0b0; stroke-width: 0.8; stroke-linecap: square"/>
     </g>
     <g id="line2d_8">
      <g>
       <use xlink:href="#m1752d16071" x="54" y="115.98411" style="stroke: #000000; stroke-width: 0.8"/>
      </g>
     </g>
     <g id="text_4">
      <!-- $\mathdefault{0.50}$ -->
      <g transform="translate(19.252491 121.518904)scale(0.16 -0.16)">
       <use xlink:href="#CMR17-30" transform="scale(0.996264)"/>
       <use xlink:href="#CMMI12-3a" transform="translate(45.690477 0)scale(0.996264)"/>
       <use xlink:href="#CMR17-35" transform="translate(72.787654 0)scale(0.996264)"/>
       <use xlink:href="#CMR17-30" transform="translate(118.478131 0)scale(0.996264)"/>
      </g>
     </g>
    </g>
    <g id="ytick_3">
     <g id="line2d_9">
      <path d="M 54 74.732055 
L 388.8 74.732055 
" clip-path="url(#pcc411b7e82)" style="fill: none; stroke: #b0b0b0; stroke-width: 0.8; stroke-linecap: square"/>
     </g>
     <g id="line2d_10">
      <g>
       <use xlink:href="#m1752d16071" x="54" y="74.732055" style="stroke: #000000; stroke-width: 0.8"/>
      </g>
     </g>
     <g id="text_5">
      <!-- $\mathdefault{0.75}$ -->
      <g transform="translate(19.252491 80.266849)scale(0.16 -0.16)">
       <defs>
        <path id="CMR17-37" d="M 2886 3955 
L 2886 4096 
L 1382 4096 
C 634 4096 621 4166 595 4288 
L 480 4288 
L 294 3104 
L 410 3104 
C 429 3226 474 3552 550 3673 
C 589 3724 1062 3724 1171 3724 
L 2579 3724 
L 1869 2670 
C 1395 1961 1069 1003 1069 166 
C 1069 89 1069 -128 1299 -128 
C 1530 -128 1530 89 1530 172 
L 1530 466 
C 1530 1514 1709 2204 2003 2644 
L 2886 3955 
z
" transform="scale(0.015625)"/>
       </defs>
       <use xlink:href="#CMR17-30" transform="scale(0.996264)"/>
       <use xlink:href="#CMMI12-3a" transform="translate(45.690477 0)scale(0.996264)"/>
       <use xlink:href="#CMR17-37" transform="translate(72.787654 0)scale(0.996264)"/>
       <use xlink:href="#CMR17-35" transform="translate(118.478131 0)scale(0.996264)"/>
      </g>
     </g>
    </g>
    <g id="ytick_4">
     <g id="line2d_11">
      <path d="M 54 33.48 
L 388.8 33.48 
" clip-path="url(#pcc411b7e82)" style="fill: none; stroke: #b0b0b0; stroke-width: 0.8; stroke-linecap: square"/>
     </g>
     <g id="line2d_12">
      <g>
       <use xlink:href="#m1752d16071" x="54" y="33.48" style="stroke: #000000; stroke-width: 0.8"/>
      </g>
     </g>
     <g id="text_6">
      <!-- $\mathdefault{1.00}$ -->
      <g transform="translate(19.252491 39.014794)scale(0.16 -0.16)">
       <defs>
        <path id="CMR17-31" d="M 1702 4083 
C 1702 4217 1696 4224 1606 4224 
C 1357 3927 979 3833 621 3820 
C 602 3820 570 3820 563 3808 
C 557 3795 557 3782 557 3648 
C 755 3648 1088 3686 1344 3839 
L 1344 467 
C 1344 243 1331 166 781 166 
L 589 166 
L 589 0 
C 896 6 1216 12 1523 12 
C 1830 12 2150 6 2458 0 
L 2458 166 
L 2266 166 
C 1715 166 1702 236 1702 467 
L 1702 4083 
z
" transform="scale(0.015625)"/>
       </defs>
       <use xlink:href="#CMR17-31" transform="scale(0.996264)"/>
       <use xlink:href="#CMMI12-3a" transform="translate(45.690477 0)scale(0.996264)"/>
       <use xlink:href="#CMR17-30" transform="translate(72.787654 0)scale(0.996264)"/>
       <use xlink:href="#CMR17-30" transform="translate(118.478131 0)scale(0.996264)"/>
      </g>
     </g>
    </g>
    <g id="text_7">
     <!-- Selection Accuracy -->
     <g transform="translate(12.153014 173.676911)rotate(-90)scale(0.16 -0.16)">
      <defs>
       <path id="CMR17-53" d="M 2803 4351 
C 2803 4467 2797 4473 2758 4473 
C 2720 4473 2707 4447 2682 4390 
L 2490 3965 
C 2246 4320 1875 4480 1472 4480 
C 819 4480 294 3958 294 3301 
C 294 3101 339 2817 557 2546 
C 794 2250 1018 2198 1530 2063 
C 1722 2011 2042 1927 2106 1901 
C 2470 1747 2662 1360 2662 999 
C 2662 534 2336 38 1779 38 
C 1094 38 454 425 410 1328 
C 403 1431 397 1437 352 1437 
C 301 1437 294 1431 294 1302 
L 294 0 
C 294 -116 301 -122 339 -122 
C 384 -122 397 -90 486 109 
C 493 128 493 141 614 386 
C 934 -39 1472 -128 1779 -128 
C 2477 -128 2970 457 2970 1141 
C 2970 1476 2848 1734 2778 1850 
C 2509 2263 2221 2340 1914 2417 
C 1869 2437 1856 2437 1498 2527 
C 1152 2617 1005 2662 845 2836 
C 666 3036 602 3243 602 3449 
C 602 3868 934 4326 1478 4326 
C 2157 4326 2579 3842 2675 3036 
C 2694 2920 2701 2914 2746 2914 
C 2803 2914 2803 2933 2803 3043 
L 2803 4351 
z
" transform="scale(0.015625)"/>
       <path id="CMR17-65" d="M 2438 1503 
C 2464 1529 2464 1542 2464 1606 
C 2464 2251 2118 2816 1389 2816 
C 710 2816 173 2175 173 1394 
C 173 554 781 -64 1459 -64 
C 2176 -64 2458 619 2458 755 
C 2458 800 2419 800 2406 800 
C 2362 800 2355 787 2330 709 
C 2189 270 1837 51 1504 51 
C 1229 51 954 206 781 490 
C 582 819 582 1200 582 1503 
L 2438 1503 
z
M 589 1600 
C 634 2511 1126 2713 1382 2713 
C 1818 2713 2112 2308 2118 1600 
L 589 1600 
z
" transform="scale(0.015625)"/>
       <path id="CMR17-6c" d="M 979 4416 
L 218 4345 
L 218 4179 
C 595 4179 653 4141 653 3835 
L 653 439 
C 653 198 627 166 218 166 
L 218 0 
C 371 12 653 12 813 12 
C 979 12 1261 12 1414 0 
L 1414 166 
C 1005 166 979 191 979 439 
L 979 4416 
z
" transform="scale(0.015625)"/>
       <path id="CMR17-63" d="M 2234 2240 
C 2112 2240 1933 2240 1933 2015 
C 1933 1836 2080 1785 2163 1785 
C 2208 1785 2394 1804 2394 2028 
C 2394 2476 1958 2816 1466 2816 
C 787 2816 211 2201 211 1379 
C 211 521 813 -64 1466 -64 
C 2259 -64 2458 676 2458 747 
C 2458 773 2451 792 2406 792 
C 2362 792 2355 786 2330 702 
C 2163 180 1798 51 1523 51 
C 1114 51 621 431 621 1385 
C 621 2358 1094 2700 1472 2700 
C 1722 2700 2093 2582 2234 2240 
z
" transform="scale(0.015625)"/>
       <path id="CMR17-74" d="M 966 2585 
L 1862 2585 
L 1862 2752 
L 966 2752 
L 966 3968 
L 851 3968 
C 838 3292 614 2700 70 2687 
L 70 2585 
L 627 2585 
L 627 778 
C 627 655 627 -64 1370 -64 
C 1747 -64 1965 308 1965 784 
L 1965 1151 
L 1850 1151 
L 1850 790 
C 1850 347 1677 51 1408 51 
C 1222 51 966 179 966 765 
L 966 2585 
z
" transform="scale(0.015625)"/>
       <path id="CMR17-69" d="M 992 3961 
C 992 4102 877 4224 730 4224 
C 589 4224 467 4108 467 3961 
C 467 3820 582 3699 730 3699 
C 870 3699 992 3814 992 3961 
z
M 243 2745 
L 243 2579 
C 602 2579 653 2540 653 2231 
L 653 443 
C 653 198 627 166 218 166 
L 218 0 
C 371 12 646 12 806 12 
C 960 12 1222 12 1370 0 
L 1370 166 
C 992 166 979 205 979 436 
L 979 2816 
L 243 2745 
z
" transform="scale(0.015625)"/>
       <path id="CMR17-6f" d="M 2758 1356 
C 2758 2176 2163 2816 1466 2816 
C 768 2816 173 2176 173 1356 
C 173 550 768 -64 1466 -64 
C 2163 -64 2758 550 2758 1356 
z
M 1466 51 
C 1165 51 909 230 762 480 
C 602 768 582 1126 582 1408 
C 582 1676 595 2009 762 2297 
C 890 2508 1139 2713 1466 2713 
C 1754 2713 1997 2553 2150 2329 
C 2349 2028 2349 1606 2349 1408 
C 2349 1158 2336 774 2163 467 
C 1984 172 1709 51 1466 51 
z
" transform="scale(0.015625)"/>
       <path id="CMR17-6e" d="M 2656 1954 
C 2656 2282 2592 2816 1837 2816 
C 1331 2816 1069 2424 973 2166 
L 966 2166 
L 966 2816 
L 211 2745 
L 211 2578 
C 589 2578 646 2540 646 2231 
L 646 443 
C 646 198 621 166 211 166 
L 211 0 
C 365 12 646 12 813 12 
C 979 12 1267 12 1421 0 
L 1421 166 
C 1011 166 986 192 986 443 
L 986 1678 
C 986 2269 1344 2713 1792 2713 
C 2266 2713 2317 2289 2317 1980 
L 2317 443 
C 2317 198 2291 166 1882 166 
L 1882 0 
C 2035 12 2317 12 2483 12 
C 2650 12 2938 12 3091 0 
L 3091 166 
C 2682 166 2656 192 2656 443 
L 2656 1954 
z
" transform="scale(0.015625)"/>
       <path id="CMR17-75" d="M 1882 2745 
L 1882 2579 
C 2259 2579 2317 2540 2317 2229 
L 2317 1053 
C 2317 510 2029 38 1555 38 
C 1030 38 986 355 986 691 
L 986 2816 
L 211 2745 
L 211 2579 
C 467 2579 640 2579 646 2320 
L 646 1079 
C 646 646 646 368 813 187 
C 896 103 1056 -64 1517 -64 
C 2061 -64 2272 400 2323 536 
L 2330 536 
L 2330 -64 
L 3091 -13 
L 3091 154 
C 2714 154 2656 193 2656 503 
L 2656 2816 
L 1882 2745 
z
" transform="scale(0.015625)"/>
       <path id="CMR17-72" d="M 960 1517 
C 960 2134 1222 2713 1702 2713 
C 1747 2713 1792 2707 1837 2687 
C 1837 2687 1696 2642 1696 2475 
C 1696 2321 1818 2257 1914 2257 
C 1990 2257 2131 2302 2131 2482 
C 2131 2687 1926 2816 1709 2816 
C 1222 2816 1011 2340 947 2115 
L 941 2115 
L 941 2816 
L 198 2745 
L 198 2578 
C 576 2578 634 2540 634 2231 
L 634 443 
C 634 198 608 166 198 166 
L 198 0 
C 352 12 646 12 813 12 
C 998 12 1325 12 1498 0 
L 1498 166 
C 1037 166 960 166 960 455 
L 960 1517 
z
" transform="scale(0.015625)"/>
       <path id="CMR17-61" d="M 2304 1656 
C 2304 2048 2304 2275 2035 2534 
C 1798 2751 1523 2816 1306 2816 
C 800 2816 435 2408 435 1977 
C 435 1740 627 1728 666 1728 
C 749 1728 896 1779 896 1958 
C 896 2118 774 2188 666 2188 
C 640 2188 608 2182 589 2176 
C 723 2594 1069 2713 1293 2713 
C 1613 2713 1965 2421 1965 1875 
L 1965 1632 
C 1587 1619 1133 1568 774 1373 
C 371 1147 256 822 256 576 
C 256 77 832 -64 1171 -64 
C 1523 -64 1850 135 1990 505 
C 2003 219 2182 -39 2464 -39 
C 2598 -39 2938 51 2938 563 
L 2938 926 
L 2822 926 
L 2822 557 
C 2822 161 2650 109 2566 109 
C 2304 109 2304 446 2304 732 
L 2304 1656 
z
M 1965 887 
C 1965 323 1568 38 1216 38 
C 896 38 646 278 646 576 
C 646 771 730 1114 1101 1322 
C 1408 1497 1760 1523 1965 1536 
L 1965 887 
z
" transform="scale(0.015625)"/>
       <path id="CMR17-79" d="M 2496 2183 
C 2656 2579 2944 2585 3034 2585 
L 3034 2752 
C 2912 2745 2752 2739 2630 2739 
C 2496 2739 2285 2739 2157 2752 
L 2157 2585 
C 2400 2566 2406 2384 2406 2332 
C 2406 2268 2394 2235 2362 2158 
L 1664 409 
L 902 2300 
C 870 2378 870 2423 870 2430 
C 870 2572 1018 2585 1171 2585 
L 1171 2752 
C 1018 2739 742 2739 582 2739 
C 410 2739 205 2739 64 2752 
L 64 2585 
C 410 2585 448 2553 531 2345 
L 1485 -31 
C 1197 -795 1030 -1242 627 -1242 
C 557 -1242 397 -1223 282 -1106 
C 429 -1093 493 -1002 493 -892 
C 493 -782 416 -685 288 -685 
C 147 -685 77 -782 77 -899 
C 77 -1158 339 -1344 627 -1344 
C 998 -1344 1229 -983 1357 -659 
L 2496 2183 
z
" transform="scale(0.015625)"/>
      </defs>
      <use xlink:href="#CMR17-53" transform="scale(0.996264)"/>
      <use xlink:href="#CMR17-65" transform="translate(50.89537 0)scale(0.996264)"/>
      <use xlink:href="#CMR17-6c" transform="translate(91.38103 0)scale(0.996264)"/>
      <use xlink:href="#CMR17-65" transform="translate(116.252089 0)scale(0.996264)"/>
      <use xlink:href="#CMR17-63" transform="translate(156.737749 0)scale(0.996264)"/>
      <use xlink:href="#CMR17-74" transform="translate(197.22341 0)scale(0.996264)"/>
      <use xlink:href="#CMR17-69" transform="translate(232.504177 0)scale(0.996264)"/>
      <use xlink:href="#CMR17-6f" transform="translate(257.375236 0)scale(0.996264)"/>
      <use xlink:href="#CMR17-6e" transform="translate(303.065713 0)scale(0.996264)"/>
      <use xlink:href="#CMR17-41" transform="translate(384.037049 0)scale(0.996264)"/>
      <use xlink:href="#CMR17-63" transform="translate(453.109479 0)scale(0.996264)"/>
      <use xlink:href="#CMR17-63" transform="translate(493.595139 0)scale(0.996264)"/>
      <use xlink:href="#CMR17-75" transform="translate(534.0808 0)scale(0.996264)"/>
      <use xlink:href="#CMR17-72" transform="translate(584.97617 0)scale(0.996264)"/>
      <use xlink:href="#CMR17-61" transform="translate(620.256937 0)scale(0.996264)"/>
      <use xlink:href="#CMR17-63" transform="translate(665.947415 0)scale(0.996264)"/>
      <use xlink:href="#CMR17-79" transform="translate(706.433075 0)scale(0.996264)"/>
     </g>
    </g>
   </g>
   <g id="line2d_13">
    <path d="M 125.145 61.70509 
L 150.255 61.70509 
L 150.255 57.362769 
L 125.145 57.362769 
L 125.145 61.70509 
" clip-path="url(#pcc411b7e82)" style="fill: none; stroke: #1f77b4; stroke-linecap: square"/>
   </g>
   <g id="line2d_14">
    <path d="M 137.7 61.70509 
L 137.7 67.75707 
" clip-path="url(#pcc411b7e82)" style="fill: none; stroke: #1f77b4; stroke-linecap: square"/>
   </g>
   <g id="line2d_15">
    <path d="M 137.7 57.362769 
L 137.7 53.744167 
" clip-path="url(#pcc411b7e82)" style="fill: none; stroke: #1f77b4; stroke-linecap: square"/>
   </g>
   <g id="line2d_16">
    <path d="M 131.4225 67.75707 
L 143.9775 67.75707 
" clip-path="url(#pcc411b7e82)" style="fill: none; stroke: #000000; stroke-linecap: square"/>
   </g>
   <g id="line2d_17">
    <path d="M 131.4225 53.744167 
L 143.9775 53.744167 
" clip-path="url(#pcc411b7e82)" style="fill: none; stroke: #000000; stroke-linecap: square"/>
   </g>
   <g id="line2d_18">
    <defs>
     <path id="m7ad1f7d187" d="M 0 3 
C 0.795609 3 1.55874 2.683901 2.12132 2.12132 
C 2.683901 1.55874 3 0.795609 3 0 
C 3 -0.795609 2.683901 -1.55874 2.12132 -2.12132 
C 1.55874 -2.683901 0.795609 -3 0 -3 
C -0.795609 -3 -1.55874 -2.683901 -2.12132 -2.12132 
C -2.683901 -1.55874 -3 -0.795609 -3 0 
C -3 0.795609 -2.683901 1.55874 -2.12132 2.12132 
C -1.55874 2.683901 -0.795609 3 0 3 
z
" style="stroke: #000000"/>
    </defs>
    <g clip-path="url(#pcc411b7e82)">
     <use xlink:href="#m7ad1f7d187" x="137.7" y="85.339726" style="fill-opacity: 0; stroke: #000000"/>
     <use xlink:href="#m7ad1f7d187" x="137.7" y="86.301328" style="fill-opacity: 0; stroke: #000000"/>
     <use xlink:href="#m7ad1f7d187" x="137.7" y="82.065753" style="fill-opacity: 0; stroke: #000000"/>
     <use xlink:href="#m7ad1f7d187" x="137.7" y="92.959707" style="fill-opacity: 0; stroke: #000000"/>
     <use xlink:href="#m7ad1f7d187" x="137.7" y="88.48274" style="fill-opacity: 0; stroke: #000000"/>
     <use xlink:href="#m7ad1f7d187" x="137.7" y="85.312553" style="fill-opacity: 0; stroke: #000000"/>
     <use xlink:href="#m7ad1f7d187" x="137.7" y="87.225534" style="fill-opacity: 0; stroke: #000000"/>
     <use xlink:href="#m7ad1f7d187" x="137.7" y="108.400166" style="fill-opacity: 0; stroke: #000000"/>
     <use xlink:href="#m7ad1f7d187" x="137.7" y="89.116777" style="fill-opacity: 0; stroke: #000000"/>
     <use xlink:href="#m7ad1f7d187" x="137.7" y="117.687734" style="fill-opacity: 0; stroke: #000000"/>
     <use xlink:href="#m7ad1f7d187" x="137.7" y="75.754833" style="fill-opacity: 0; stroke: #000000"/>
     <use xlink:href="#m7ad1f7d187" x="137.7" y="97.574102" style="fill-opacity: 0; stroke: #000000"/>
     <use xlink:href="#m7ad1f7d187" x="137.7" y="85.045068" style="fill-opacity: 0; stroke: #000000"/>
     <use xlink:href="#m7ad1f7d187" x="137.7" y="92.959707" style="fill-opacity: 0; stroke: #000000"/>
     <use xlink:href="#m7ad1f7d187" x="137.7" y="81.956991" style="fill-opacity: 0; stroke: #000000"/>
     <use xlink:href="#m7ad1f7d187" x="137.7" y="71.837174" style="fill-opacity: 0; stroke: #000000"/>
     <use xlink:href="#m7ad1f7d187" x="137.7" y="78.983659" style="fill-opacity: 0; stroke: #000000"/>
     <use xlink:href="#m7ad1f7d187" x="137.7" y="73.54727" style="fill-opacity: 0; stroke: #000000"/>
     <use xlink:href="#m7ad1f7d187" x="137.7" y="99.108269" style="fill-opacity: 0; stroke: #000000"/>
     <use xlink:href="#m7ad1f7d187" x="137.7" y="48.678125" style="fill-opacity: 0; stroke: #000000"/>
     <use xlink:href="#m7ad1f7d187" x="137.7" y="37.822322" style="fill-opacity: 0; stroke: #000000"/>
     <use xlink:href="#m7ad1f7d187" x="137.7" y="34.20372" style="fill-opacity: 0; stroke: #000000"/>
     <use xlink:href="#m7ad1f7d187" x="137.7" y="42.164643" style="fill-opacity: 0; stroke: #000000"/>
     <use xlink:href="#m7ad1f7d187" x="137.7" y="39.269762" style="fill-opacity: 0; stroke: #000000"/>
     <use xlink:href="#m7ad1f7d187" x="137.7" y="35.651161" style="fill-opacity: 0; stroke: #000000"/>
     <use xlink:href="#m7ad1f7d187" x="137.7" y="34.20372" style="fill-opacity: 0; stroke: #000000"/>
     <use xlink:href="#m7ad1f7d187" x="137.7" y="41.440923" style="fill-opacity: 0; stroke: #000000"/>
     <use xlink:href="#m7ad1f7d187" x="137.7" y="42.888363" style="fill-opacity: 0; stroke: #000000"/>
     <use xlink:href="#m7ad1f7d187" x="137.7" y="47.230685" style="fill-opacity: 0; stroke: #000000"/>
     <use xlink:href="#m7ad1f7d187" x="137.7" y="35.651161" style="fill-opacity: 0; stroke: #000000"/>
     <use xlink:href="#m7ad1f7d187" x="137.7" y="37.098601" style="fill-opacity: 0; stroke: #000000"/>
     <use xlink:href="#m7ad1f7d187" x="137.7" y="50.849286" style="fill-opacity: 0; stroke: #000000"/>
     <use xlink:href="#m7ad1f7d187" x="137.7" y="33.48" style="fill-opacity: 0; stroke: #000000"/>
     <use xlink:href="#m7ad1f7d187" x="137.7" y="34.20372" style="fill-opacity: 0; stroke: #000000"/>
     <use xlink:href="#m7ad1f7d187" x="137.7" y="36.374881" style="fill-opacity: 0; stroke: #000000"/>
     <use xlink:href="#m7ad1f7d187" x="137.7" y="49.401846" style="fill-opacity: 0; stroke: #000000"/>
     <use xlink:href="#m7ad1f7d187" x="137.7" y="41.440923" style="fill-opacity: 0; stroke: #000000"/>
     <use xlink:href="#m7ad1f7d187" x="137.7" y="33.48" style="fill-opacity: 0; stroke: #000000"/>
     <use xlink:href="#m7ad1f7d187" x="137.7" y="46.506965" style="fill-opacity: 0; stroke: #000000"/>
     <use xlink:href="#m7ad1f7d187" x="137.7" y="37.098601" style="fill-opacity: 0; stroke: #000000"/>
     <use xlink:href="#m7ad1f7d187" x="137.7" y="34.927444" style="fill-opacity: 0; stroke: #000000"/>
     <use xlink:href="#m7ad1f7d187" x="137.7" y="39.993482" style="fill-opacity: 0; stroke: #000000"/>
     <use xlink:href="#m7ad1f7d187" x="137.7" y="36.374881" style="fill-opacity: 0; stroke: #000000"/>
     <use xlink:href="#m7ad1f7d187" x="137.7" y="47.954405" style="fill-opacity: 0; stroke: #000000"/>
     <use xlink:href="#m7ad1f7d187" x="137.7" y="36.374881" style="fill-opacity: 0; stroke: #000000"/>
     <use xlink:href="#m7ad1f7d187" x="137.7" y="34.927441" style="fill-opacity: 0; stroke: #000000"/>
     <use xlink:href="#m7ad1f7d187" x="137.7" y="42.888363" style="fill-opacity: 0; stroke: #000000"/>
     <use xlink:href="#m7ad1f7d187" x="137.7" y="37.822322" style="fill-opacity: 0; stroke: #000000"/>
     <use xlink:href="#m7ad1f7d187" x="137.7" y="47.230685" style="fill-opacity: 0; stroke: #000000"/>
     <use xlink:href="#m7ad1f7d187" x="137.7" y="49.401846" style="fill-opacity: 0; stroke: #000000"/>
     <use xlink:href="#m7ad1f7d187" x="137.7" y="43.612084" style="fill-opacity: 0; stroke: #000000"/>
     <use xlink:href="#m7ad1f7d187" x="137.7" y="34.20372" style="fill-opacity: 0; stroke: #000000"/>
     <use xlink:href="#m7ad1f7d187" x="137.7" y="47.954405" style="fill-opacity: 0; stroke: #000000"/>
     <use xlink:href="#m7ad1f7d187" x="137.7" y="40.717203" style="fill-opacity: 0; stroke: #000000"/>
     <use xlink:href="#m7ad1f7d187" x="137.7" y="36.374881" style="fill-opacity: 0; stroke: #000000"/>
    </g>
   </g>
   <g id="line2d_19">
    <path d="M 292.545 110.965166 
L 317.655 110.965166 
L 317.655 55.915328 
L 292.545 55.915328 
L 292.545 110.965166 
" clip-path="url(#pcc411b7e82)" style="fill: none; stroke: #1f77b4; stroke-linecap: square"/>
   </g>
   <g id="line2d_20">
    <path d="M 305.1 110.965166 
L 305.1 184.68 
" clip-path="url(#pcc411b7e82)" style="fill: none; stroke: #1f77b4; stroke-linecap: square"/>
   </g>
   <g id="line2d_21">
    <path d="M 305.1 55.915328 
L 305.1 33.48 
" clip-path="url(#pcc411b7e82)" style="fill: none; stroke: #1f77b4; stroke-linecap: square"/>
   </g>
   <g id="line2d_22">
    <path d="M 298.8225 184.68 
L 311.3775 184.68 
" clip-path="url(#pcc411b7e82)" style="fill: none; stroke: #000000; stroke-linecap: square"/>
   </g>
   <g id="line2d_23">
    <path d="M 298.8225 33.48 
L 311.3775 33.48 
" clip-path="url(#pcc411b7e82)" style="fill: none; stroke: #000000; stroke-linecap: square"/>
   </g>
   <g id="line2d_24"/>
   <g id="line2d_25">
    <path d="M 125.145 59.533929 
L 150.255 59.533929 
" clip-path="url(#pcc411b7e82)" style="fill: none; stroke: #2ca02c; stroke-linecap: square"/>
   </g>
   <g id="line2d_26">
    <path d="M 292.545 66.771132 
L 317.655 66.771132 
" clip-path="url(#pcc411b7e82)" style="fill: none; stroke: #2ca02c; stroke-linecap: square"/>
   </g>
   <g id="patch_3">
    <path d="M 54 192.24 
L 54 25.92 
" style="fill: none; stroke: #000000; stroke-width: 0.8; stroke-linejoin: miter; stroke-linecap: square"/>
   </g>
   <g id="patch_4">
    <path d="M 388.8 192.24 
L 388.8 25.92 
" style="fill: none; stroke: #000000; stroke-width: 0.8; stroke-linejoin: miter; stroke-linecap: square"/>
   </g>
   <g id="patch_5">
    <path d="M 54 192.24 
L 388.8 192.24 
" style="fill: none; stroke: #000000; stroke-width: 0.8; stroke-linejoin: miter; stroke-linecap: square"/>
   </g>
   <g id="patch_6">
    <path d="M 54 25.92 
L 388.8 25.92 
" style="fill: none; stroke: #000000; stroke-width: 0.8; stroke-linejoin: miter; stroke-linecap: square"/>
   </g>
  </g>
 </g>
 <defs>
  <clipPath id="pcc411b7e82">
   <rect x="54" y="25.92" width="334.8" height="166.32"/>
  </clipPath>
 </defs>
</svg>
