<?xml version="1.0" encoding="utf-8" standalone="no"?>
<!DOCTYPE svg PUBLIC "-//W3C//DTD SVG 1.1//EN"
  "http://www.w3.org/Graphics/SVG/1.1/DTD/svg11.dtd">
<svg xmlns:xlink="http://www.w3.org/1999/xlink" width="432pt" height="288pt" viewBox="0 0 432 288" xmlns="http://www.w3.org/2000/svg" version="1.1">
 <metadata>
  <rdf:RDF xmlns:dc="http://purl.org/dc/elements/1.1/" xmlns:cc="http://creativecommons.org/ns#" xmlns:rdf="http://www.w3.org/1999/02/22-rdf-syntax-ns#">
   <cc:Work>
    <dc:type rdf:resource="http://purl.org/dc/dcmitype/StillImage"/>
    <dc:date>2022-12-05T13:56:54.665376</dc:date>
    <dc:format>image/svg+xml</dc:format>
    <dc:creator>
     <cc:Agent>
      <dc:title>Matplotlib v3.5.2, https://matplotlib.org/</dc:title>
     </cc:Agent>
    </dc:creator>
   </cc:Work>
  </rdf:RDF>
 </metadata>
 <defs>
  <style type="text/css">*{stroke-linejoin: round; stroke-linecap: butt}</style>
 </defs>
 <g id="figure_1">
  <g id="patch_1">
   <path d="M 0 288 
L 432 288 
L 432 0 
L 0 0 
z
" style="fill: #ffffff"/>
  </g>
  <g id="axes_1">
   <g id="patch_2">
    <path d="M 58.4975 237.4 
L 421.2 237.4 
L 421.2 10.8 
L 58.4975 10.8 
z
" style="fill: #eaeaf2"/>
   </g>
   <g id="matplotlib.axis_1">
    <g id="xtick_1">
     <g id="line2d_1">
      <path d="M 102.548474 237.4 
L 102.548474 10.8 
" clip-path="url(#p6393bdc8b4)" style="fill: none; stroke: #ffffff; stroke-width: 0.8; stroke-linecap: round"/>
     </g>
     <g id="text_1">
      <!-- 2 -->
      <g style="fill: #262626" transform="translate(98.099724 255.8525)scale(0.16 -0.16)">
       <defs>
        <path id="ArialMT-32" d="M 3222 541 
L 3222 0 
L 194 0 
Q 188 203 259 391 
Q 375 700 629 1000 
Q 884 1300 1366 1694 
Q 2113 2306 2375 2664 
Q 2638 3022 2638 3341 
Q 2638 3675 2398 3904 
Q 2159 4134 1775 4134 
Q 1369 4134 1125 3890 
Q 881 3647 878 3216 
L 300 3275 
Q 359 3922 746 4261 
Q 1134 4600 1788 4600 
Q 2447 4600 2831 4234 
Q 3216 3869 3216 3328 
Q 3216 3053 3103 2787 
Q 2991 2522 2730 2228 
Q 2469 1934 1863 1422 
Q 1356 997 1212 845 
Q 1069 694 975 541 
L 3222 541 
z
" transform="scale(0.015625)"/>
       </defs>
       <use xlink:href="#ArialMT-32"/>
      </g>
     </g>
    </g>
    <g id="xtick_2">
     <g id="line2d_2">
      <path d="M 157.677467 237.4 
L 157.677467 10.8 
" clip-path="url(#p6393bdc8b4)" style="fill: none; stroke: #ffffff; stroke-width: 0.8; stroke-linecap: round"/>
     </g>
     <g id="text_2">
      <!-- 4 -->
      <g style="fill: #262626" transform="translate(153.228717 255.8525)scale(0.16 -0.16)">
       <defs>
        <path id="ArialMT-34" d="M 2069 0 
L 2069 1097 
L 81 1097 
L 81 1613 
L 2172 4581 
L 2631 4581 
L 2631 1613 
L 3250 1613 
L 3250 1097 
L 2631 1097 
L 2631 0 
L 2069 0 
z
M 2069 1613 
L 2069 3678 
L 634 1613 
L 2069 1613 
z
" transform="scale(0.015625)"/>
       </defs>
       <use xlink:href="#ArialMT-34"/>
      </g>
     </g>
    </g>
    <g id="xtick_3">
     <g id="line2d_3">
      <path d="M 212.806461 237.4 
L 212.806461 10.8 
" clip-path="url(#p6393bdc8b4)" style="fill: none; stroke: #ffffff; stroke-width: 0.8; stroke-linecap: round"/>
     </g>
     <g id="text_3">
      <!-- 6 -->
      <g style="fill: #262626" transform="translate(208.357711 255.8525)scale(0.16 -0.16)">
       <defs>
        <path id="ArialMT-36" d="M 3184 3459 
L 2625 3416 
Q 2550 3747 2413 3897 
Q 2184 4138 1850 4138 
Q 1581 4138 1378 3988 
Q 1113 3794 959 3422 
Q 806 3050 800 2363 
Q 1003 2672 1297 2822 
Q 1591 2972 1913 2972 
Q 2475 2972 2870 2558 
Q 3266 2144 3266 1488 
Q 3266 1056 3080 686 
Q 2894 316 2569 119 
Q 2244 -78 1831 -78 
Q 1128 -78 684 439 
Q 241 956 241 2144 
Q 241 3472 731 4075 
Q 1159 4600 1884 4600 
Q 2425 4600 2770 4297 
Q 3116 3994 3184 3459 
z
M 888 1484 
Q 888 1194 1011 928 
Q 1134 663 1356 523 
Q 1578 384 1822 384 
Q 2178 384 2434 671 
Q 2691 959 2691 1453 
Q 2691 1928 2437 2201 
Q 2184 2475 1800 2475 
Q 1419 2475 1153 2201 
Q 888 1928 888 1484 
z
" transform="scale(0.015625)"/>
       </defs>
       <use xlink:href="#ArialMT-36"/>
      </g>
     </g>
    </g>
    <g id="xtick_4">
     <g id="line2d_4">
      <path d="M 267.935454 237.4 
L 267.935454 10.8 
" clip-path="url(#p6393bdc8b4)" style="fill: none; stroke: #ffffff; stroke-width: 0.8; stroke-linecap: round"/>
     </g>
     <g id="text_4">
      <!-- 8 -->
      <g style="fill: #262626" transform="translate(263.486704 255.8525)scale(0.16 -0.16)">
       <defs>
        <path id="ArialMT-38" d="M 1131 2484 
Q 781 2613 612 2850 
Q 444 3088 444 3419 
Q 444 3919 803 4259 
Q 1163 4600 1759 4600 
Q 2359 4600 2725 4251 
Q 3091 3903 3091 3403 
Q 3091 3084 2923 2848 
Q 2756 2613 2416 2484 
Q 2838 2347 3058 2040 
Q 3278 1734 3278 1309 
Q 3278 722 2862 322 
Q 2447 -78 1769 -78 
Q 1091 -78 675 323 
Q 259 725 259 1325 
Q 259 1772 486 2073 
Q 713 2375 1131 2484 
z
M 1019 3438 
Q 1019 3113 1228 2906 
Q 1438 2700 1772 2700 
Q 2097 2700 2305 2904 
Q 2513 3109 2513 3406 
Q 2513 3716 2298 3927 
Q 2084 4138 1766 4138 
Q 1444 4138 1231 3931 
Q 1019 3725 1019 3438 
z
M 838 1322 
Q 838 1081 952 856 
Q 1066 631 1291 507 
Q 1516 384 1775 384 
Q 2178 384 2440 643 
Q 2703 903 2703 1303 
Q 2703 1709 2433 1975 
Q 2163 2241 1756 2241 
Q 1359 2241 1098 1978 
Q 838 1716 838 1322 
z
" transform="scale(0.015625)"/>
       </defs>
       <use xlink:href="#ArialMT-38"/>
      </g>
     </g>
    </g>
    <g id="xtick_5">
     <g id="line2d_5">
      <path d="M 323.064448 237.4 
L 323.064448 10.8 
" clip-path="url(#p6393bdc8b4)" style="fill: none; stroke: #ffffff; stroke-width: 0.8; stroke-linecap: round"/>
     </g>
     <g id="text_5">
      <!-- 10 -->
      <g style="fill: #262626" transform="translate(314.166948 255.8525)scale(0.16 -0.16)">
       <defs>
        <path id="ArialMT-31" d="M 2384 0 
L 1822 0 
L 1822 3584 
Q 1619 3391 1289 3197 
Q 959 3003 697 2906 
L 697 3450 
Q 1169 3672 1522 3987 
Q 1875 4303 2022 4600 
L 2384 4600 
L 2384 0 
z
" transform="scale(0.015625)"/>
        <path id="ArialMT-30" d="M 266 2259 
Q 266 3072 433 3567 
Q 600 4063 929 4331 
Q 1259 4600 1759 4600 
Q 2128 4600 2406 4451 
Q 2684 4303 2865 4023 
Q 3047 3744 3150 3342 
Q 3253 2941 3253 2259 
Q 3253 1453 3087 958 
Q 2922 463 2592 192 
Q 2263 -78 1759 -78 
Q 1097 -78 719 397 
Q 266 969 266 2259 
z
M 844 2259 
Q 844 1131 1108 757 
Q 1372 384 1759 384 
Q 2147 384 2411 759 
Q 2675 1134 2675 2259 
Q 2675 3391 2411 3762 
Q 2147 4134 1753 4134 
Q 1366 4134 1134 3806 
Q 844 3388 844 2259 
z
" transform="scale(0.015625)"/>
       </defs>
       <use xlink:href="#ArialMT-31"/>
       <use xlink:href="#ArialMT-30" x="55.615234"/>
      </g>
     </g>
    </g>
    <g id="xtick_6">
     <g id="line2d_6">
      <path d="M 378.193441 237.4 
L 378.193441 10.8 
" clip-path="url(#p6393bdc8b4)" style="fill: none; stroke: #ffffff; stroke-width: 0.8; stroke-linecap: round"/>
     </g>
     <g id="text_6">
      <!-- 12 -->
      <g style="fill: #262626" transform="translate(369.295941 255.8525)scale(0.16 -0.16)">
       <use xlink:href="#ArialMT-31"/>
       <use xlink:href="#ArialMT-32" x="55.615234"/>
      </g>
     </g>
    </g>
    <g id="text_7">
     <!-- Performance Ratio -->
     <g style="fill: #262626" transform="translate(173.1575 274.485)scale(0.16 -0.16)">
      <defs>
       <path id="ArialMT-50" d="M 494 0 
L 494 4581 
L 2222 4581 
Q 2678 4581 2919 4538 
Q 3256 4481 3484 4323 
Q 3713 4166 3852 3881 
Q 3991 3597 3991 3256 
Q 3991 2672 3619 2267 
Q 3247 1863 2275 1863 
L 1100 1863 
L 1100 0 
L 494 0 
z
M 1100 2403 
L 2284 2403 
Q 2872 2403 3119 2622 
Q 3366 2841 3366 3238 
Q 3366 3525 3220 3729 
Q 3075 3934 2838 4000 
Q 2684 4041 2272 4041 
L 1100 4041 
L 1100 2403 
z
" transform="scale(0.015625)"/>
       <path id="ArialMT-65" d="M 2694 1069 
L 3275 997 
Q 3138 488 2766 206 
Q 2394 -75 1816 -75 
Q 1088 -75 661 373 
Q 234 822 234 1631 
Q 234 2469 665 2931 
Q 1097 3394 1784 3394 
Q 2450 3394 2872 2941 
Q 3294 2488 3294 1666 
Q 3294 1616 3291 1516 
L 816 1516 
Q 847 969 1125 678 
Q 1403 388 1819 388 
Q 2128 388 2347 550 
Q 2566 713 2694 1069 
z
M 847 1978 
L 2700 1978 
Q 2663 2397 2488 2606 
Q 2219 2931 1791 2931 
Q 1403 2931 1139 2672 
Q 875 2413 847 1978 
z
" transform="scale(0.015625)"/>
       <path id="ArialMT-72" d="M 416 0 
L 416 3319 
L 922 3319 
L 922 2816 
Q 1116 3169 1280 3281 
Q 1444 3394 1641 3394 
Q 1925 3394 2219 3213 
L 2025 2691 
Q 1819 2813 1613 2813 
Q 1428 2813 1281 2702 
Q 1134 2591 1072 2394 
Q 978 2094 978 1738 
L 978 0 
L 416 0 
z
" transform="scale(0.015625)"/>
       <path id="ArialMT-66" d="M 556 0 
L 556 2881 
L 59 2881 
L 59 3319 
L 556 3319 
L 556 3672 
Q 556 4006 616 4169 
Q 697 4388 901 4523 
Q 1106 4659 1475 4659 
Q 1713 4659 2000 4603 
L 1916 4113 
Q 1741 4144 1584 4144 
Q 1328 4144 1222 4034 
Q 1116 3925 1116 3625 
L 1116 3319 
L 1763 3319 
L 1763 2881 
L 1116 2881 
L 1116 0 
L 556 0 
z
" transform="scale(0.015625)"/>
       <path id="ArialMT-6f" d="M 213 1659 
Q 213 2581 725 3025 
Q 1153 3394 1769 3394 
Q 2453 3394 2887 2945 
Q 3322 2497 3322 1706 
Q 3322 1066 3130 698 
Q 2938 331 2570 128 
Q 2203 -75 1769 -75 
Q 1072 -75 642 372 
Q 213 819 213 1659 
z
M 791 1659 
Q 791 1022 1069 705 
Q 1347 388 1769 388 
Q 2188 388 2466 706 
Q 2744 1025 2744 1678 
Q 2744 2294 2464 2611 
Q 2184 2928 1769 2928 
Q 1347 2928 1069 2612 
Q 791 2297 791 1659 
z
" transform="scale(0.015625)"/>
       <path id="ArialMT-6d" d="M 422 0 
L 422 3319 
L 925 3319 
L 925 2853 
Q 1081 3097 1340 3245 
Q 1600 3394 1931 3394 
Q 2300 3394 2536 3241 
Q 2772 3088 2869 2813 
Q 3263 3394 3894 3394 
Q 4388 3394 4653 3120 
Q 4919 2847 4919 2278 
L 4919 0 
L 4359 0 
L 4359 2091 
Q 4359 2428 4304 2576 
Q 4250 2725 4106 2815 
Q 3963 2906 3769 2906 
Q 3419 2906 3187 2673 
Q 2956 2441 2956 1928 
L 2956 0 
L 2394 0 
L 2394 2156 
Q 2394 2531 2256 2718 
Q 2119 2906 1806 2906 
Q 1569 2906 1367 2781 
Q 1166 2656 1075 2415 
Q 984 2175 984 1722 
L 984 0 
L 422 0 
z
" transform="scale(0.015625)"/>
       <path id="ArialMT-61" d="M 2588 409 
Q 2275 144 1986 34 
Q 1697 -75 1366 -75 
Q 819 -75 525 192 
Q 231 459 231 875 
Q 231 1119 342 1320 
Q 453 1522 633 1644 
Q 813 1766 1038 1828 
Q 1203 1872 1538 1913 
Q 2219 1994 2541 2106 
Q 2544 2222 2544 2253 
Q 2544 2597 2384 2738 
Q 2169 2928 1744 2928 
Q 1347 2928 1158 2789 
Q 969 2650 878 2297 
L 328 2372 
Q 403 2725 575 2942 
Q 747 3159 1072 3276 
Q 1397 3394 1825 3394 
Q 2250 3394 2515 3294 
Q 2781 3194 2906 3042 
Q 3031 2891 3081 2659 
Q 3109 2516 3109 2141 
L 3109 1391 
Q 3109 606 3145 398 
Q 3181 191 3288 0 
L 2700 0 
Q 2613 175 2588 409 
z
M 2541 1666 
Q 2234 1541 1622 1453 
Q 1275 1403 1131 1340 
Q 988 1278 909 1158 
Q 831 1038 831 891 
Q 831 666 1001 516 
Q 1172 366 1500 366 
Q 1825 366 2078 508 
Q 2331 650 2450 897 
Q 2541 1088 2541 1459 
L 2541 1666 
z
" transform="scale(0.015625)"/>
       <path id="ArialMT-6e" d="M 422 0 
L 422 3319 
L 928 3319 
L 928 2847 
Q 1294 3394 1984 3394 
Q 2284 3394 2536 3286 
Q 2788 3178 2913 3003 
Q 3038 2828 3088 2588 
Q 3119 2431 3119 2041 
L 3119 0 
L 2556 0 
L 2556 2019 
Q 2556 2363 2490 2533 
Q 2425 2703 2258 2804 
Q 2091 2906 1866 2906 
Q 1506 2906 1245 2678 
Q 984 2450 984 1813 
L 984 0 
L 422 0 
z
" transform="scale(0.015625)"/>
       <path id="ArialMT-63" d="M 2588 1216 
L 3141 1144 
Q 3050 572 2676 248 
Q 2303 -75 1759 -75 
Q 1078 -75 664 370 
Q 250 816 250 1647 
Q 250 2184 428 2587 
Q 606 2991 970 3192 
Q 1334 3394 1763 3394 
Q 2303 3394 2647 3120 
Q 2991 2847 3088 2344 
L 2541 2259 
Q 2463 2594 2264 2762 
Q 2066 2931 1784 2931 
Q 1359 2931 1093 2626 
Q 828 2322 828 1663 
Q 828 994 1084 691 
Q 1341 388 1753 388 
Q 2084 388 2306 591 
Q 2528 794 2588 1216 
z
" transform="scale(0.015625)"/>
       <path id="ArialMT-20" transform="scale(0.015625)"/>
       <path id="ArialMT-52" d="M 503 0 
L 503 4581 
L 2534 4581 
Q 3147 4581 3465 4457 
Q 3784 4334 3975 4021 
Q 4166 3709 4166 3331 
Q 4166 2844 3850 2509 
Q 3534 2175 2875 2084 
Q 3116 1969 3241 1856 
Q 3506 1613 3744 1247 
L 4541 0 
L 3778 0 
L 3172 953 
Q 2906 1366 2734 1584 
Q 2563 1803 2427 1890 
Q 2291 1978 2150 2013 
Q 2047 2034 1813 2034 
L 1109 2034 
L 1109 0 
L 503 0 
z
M 1109 2559 
L 2413 2559 
Q 2828 2559 3062 2645 
Q 3297 2731 3419 2920 
Q 3541 3109 3541 3331 
Q 3541 3656 3305 3865 
Q 3069 4075 2559 4075 
L 1109 4075 
L 1109 2559 
z
" transform="scale(0.015625)"/>
       <path id="ArialMT-74" d="M 1650 503 
L 1731 6 
Q 1494 -44 1306 -44 
Q 1000 -44 831 53 
Q 663 150 594 308 
Q 525 466 525 972 
L 525 2881 
L 113 2881 
L 113 3319 
L 525 3319 
L 525 4141 
L 1084 4478 
L 1084 3319 
L 1650 3319 
L 1650 2881 
L 1084 2881 
L 1084 941 
Q 1084 700 1114 631 
Q 1144 563 1211 522 
Q 1278 481 1403 481 
Q 1497 481 1650 503 
z
" transform="scale(0.015625)"/>
       <path id="ArialMT-69" d="M 425 3934 
L 425 4581 
L 988 4581 
L 988 3934 
L 425 3934 
z
M 425 0 
L 425 3319 
L 988 3319 
L 988 0 
L 425 0 
z
" transform="scale(0.015625)"/>
      </defs>
      <use xlink:href="#ArialMT-50"/>
      <use xlink:href="#ArialMT-65" x="66.699219"/>
      <use xlink:href="#ArialMT-72" x="122.314453"/>
      <use xlink:href="#ArialMT-66" x="155.615234"/>
      <use xlink:href="#ArialMT-6f" x="183.398438"/>
      <use xlink:href="#ArialMT-72" x="239.013672"/>
      <use xlink:href="#ArialMT-6d" x="272.314453"/>
      <use xlink:href="#ArialMT-61" x="355.615234"/>
      <use xlink:href="#ArialMT-6e" x="411.230469"/>
      <use xlink:href="#ArialMT-63" x="466.845703"/>
      <use xlink:href="#ArialMT-65" x="516.845703"/>
      <use xlink:href="#ArialMT-20" x="572.460938"/>
      <use xlink:href="#ArialMT-52" x="600.244141"/>
      <use xlink:href="#ArialMT-61" x="672.460938"/>
      <use xlink:href="#ArialMT-74" x="728.076172"/>
      <use xlink:href="#ArialMT-69" x="755.859375"/>
      <use xlink:href="#ArialMT-6f" x="778.076172"/>
     </g>
    </g>
   </g>
   <g id="matplotlib.axis_2">
    <g id="ytick_1">
     <g id="line2d_7">
      <path d="M 58.4975 227.1 
L 421.2 227.1 
" clip-path="url(#p6393bdc8b4)" style="fill: none; stroke: #ffffff; stroke-width: 0.8; stroke-linecap: round"/>
     </g>
     <g id="text_8">
      <!-- 0.0 -->
      <g style="fill: #262626" transform="translate(29.2575 232.82625)scale(0.16 -0.16)">
       <defs>
        <path id="ArialMT-2e" d="M 581 0 
L 581 641 
L 1222 641 
L 1222 0 
L 581 0 
z
" transform="scale(0.015625)"/>
       </defs>
       <use xlink:href="#ArialMT-30"/>
       <use xlink:href="#ArialMT-2e" x="55.615234"/>
       <use xlink:href="#ArialMT-30" x="83.398438"/>
      </g>
     </g>
    </g>
    <g id="ytick_2">
     <g id="line2d_8">
      <path d="M 58.4975 185.9 
L 421.2 185.9 
" clip-path="url(#p6393bdc8b4)" style="fill: none; stroke: #ffffff; stroke-width: 0.8; stroke-linecap: round"/>
     </g>
     <g id="text_9">
      <!-- 0.2 -->
      <g style="fill: #262626" transform="translate(29.2575 191.62625)scale(0.16 -0.16)">
       <use xlink:href="#ArialMT-30"/>
       <use xlink:href="#ArialMT-2e" x="55.615234"/>
       <use xlink:href="#ArialMT-32" x="83.398438"/>
      </g>
     </g>
    </g>
    <g id="ytick_3">
     <g id="line2d_9">
      <path d="M 58.4975 144.7 
L 421.2 144.7 
" clip-path="url(#p6393bdc8b4)" style="fill: none; stroke: #ffffff; stroke-width: 0.8; stroke-linecap: round"/>
     </g>
     <g id="text_10">
      <!-- 0.4 -->
      <g style="fill: #262626" transform="translate(29.2575 150.42625)scale(0.16 -0.16)">
       <use xlink:href="#ArialMT-30"/>
       <use xlink:href="#ArialMT-2e" x="55.615234"/>
       <use xlink:href="#ArialMT-34" x="83.398438"/>
      </g>
     </g>
    </g>
    <g id="ytick_4">
     <g id="line2d_10">
      <path d="M 58.4975 103.5 
L 421.2 103.5 
" clip-path="url(#p6393bdc8b4)" style="fill: none; stroke: #ffffff; stroke-width: 0.8; stroke-linecap: round"/>
     </g>
     <g id="text_11">
      <!-- 0.6 -->
      <g style="fill: #262626" transform="translate(29.2575 109.22625)scale(0.16 -0.16)">
       <use xlink:href="#ArialMT-30"/>
       <use xlink:href="#ArialMT-2e" x="55.615234"/>
       <use xlink:href="#ArialMT-36" x="83.398438"/>
      </g>
     </g>
    </g>
    <g id="ytick_5">
     <g id="line2d_11">
      <path d="M 58.4975 62.3 
L 421.2 62.3 
" clip-path="url(#p6393bdc8b4)" style="fill: none; stroke: #ffffff; stroke-width: 0.8; stroke-linecap: round"/>
     </g>
     <g id="text_12">
      <!-- 0.8 -->
      <g style="fill: #262626" transform="translate(29.2575 68.02625)scale(0.16 -0.16)">
       <use xlink:href="#ArialMT-30"/>
       <use xlink:href="#ArialMT-2e" x="55.615234"/>
       <use xlink:href="#ArialMT-38" x="83.398438"/>
      </g>
     </g>
    </g>
    <g id="ytick_6">
     <g id="line2d_12">
      <path d="M 58.4975 21.1 
L 421.2 21.1 
" clip-path="url(#p6393bdc8b4)" style="fill: none; stroke: #ffffff; stroke-width: 0.8; stroke-linecap: round"/>
     </g>
     <g id="text_13">
      <!-- 1.0 -->
      <g style="fill: #262626" transform="translate(29.2575 26.82625)scale(0.16 -0.16)">
       <use xlink:href="#ArialMT-31"/>
       <use xlink:href="#ArialMT-2e" x="55.615234"/>
       <use xlink:href="#ArialMT-30" x="83.398438"/>
      </g>
     </g>
    </g>
    <g id="text_14">
     <!-- % of Experiments -->
     <g style="fill: #262626" transform="translate(22.0775 186.78875)rotate(-90)scale(0.16 -0.16)">
      <defs>
       <path id="ArialMT-25" d="M 372 3481 
Q 372 3972 619 4315 
Q 866 4659 1334 4659 
Q 1766 4659 2048 4351 
Q 2331 4044 2331 3447 
Q 2331 2866 2045 2552 
Q 1759 2238 1341 2238 
Q 925 2238 648 2547 
Q 372 2856 372 3481 
z
M 1350 4272 
Q 1141 4272 1002 4090 
Q 863 3909 863 3425 
Q 863 2984 1003 2804 
Q 1144 2625 1350 2625 
Q 1563 2625 1702 2806 
Q 1841 2988 1841 3469 
Q 1841 3913 1700 4092 
Q 1559 4272 1350 4272 
z
M 1353 -169 
L 3859 4659 
L 4316 4659 
L 1819 -169 
L 1353 -169 
z
M 3334 1075 
Q 3334 1569 3581 1911 
Q 3828 2253 4300 2253 
Q 4731 2253 5014 1945 
Q 5297 1638 5297 1041 
Q 5297 459 5011 145 
Q 4725 -169 4303 -169 
Q 3888 -169 3611 142 
Q 3334 453 3334 1075 
z
M 4316 1866 
Q 4103 1866 3964 1684 
Q 3825 1503 3825 1019 
Q 3825 581 3965 400 
Q 4106 219 4313 219 
Q 4528 219 4667 400 
Q 4806 581 4806 1063 
Q 4806 1506 4665 1686 
Q 4525 1866 4316 1866 
z
" transform="scale(0.015625)"/>
       <path id="ArialMT-45" d="M 506 0 
L 506 4581 
L 3819 4581 
L 3819 4041 
L 1113 4041 
L 1113 2638 
L 3647 2638 
L 3647 2100 
L 1113 2100 
L 1113 541 
L 3925 541 
L 3925 0 
L 506 0 
z
" transform="scale(0.015625)"/>
       <path id="ArialMT-78" d="M 47 0 
L 1259 1725 
L 138 3319 
L 841 3319 
L 1350 2541 
Q 1494 2319 1581 2169 
Q 1719 2375 1834 2534 
L 2394 3319 
L 3066 3319 
L 1919 1756 
L 3153 0 
L 2463 0 
L 1781 1031 
L 1600 1309 
L 728 0 
L 47 0 
z
" transform="scale(0.015625)"/>
       <path id="ArialMT-70" d="M 422 -1272 
L 422 3319 
L 934 3319 
L 934 2888 
Q 1116 3141 1344 3267 
Q 1572 3394 1897 3394 
Q 2322 3394 2647 3175 
Q 2972 2956 3137 2557 
Q 3303 2159 3303 1684 
Q 3303 1175 3120 767 
Q 2938 359 2589 142 
Q 2241 -75 1856 -75 
Q 1575 -75 1351 44 
Q 1128 163 984 344 
L 984 -1272 
L 422 -1272 
z
M 931 1641 
Q 931 1000 1190 694 
Q 1450 388 1819 388 
Q 2194 388 2461 705 
Q 2728 1022 2728 1688 
Q 2728 2322 2467 2637 
Q 2206 2953 1844 2953 
Q 1484 2953 1207 2617 
Q 931 2281 931 1641 
z
" transform="scale(0.015625)"/>
       <path id="ArialMT-73" d="M 197 991 
L 753 1078 
Q 800 744 1014 566 
Q 1228 388 1613 388 
Q 2000 388 2187 545 
Q 2375 703 2375 916 
Q 2375 1106 2209 1216 
Q 2094 1291 1634 1406 
Q 1016 1563 777 1677 
Q 538 1791 414 1992 
Q 291 2194 291 2438 
Q 291 2659 392 2848 
Q 494 3038 669 3163 
Q 800 3259 1026 3326 
Q 1253 3394 1513 3394 
Q 1903 3394 2198 3281 
Q 2494 3169 2634 2976 
Q 2775 2784 2828 2463 
L 2278 2388 
Q 2241 2644 2061 2787 
Q 1881 2931 1553 2931 
Q 1166 2931 1000 2803 
Q 834 2675 834 2503 
Q 834 2394 903 2306 
Q 972 2216 1119 2156 
Q 1203 2125 1616 2013 
Q 2213 1853 2448 1751 
Q 2684 1650 2818 1456 
Q 2953 1263 2953 975 
Q 2953 694 2789 445 
Q 2625 197 2315 61 
Q 2006 -75 1616 -75 
Q 969 -75 630 194 
Q 291 463 197 991 
z
" transform="scale(0.015625)"/>
      </defs>
      <use xlink:href="#ArialMT-25"/>
      <use xlink:href="#ArialMT-20" x="88.916016"/>
      <use xlink:href="#ArialMT-6f" x="116.699219"/>
      <use xlink:href="#ArialMT-66" x="172.314453"/>
      <use xlink:href="#ArialMT-20" x="200.097656"/>
      <use xlink:href="#ArialMT-45" x="227.880859"/>
      <use xlink:href="#ArialMT-78" x="294.580078"/>
      <use xlink:href="#ArialMT-70" x="344.580078"/>
      <use xlink:href="#ArialMT-65" x="400.195312"/>
      <use xlink:href="#ArialMT-72" x="455.810547"/>
      <use xlink:href="#ArialMT-69" x="489.111328"/>
      <use xlink:href="#ArialMT-6d" x="511.328125"/>
      <use xlink:href="#ArialMT-65" x="594.628906"/>
      <use xlink:href="#ArialMT-6e" x="650.244141"/>
      <use xlink:href="#ArialMT-74" x="705.859375"/>
      <use xlink:href="#ArialMT-73" x="733.642578"/>
     </g>
    </g>
   </g>
   <g id="line2d_13">
    <path d="M 74.983977 227.1 
L 74.983977 224.55679 
L 76.21652 223.709053 
L 77.693652 222.861317 
L 77.843073 221.165844 
L 77.84538 220.318107 
L 78.262025 217.774897 
L 78.55005 216.92716 
L 80.118534 216.079424 
L 80.285017 214.383951 
L 80.322736 213.536214 
L 80.561851 212.688477 
L 81.858608 211.840741 
L 82.004664 210.993004 
L 82.54535 210.145267 
L 82.916794 209.297531 
L 83.118206 208.449794 
L 83.305518 204.211111 
L 84.31562 202.515638 
L 84.374332 201.667901 
L 85.009037 199.972428 
L 85.798074 198.276955 
L 86.375321 197.429218 
L 86.411427 196.581481 
L 86.735463 195.733745 
L 86.862362 194.886008 
L 87.230294 194.038272 
L 87.345794 193.190535 
L 87.697137 192.342798 
L 87.750077 190.647325 
L 88.095729 188.951852 
L 88.499921 188.104115 
L 88.690851 186.408642 
L 88.857726 185.560905 
L 89.280621 184.713169 
L 89.985869 183.865432 
L 90.254282 183.017695 
L 90.288599 182.169959 
L 90.612087 181.322222 
L 90.627563 180.474486 
L 91.195325 179.626749 
L 91.231946 178.779012 
L 92.097068 177.931276 
L 92.743382 177.083539 
L 93.056715 176.235802 
L 94.120951 175.388066 
L 94.992992 174.540329 
L 95.956049 172.844856 
L 96.33584 171.149383 
L 96.406825 170.301646 
L 96.597138 169.453909 
L 97.056413 168.606173 
L 97.338826 165.215226 
L 97.818473 164.36749 
L 97.877129 163.519753 
L 98.320438 162.672016 
L 98.342357 161.82428 
L 99.079078 159.28107 
L 99.356799 158.433333 
L 99.587914 156.73786 
L 100.147888 155.890123 
L 100.444057 155.042387 
L 100.878029 154.19465 
L 101.104379 153.346914 
L 101.116915 152.499177 
L 101.685773 150.803704 
L 101.97301 149.10823 
L 102.02128 148.260494 
L 102.399784 147.412757 
L 102.489223 145.717284 
L 102.493451 144.869547 
L 102.758648 144.021811 
L 102.843545 143.174074 
L 103.168375 142.326337 
L 103.463196 138.087654 
L 103.780646 137.239918 
L 104.22246 136.392181 
L 104.313505 135.544444 
L 106.343702 131.305761 
L 106.379438 130.458025 
L 106.945952 127.914815 
L 107.788034 127.067078 
L 108.305081 125.371605 
L 108.406443 122.828395 
L 108.567561 121.980658 
L 108.948513 121.132922 
L 109.106167 119.437449 
L 109.913087 117.741975 
L 109.943458 116.894239 
L 111.271582 115.198765 
L 111.835272 114.351029 
L 112.140568 112.655556 
L 112.565401 111.807819 
L 113.201881 110.960082 
L 114.075494 106.721399 
L 114.892661 105.025926 
L 115.137413 104.178189 
L 115.188592 103.330453 
L 115.747788 102.482716 
L 115.765939 101.634979 
L 116.75571 100.787243 
L 117.518545 99.939506 
L 117.58908 99.09177 
L 118.14548 98.244033 
L 119.305428 97.396296 
L 119.342881 94.853086 
L 120.142503 94.00535 
L 120.599407 93.157613 
L 120.906398 92.309877 
L 122.185647 90.614403 
L 122.30448 89.766667 
L 123.028423 88.071193 
L 124.424485 86.37572 
L 126.360875 85.527984 
L 126.529265 84.680247 
L 127.350356 83.83251 
L 132.45089 82.984774 
L 133.03959 82.137037 
L 133.886288 81.2893 
L 134.615658 79.593827 
L 135.975918 78.746091 
L 136.193934 77.898354 
L 138.67943 77.050617 
L 138.704259 76.202881 
L 144.237207 72.811934 
L 144.956271 71.964198 
L 145.057044 70.268724 
L 145.789864 69.420988 
L 146.171456 68.573251 
L 146.33248 67.725514 
L 146.743763 66.877778 
L 147.233054 65.182305 
L 147.877293 64.334568 
L 147.921891 63.486831 
L 148.718806 62.639095 
L 148.764622 61.791358 
L 149.303697 60.943621 
L 150.45118 60.095885 
L 152.116945 59.248148 
L 153.336399 58.400412 
L 153.67327 57.552675 
L 154.31632 56.704938 
L 155.382155 55.857202 
L 159.598214 55.009465 
L 160.347374 54.161728 
L 162.924993 53.313992 
L 163.658486 52.466255 
L 164.19917 51.618519 
L 166.8194 50.770782 
L 167.075542 49.075309 
L 170.084138 48.227572 
L 170.399291 47.379835 
L 173.63176 46.532099 
L 174.803729 44.836626 
L 175.911382 43.988889 
L 177.698091 43.141152 
L 181.216235 42.293416 
L 182.333287 41.445679 
L 183.647711 40.597942 
L 183.978776 39.750206 
L 185.493617 38.902469 
L 187.239519 38.054733 
L 188.348383 37.206996 
L 193.580987 36.359259 
L 194.034978 35.511523 
L 198.613318 34.663786 
L 200.551324 33.816049 
L 203.360728 32.968313 
L 206.891867 32.120576 
L 223.310687 31.27284 
L 228.709121 30.425103 
L 229.387376 29.577366 
L 229.556013 28.72963 
L 231.879661 27.881893 
L 234.698703 27.034156 
L 239.394015 26.18642 
L 246.450029 25.338683 
L 252.45143 24.490947 
L 259.436056 23.64321 
L 339.78022 22.795473 
L 371.922925 21.947737 
L 384.585106 21.1 
L 384.585106 21.1 
" clip-path="url(#p6393bdc8b4)" style="fill: none; stroke: #1f77b4; stroke-width: 1.5; stroke-linecap: round"/>
   </g>
   <g id="line2d_14">
    <path d="M 74.983977 227.1 
L 74.983977 54.161728 
L 75.241127 52.466255 
L 75.887717 51.618519 
L 75.995936 49.923045 
L 76.504155 49.075309 
L 76.842255 48.227572 
L 77.945355 47.379835 
L 78.265528 46.532099 
L 81.126745 44.836626 
L 81.945534 43.988889 
L 83.592257 43.141152 
L 84.026125 42.293416 
L 84.795583 41.445679 
L 85.722162 39.750206 
L 88.877975 38.054733 
L 90.855083 37.206996 
L 90.919167 36.359259 
L 96.172551 35.511523 
L 98.12081 34.663786 
L 98.983972 33.816049 
L 99.483806 32.968313 
L 100.878063 32.120576 
L 102.494311 31.27284 
L 103.214316 30.425103 
L 119.285919 29.577366 
L 127.219602 27.881893 
L 127.498424 27.034156 
L 130.552301 26.18642 
L 141.442509 25.338683 
L 148.573237 24.490947 
L 150.581419 23.64321 
L 161.931354 22.795473 
L 206.579724 21.947737 
L 223.290559 21.1 
L 223.290559 21.1 
" clip-path="url(#p6393bdc8b4)" style="fill: none; stroke: #ff7f0e; stroke-width: 1.5; stroke-linecap: round"/>
   </g>
   <g id="line2d_15">
    <path d="M 74.983977 227.1 
L 74.983977 198.276955 
L 75.607785 197.429218 
L 76.018438 194.886008 
L 76.616626 194.038272 
L 78.573329 193.190535 
L 79.04502 192.342798 
L 79.085619 191.495062 
L 79.638703 190.647325 
L 81.340332 189.799588 
L 82.205715 188.951852 
L 82.462056 187.256379 
L 83.67232 186.408642 
L 83.84428 185.560905 
L 84.297214 184.713169 
L 84.320742 183.865432 
L 84.862131 183.017695 
L 85.554603 182.169959 
L 85.583344 181.322222 
L 85.933836 179.626749 
L 86.859117 176.235802 
L 87.091454 175.388066 
L 89.443131 174.540329 
L 90.007925 173.692593 
L 90.32293 172.844856 
L 90.817719 171.997119 
L 90.844094 171.149383 
L 92.527838 170.301646 
L 92.61803 169.453909 
L 93.213254 168.606173 
L 95.137387 166.9107 
L 95.171317 166.062963 
L 95.371838 165.215226 
L 95.933599 164.36749 
L 96.046646 163.519753 
L 97.147593 162.672016 
L 97.485096 161.82428 
L 98.034133 159.28107 
L 98.322668 158.433333 
L 98.343056 157.585597 
L 98.647647 156.73786 
L 98.854059 155.042387 
L 99.514429 154.19465 
L 99.966988 152.499177 
L 100.895442 151.65144 
L 102.947928 150.803704 
L 103.3856 149.955967 
L 104.175906 149.10823 
L 104.770392 147.412757 
L 105.688327 146.565021 
L 105.915735 145.717284 
L 107.858132 144.869547 
L 108.04908 144.021811 
L 110.550818 142.326337 
L 110.897379 141.478601 
L 111.345999 138.935391 
L 111.366014 138.087654 
L 112.068477 137.239918 
L 113.791065 135.544444 
L 114.23183 134.696708 
L 114.432976 133.848971 
L 114.749663 133.001235 
L 114.868528 132.153498 
L 116.10554 131.305761 
L 116.158216 130.458025 
L 117.830875 129.610288 
L 118.01203 128.762551 
L 120.003459 127.914815 
L 120.120994 127.067078 
L 120.691513 126.219342 
L 121.331136 123.676132 
L 122.043519 122.828395 
L 122.30331 121.980658 
L 123.173133 121.132922 
L 123.803092 120.285185 
L 123.901617 119.437449 
L 124.195387 118.589712 
L 124.95457 117.741975 
L 125.060637 116.894239 
L 127.954414 115.198765 
L 128.020377 114.351029 
L 128.913573 113.503292 
L 130.342698 112.655556 
L 130.840701 111.807819 
L 131.041454 110.960082 
L 132.20495 110.112346 
L 132.423997 109.264609 
L 132.907993 108.416872 
L 134.402191 107.569136 
L 135.610539 106.721399 
L 136.193994 105.873663 
L 136.914619 105.025926 
L 138.042912 104.178189 
L 138.734339 103.330453 
L 138.968543 102.482716 
L 142.209883 98.244033 
L 142.648335 97.396296 
L 144.713789 96.54856 
L 145.072746 95.700823 
L 146.342437 94.853086 
L 146.636128 94.00535 
L 147.174098 93.157613 
L 147.463208 92.309877 
L 148.216764 91.46214 
L 148.488764 90.614403 
L 149.000707 89.766667 
L 149.100467 88.91893 
L 149.725797 88.071193 
L 149.792752 87.223457 
L 152.041888 86.37572 
L 153.635738 85.527984 
L 156.684815 84.680247 
L 156.759154 82.984774 
L 160.237743 81.2893 
L 162.005826 80.441564 
L 162.882133 79.593827 
L 162.933566 78.746091 
L 164.919127 77.050617 
L 165.050936 76.202881 
L 165.296208 75.355144 
L 165.386321 74.507407 
L 166.174776 73.659671 
L 166.6079 72.811934 
L 167.371141 71.964198 
L 170.987141 71.116461 
L 171.305003 70.268724 
L 171.345178 69.420988 
L 171.917923 68.573251 
L 172.110636 67.725514 
L 173.891162 66.877778 
L 174.827098 66.030041 
L 174.943886 65.182305 
L 176.64003 64.334568 
L 177.342533 63.486831 
L 179.919222 62.639095 
L 179.978754 61.791358 
L 182.083687 60.943621 
L 182.419237 60.095885 
L 183.630176 59.248148 
L 184.298396 58.400412 
L 184.349889 57.552675 
L 185.053489 56.704938 
L 186.585103 55.857202 
L 188.780908 54.161728 
L 189.10266 53.313992 
L 195.002401 52.466255 
L 196.187081 51.618519 
L 198.819405 50.770782 
L 199.042399 49.923045 
L 199.711326 49.075309 
L 202.765741 48.227572 
L 203.550927 47.379835 
L 204.14892 46.532099 
L 209.627064 45.684362 
L 211.603476 44.836626 
L 211.830732 43.988889 
L 212.739412 43.141152 
L 221.088143 42.293416 
L 221.17258 41.445679 
L 223.826525 40.597942 
L 226.347989 38.902469 
L 230.275214 38.054733 
L 231.009063 36.359259 
L 234.547742 35.511523 
L 235.843028 34.663786 
L 238.101815 33.816049 
L 244.731708 32.968313 
L 246.191476 32.120576 
L 255.09891 31.27284 
L 255.814922 30.425103 
L 256.00002 29.577366 
L 270.010133 28.72963 
L 271.245455 27.881893 
L 274.545715 27.034156 
L 287.284679 26.18642 
L 305.133418 25.338683 
L 306.052508 24.490947 
L 317.485517 23.64321 
L 323.304091 22.795473 
L 384.567547 21.947737 
L 404.713523 21.1 
L 404.713523 21.1 
" clip-path="url(#p6393bdc8b4)" style="fill: none; stroke: #2ca02c; stroke-width: 1.5; stroke-linecap: round"/>
   </g>
   <g id="patch_3">
    <path d="M 58.4975 237.4 
L 58.4975 10.8 
" style="fill: none; stroke: #ffffff; stroke-width: 0.8; stroke-linejoin: miter; stroke-linecap: square"/>
   </g>
   <g id="patch_4">
    <path d="M 421.2 237.4 
L 421.2 10.8 
" style="fill: none; stroke: #ffffff; stroke-width: 0.8; stroke-linejoin: miter; stroke-linecap: square"/>
   </g>
   <g id="patch_5">
    <path d="M 58.4975 237.4 
L 421.2 237.4 
" style="fill: none; stroke: #ffffff; stroke-width: 0.8; stroke-linejoin: miter; stroke-linecap: square"/>
   </g>
   <g id="patch_6">
    <path d="M 58.4975 10.8 
L 421.2 10.8 
" style="fill: none; stroke: #ffffff; stroke-width: 0.8; stroke-linejoin: miter; stroke-linecap: square"/>
   </g>
   <g id="legend_1">
    <g id="patch_7">
     <path d="M 248.835 229.4 
L 410 229.4 
Q 413.2 229.4 413.2 226.2 
L 413.2 159.9025 
Q 413.2 156.7025 410 156.7025 
L 248.835 156.7025 
Q 245.635 156.7025 245.635 159.9025 
L 245.635 226.2 
Q 245.635 229.4 248.835 229.4 
z
" style="fill: #eaeaf2; opacity: 0.8; stroke: #cccccc; stroke-linejoin: miter"/>
    </g>
    <g id="line2d_16">
     <path d="M 252.035 168.955 
L 268.035 168.955 
L 284.035 168.955 
" style="fill: none; stroke: #1f77b4; stroke-width: 1.5; stroke-linecap: round"/>
    </g>
    <g id="text_15">
     <!-- Random PADM -->
     <g style="fill: #262626" transform="translate(296.835 174.555)scale(0.16 -0.16)">
      <defs>
       <path id="ArialMT-64" d="M 2575 0 
L 2575 419 
Q 2259 -75 1647 -75 
Q 1250 -75 917 144 
Q 584 363 401 755 
Q 219 1147 219 1656 
Q 219 2153 384 2558 
Q 550 2963 881 3178 
Q 1213 3394 1622 3394 
Q 1922 3394 2156 3267 
Q 2391 3141 2538 2938 
L 2538 4581 
L 3097 4581 
L 3097 0 
L 2575 0 
z
M 797 1656 
Q 797 1019 1065 703 
Q 1334 388 1700 388 
Q 2069 388 2326 689 
Q 2584 991 2584 1609 
Q 2584 2291 2321 2609 
Q 2059 2928 1675 2928 
Q 1300 2928 1048 2622 
Q 797 2316 797 1656 
z
" transform="scale(0.015625)"/>
       <path id="ArialMT-41" d="M -9 0 
L 1750 4581 
L 2403 4581 
L 4278 0 
L 3588 0 
L 3053 1388 
L 1138 1388 
L 634 0 
L -9 0 
z
M 1313 1881 
L 2866 1881 
L 2388 3150 
Q 2169 3728 2063 4100 
Q 1975 3659 1816 3225 
L 1313 1881 
z
" transform="scale(0.015625)"/>
       <path id="ArialMT-44" d="M 494 0 
L 494 4581 
L 2072 4581 
Q 2606 4581 2888 4516 
Q 3281 4425 3559 4188 
Q 3922 3881 4101 3404 
Q 4281 2928 4281 2316 
Q 4281 1794 4159 1391 
Q 4038 988 3847 723 
Q 3656 459 3429 307 
Q 3203 156 2883 78 
Q 2563 0 2147 0 
L 494 0 
z
M 1100 541 
L 2078 541 
Q 2531 541 2789 625 
Q 3047 709 3200 863 
Q 3416 1078 3536 1442 
Q 3656 1806 3656 2325 
Q 3656 3044 3420 3430 
Q 3184 3816 2847 3947 
Q 2603 4041 2063 4041 
L 1100 4041 
L 1100 541 
z
" transform="scale(0.015625)"/>
       <path id="ArialMT-4d" d="M 475 0 
L 475 4581 
L 1388 4581 
L 2472 1338 
Q 2622 884 2691 659 
Q 2769 909 2934 1394 
L 4031 4581 
L 4847 4581 
L 4847 0 
L 4263 0 
L 4263 3834 
L 2931 0 
L 2384 0 
L 1059 3900 
L 1059 0 
L 475 0 
z
" transform="scale(0.015625)"/>
      </defs>
      <use xlink:href="#ArialMT-52"/>
      <use xlink:href="#ArialMT-61" x="72.216797"/>
      <use xlink:href="#ArialMT-6e" x="127.832031"/>
      <use xlink:href="#ArialMT-64" x="183.447266"/>
      <use xlink:href="#ArialMT-6f" x="239.0625"/>
      <use xlink:href="#ArialMT-6d" x="294.677734"/>
      <use xlink:href="#ArialMT-20" x="377.978516"/>
      <use xlink:href="#ArialMT-50" x="405.761719"/>
      <use xlink:href="#ArialMT-41" x="465.085938"/>
      <use xlink:href="#ArialMT-44" x="531.785156"/>
      <use xlink:href="#ArialMT-4d" x="604.001953"/>
     </g>
    </g>
    <g id="line2d_17">
     <path d="M 252.035 191.5875 
L 268.035 191.5875 
L 284.035 191.5875 
" style="fill: none; stroke: #ff7f0e; stroke-width: 1.5; stroke-linecap: round"/>
    </g>
    <g id="text_16">
     <!-- PADM -->
     <g style="fill: #262626" transform="translate(296.835 197.1875)scale(0.16 -0.16)">
      <use xlink:href="#ArialMT-50"/>
      <use xlink:href="#ArialMT-41" x="59.324219"/>
      <use xlink:href="#ArialMT-44" x="126.023438"/>
      <use xlink:href="#ArialMT-4d" x="198.240234"/>
     </g>
    </g>
    <g id="line2d_18">
     <path d="M 252.035 214.22 
L 268.035 214.22 
L 284.035 214.22 
" style="fill: none; stroke: #2ca02c; stroke-width: 1.5; stroke-linecap: round"/>
    </g>
    <g id="text_17">
     <!-- Exact -->
     <g style="fill: #262626" transform="translate(296.835 219.82)scale(0.16 -0.16)">
      <use xlink:href="#ArialMT-45"/>
      <use xlink:href="#ArialMT-78" x="66.699219"/>
      <use xlink:href="#ArialMT-61" x="116.699219"/>
      <use xlink:href="#ArialMT-63" x="172.314453"/>
      <use xlink:href="#ArialMT-74" x="222.314453"/>
     </g>
    </g>
   </g>
  </g>
 </g>
 <defs>
  <clipPath id="p6393bdc8b4">
   <rect x="58.4975" y="10.8" width="362.7025" height="226.6"/>
  </clipPath>
 </defs>
</svg>
