<?xml version="1.0" encoding="utf-8" standalone="no"?>
<!DOCTYPE svg PUBLIC "-//W3C//DTD SVG 1.1//EN"
  "http://www.w3.org/Graphics/SVG/1.1/DTD/svg11.dtd">
<svg xmlns:xlink="http://www.w3.org/1999/xlink" width="432pt" height="216pt" viewBox="0 0 432 216" xmlns="http://www.w3.org/2000/svg" version="1.1">
 <metadata>
  <rdf:RDF xmlns:dc="http://purl.org/dc/elements/1.1/" xmlns:cc="http://creativecommons.org/ns#" xmlns:rdf="http://www.w3.org/1999/02/22-rdf-syntax-ns#">
   <cc:Work>
    <dc:type rdf:resource="http://purl.org/dc/dcmitype/StillImage"/>
    <dc:date>2023-06-03T10:44:44.398846</dc:date>
    <dc:format>image/svg+xml</dc:format>
    <dc:creator>
     <cc:Agent>
      <dc:title>Matplotlib v3.5.2, https://matplotlib.org/</dc:title>
     </cc:Agent>
    </dc:creator>
   </cc:Work>
  </rdf:RDF>
 </metadata>
 <defs>
  <style type="text/css">*{stroke-linejoin: round; stroke-linecap: butt}</style>
 </defs>
 <g id="figure_1">
  <g id="patch_1">
   <path d="M 0 216 
L 432 216 
L 432 0 
L 0 0 
z
" style="fill: #ffffff"/>
  </g>
  <g id="axes_1">
   <g id="patch_2">
    <path d="M 56.798167 165.861871 
L 421.2 165.861871 
L 421.2 10.8 
L 56.798167 10.8 
z
" style="fill: #ffffff"/>
   </g>
   <g id="matplotlib.axis_1">
    <g id="xtick_1">
     <g id="line2d_1">
      <defs>
       <path id="m12fac430e3" d="M 0 0 
L 0 3.5 
" style="stroke: #000000; stroke-width: 0.8"/>
      </defs>
      <g>
       <use xlink:href="#m12fac430e3" x="73.361886" y="165.861871" style="stroke: #000000; stroke-width: 0.8"/>
      </g>
     </g>
     <g id="text_1">
      <!-- $\mathdefault{1.0}$ -->
      <g transform="translate(63.390125 183.931459)scale(0.16 -0.16)">
       <defs>
        <path id="CMR17-31" d="M 1702 4083 
C 1702 4217 1696 4224 1606 4224 
C 1357 3927 979 3833 621 3820 
C 602 3820 570 3820 563 3808 
C 557 3795 557 3782 557 3648 
C 755 3648 1088 3686 1344 3839 
L 1344 467 
C 1344 243 1331 166 781 166 
L 589 166 
L 589 0 
C 896 6 1216 12 1523 12 
C 1830 12 2150 6 2458 0 
L 2458 166 
L 2266 166 
C 1715 166 1702 236 1702 467 
L 1702 4083 
z
" transform="scale(0.015625)"/>
        <path id="CMMI12-3a" d="M 1178 307 
C 1178 492 1024 620 870 620 
C 685 620 557 467 557 313 
C 557 128 710 0 864 0 
C 1050 0 1178 153 1178 307 
z
" transform="scale(0.015625)"/>
        <path id="CMR17-30" d="M 2688 2038 
C 2688 2430 2682 3099 2413 3613 
C 2176 4063 1798 4224 1466 4224 
C 1158 4224 768 4082 525 3620 
C 269 3137 243 2539 243 2038 
C 243 1671 250 1112 448 623 
C 723 -39 1216 -128 1466 -128 
C 1760 -128 2208 -7 2470 604 
C 2662 1048 2688 1568 2688 2038 
z
M 1466 -26 
C 1056 -26 813 328 723 816 
C 653 1196 653 1749 653 2109 
C 653 2604 653 3015 736 3407 
C 858 3954 1216 4121 1466 4121 
C 1728 4121 2067 3947 2189 3420 
C 2272 3054 2278 2623 2278 2109 
C 2278 1691 2278 1176 2202 797 
C 2067 96 1690 -26 1466 -26 
z
" transform="scale(0.015625)"/>
       </defs>
       <use xlink:href="#CMR17-31" transform="scale(0.996264)"/>
       <use xlink:href="#CMMI12-3a" transform="translate(45.690477 0)scale(0.996264)"/>
       <use xlink:href="#CMR17-30" transform="translate(72.787654 0)scale(0.996264)"/>
      </g>
     </g>
    </g>
    <g id="xtick_2">
     <g id="line2d_2">
      <g>
       <use xlink:href="#m12fac430e3" x="120.497068" y="165.861871" style="stroke: #000000; stroke-width: 0.8"/>
      </g>
     </g>
     <g id="text_2">
      <!-- $\mathdefault{1.5}$ -->
      <g transform="translate(110.525306 183.931459)scale(0.16 -0.16)">
       <defs>
        <path id="CMR17-35" d="M 730 3750 
C 794 3724 1056 3641 1325 3641 
C 1920 3641 2246 3961 2432 4140 
C 2432 4191 2432 4224 2394 4224 
C 2387 4224 2374 4224 2323 4198 
C 2099 4102 1837 4032 1517 4032 
C 1325 4032 1037 4055 723 4191 
C 653 4224 640 4224 634 4224 
C 602 4224 595 4217 595 4090 
L 595 2231 
C 595 2113 595 2080 659 2080 
C 691 2080 704 2093 736 2139 
C 941 2435 1222 2560 1542 2560 
C 1766 2560 2246 2415 2246 1293 
C 2246 1087 2246 716 2054 422 
C 1894 159 1645 25 1370 25 
C 947 25 518 319 403 812 
C 429 806 480 793 506 793 
C 589 793 749 838 749 1036 
C 749 1209 627 1280 506 1280 
C 358 1280 262 1190 262 1011 
C 262 454 704 -128 1382 -128 
C 2042 -128 2669 441 2669 1267 
C 2669 2054 2170 2662 1549 2662 
C 1222 2662 947 2540 730 2304 
L 730 3750 
z
" transform="scale(0.015625)"/>
       </defs>
       <use xlink:href="#CMR17-31" transform="scale(0.996264)"/>
       <use xlink:href="#CMMI12-3a" transform="translate(45.690477 0)scale(0.996264)"/>
       <use xlink:href="#CMR17-35" transform="translate(72.787654 0)scale(0.996264)"/>
      </g>
     </g>
    </g>
    <g id="xtick_3">
     <g id="line2d_3">
      <g>
       <use xlink:href="#m12fac430e3" x="167.632249" y="165.861871" style="stroke: #000000; stroke-width: 0.8"/>
      </g>
     </g>
     <g id="text_3">
      <!-- $\mathdefault{2.0}$ -->
      <g transform="translate(157.660488 183.931459)scale(0.16 -0.16)">
       <defs>
        <path id="CMR17-32" d="M 2669 990 
L 2554 990 
C 2490 537 2438 460 2413 422 
C 2381 371 1920 371 1830 371 
L 602 371 
C 832 620 1280 1073 1824 1596 
C 2214 1966 2669 2400 2669 3033 
C 2669 3788 2067 4224 1395 4224 
C 691 4224 262 3603 262 3027 
C 262 2777 448 2745 525 2745 
C 589 2745 781 2783 781 3007 
C 781 3206 614 3264 525 3264 
C 486 3264 448 3257 422 3244 
C 544 3788 915 4057 1306 4057 
C 1862 4057 2227 3616 2227 3033 
C 2227 2477 1901 1998 1536 1583 
L 262 147 
L 262 0 
L 2515 0 
L 2669 990 
z
" transform="scale(0.015625)"/>
       </defs>
       <use xlink:href="#CMR17-32" transform="scale(0.996264)"/>
       <use xlink:href="#CMMI12-3a" transform="translate(45.690477 0)scale(0.996264)"/>
       <use xlink:href="#CMR17-30" transform="translate(72.787654 0)scale(0.996264)"/>
      </g>
     </g>
    </g>
    <g id="xtick_4">
     <g id="line2d_4">
      <g>
       <use xlink:href="#m12fac430e3" x="214.76743" y="165.861871" style="stroke: #000000; stroke-width: 0.8"/>
      </g>
     </g>
     <g id="text_4">
      <!-- $\mathdefault{2.5}$ -->
      <g transform="translate(204.795669 183.931459)scale(0.16 -0.16)">
       <use xlink:href="#CMR17-32" transform="scale(0.996264)"/>
       <use xlink:href="#CMMI12-3a" transform="translate(45.690477 0)scale(0.996264)"/>
       <use xlink:href="#CMR17-35" transform="translate(72.787654 0)scale(0.996264)"/>
      </g>
     </g>
    </g>
    <g id="xtick_5">
     <g id="line2d_5">
      <g>
       <use xlink:href="#m12fac430e3" x="261.902611" y="165.861871" style="stroke: #000000; stroke-width: 0.8"/>
      </g>
     </g>
     <g id="text_5">
      <!-- $\mathdefault{3.0}$ -->
      <g transform="translate(251.93085 183.931459)scale(0.16 -0.16)">
       <defs>
        <path id="CMR17-33" d="M 1414 2176 
C 1984 2176 2234 1673 2234 1094 
C 2234 322 1824 25 1453 25 
C 1114 25 563 193 390 691 
C 422 678 454 678 486 678 
C 640 678 755 780 755 947 
C 755 1132 614 1216 486 1216 
C 378 1216 211 1164 211 927 
C 211 335 787 -128 1466 -128 
C 2176 -128 2720 432 2720 1087 
C 2720 1718 2208 2176 1600 2246 
C 2086 2347 2554 2776 2554 3353 
C 2554 3856 2048 4224 1472 4224 
C 890 4224 378 3862 378 3347 
C 378 3123 544 3084 627 3084 
C 762 3084 877 3167 877 3334 
C 877 3500 762 3584 627 3584 
C 602 3584 570 3584 544 3571 
C 730 3999 1235 4076 1459 4076 
C 1683 4076 2106 3966 2106 3347 
C 2106 3167 2080 2851 1862 2574 
C 1670 2329 1453 2316 1242 2297 
C 1210 2297 1062 2284 1037 2284 
C 992 2278 966 2272 966 2227 
C 966 2182 973 2176 1101 2176 
L 1414 2176 
z
" transform="scale(0.015625)"/>
       </defs>
       <use xlink:href="#CMR17-33" transform="scale(0.996264)"/>
       <use xlink:href="#CMMI12-3a" transform="translate(45.690477 0)scale(0.996264)"/>
       <use xlink:href="#CMR17-30" transform="translate(72.787654 0)scale(0.996264)"/>
      </g>
     </g>
    </g>
    <g id="xtick_6">
     <g id="line2d_6">
      <g>
       <use xlink:href="#m12fac430e3" x="309.037792" y="165.861871" style="stroke: #000000; stroke-width: 0.8"/>
      </g>
     </g>
     <g id="text_6">
      <!-- $\mathdefault{3.5}$ -->
      <g transform="translate(299.066031 183.931459)scale(0.16 -0.16)">
       <use xlink:href="#CMR17-33" transform="scale(0.996264)"/>
       <use xlink:href="#CMMI12-3a" transform="translate(45.690477 0)scale(0.996264)"/>
       <use xlink:href="#CMR17-35" transform="translate(72.787654 0)scale(0.996264)"/>
      </g>
     </g>
    </g>
    <g id="xtick_7">
     <g id="line2d_7">
      <g>
       <use xlink:href="#m12fac430e3" x="356.172974" y="165.861871" style="stroke: #000000; stroke-width: 0.8"/>
      </g>
     </g>
     <g id="text_7">
      <!-- $\mathdefault{4.0}$ -->
      <g transform="translate(346.201212 183.931459)scale(0.16 -0.16)">
       <defs>
        <path id="CMR17-34" d="M 2150 4147 
C 2150 4281 2144 4288 2029 4288 
L 128 1254 
L 128 1088 
L 1779 1088 
L 1779 460 
C 1779 230 1766 166 1318 166 
L 1197 166 
L 1197 0 
C 1402 12 1747 12 1965 12 
C 2182 12 2528 12 2733 0 
L 2733 166 
L 2611 166 
C 2163 166 2150 230 2150 460 
L 2150 1088 
L 2803 1088 
L 2803 1254 
L 2150 1254 
L 2150 4147 
z
M 1798 3723 
L 1798 1254 
L 256 1254 
L 1798 3723 
z
" transform="scale(0.015625)"/>
       </defs>
       <use xlink:href="#CMR17-34" transform="scale(0.996264)"/>
       <use xlink:href="#CMMI12-3a" transform="translate(45.690477 0)scale(0.996264)"/>
       <use xlink:href="#CMR17-30" transform="translate(72.787654 0)scale(0.996264)"/>
      </g>
     </g>
    </g>
    <g id="xtick_8">
     <g id="line2d_8">
      <g>
       <use xlink:href="#m12fac430e3" x="403.308155" y="165.861871" style="stroke: #000000; stroke-width: 0.8"/>
      </g>
     </g>
     <g id="text_8">
      <!-- $\mathdefault{4.5}$ -->
      <g transform="translate(393.336394 183.931459)scale(0.16 -0.16)">
       <use xlink:href="#CMR17-34" transform="scale(0.996264)"/>
       <use xlink:href="#CMMI12-3a" transform="translate(45.690477 0)scale(0.996264)"/>
       <use xlink:href="#CMR17-35" transform="translate(72.787654 0)scale(0.996264)"/>
      </g>
     </g>
    </g>
    <g id="text_9">
     <!-- Performance Ratio -->
     <g transform="translate(175.052497 202.100524)scale(0.16 -0.16)">
      <defs>
       <path id="CMR17-50" d="M 1267 2048 
L 2291 2048 
C 3117 2048 3718 2583 3718 3187 
C 3718 3791 3130 4352 2291 4352 
L 333 4352 
L 333 4185 
C 774 4185 845 4185 845 3899 
L 845 453 
C 845 166 774 166 333 166 
L 333 0 
C 518 12 858 12 1056 12 
C 1254 12 1594 12 1779 0 
L 1779 166 
C 1338 166 1267 166 1267 453 
L 1267 2048 
z
M 1254 2182 
L 1254 3937 
C 1254 4153 1267 4185 1523 4185 
L 2170 4185 
C 2995 4185 3232 3715 3232 3187 
C 3232 2608 2950 2182 2170 2182 
L 1254 2182 
z
" transform="scale(0.015625)"/>
       <path id="CMR17-65" d="M 2438 1503 
C 2464 1529 2464 1542 2464 1606 
C 2464 2251 2118 2816 1389 2816 
C 710 2816 173 2175 173 1394 
C 173 554 781 -64 1459 -64 
C 2176 -64 2458 619 2458 755 
C 2458 800 2419 800 2406 800 
C 2362 800 2355 787 2330 709 
C 2189 270 1837 51 1504 51 
C 1229 51 954 206 781 490 
C 582 819 582 1200 582 1503 
L 2438 1503 
z
M 589 1600 
C 634 2511 1126 2713 1382 2713 
C 1818 2713 2112 2308 2118 1600 
L 589 1600 
z
" transform="scale(0.015625)"/>
       <path id="CMR17-72" d="M 960 1517 
C 960 2134 1222 2713 1702 2713 
C 1747 2713 1792 2707 1837 2687 
C 1837 2687 1696 2642 1696 2475 
C 1696 2321 1818 2257 1914 2257 
C 1990 2257 2131 2302 2131 2482 
C 2131 2687 1926 2816 1709 2816 
C 1222 2816 1011 2340 947 2115 
L 941 2115 
L 941 2816 
L 198 2745 
L 198 2578 
C 576 2578 634 2540 634 2231 
L 634 443 
C 634 198 608 166 198 166 
L 198 0 
C 352 12 646 12 813 12 
C 998 12 1325 12 1498 0 
L 1498 166 
C 1037 166 960 166 960 455 
L 960 1517 
z
" transform="scale(0.015625)"/>
       <path id="CMR17-66" d="M 979 2585 
L 1709 2585 
L 1709 2752 
L 966 2752 
L 966 3539 
C 966 4076 1235 4377 1510 4377 
C 1594 4377 1690 4363 1754 4339 
C 1702 4326 1568 4281 1568 4121 
C 1568 3955 1696 3904 1786 3904 
C 1875 3904 2003 3955 2003 4121 
C 2003 4353 1773 4480 1517 4480 
C 1152 4480 653 4211 653 3526 
L 653 2752 
L 141 2752 
L 141 2585 
L 653 2585 
L 653 441 
C 653 198 627 166 218 166 
L 218 0 
C 371 12 666 12 832 12 
C 1018 12 1344 12 1517 0 
L 1517 166 
C 1056 166 979 166 979 454 
L 979 2585 
z
" transform="scale(0.015625)"/>
       <path id="CMR17-6f" d="M 2758 1356 
C 2758 2176 2163 2816 1466 2816 
C 768 2816 173 2176 173 1356 
C 173 550 768 -64 1466 -64 
C 2163 -64 2758 550 2758 1356 
z
M 1466 51 
C 1165 51 909 230 762 480 
C 602 768 582 1126 582 1408 
C 582 1676 595 2009 762 2297 
C 890 2508 1139 2713 1466 2713 
C 1754 2713 1997 2553 2150 2329 
C 2349 2028 2349 1606 2349 1408 
C 2349 1158 2336 774 2163 467 
C 1984 172 1709 51 1466 51 
z
" transform="scale(0.015625)"/>
       <path id="CMR17-6d" d="M 4326 1954 
C 4326 2276 4269 2816 3507 2816 
C 3072 2816 2771 2520 2656 2173 
L 2650 2173 
C 2573 2700 2195 2816 1837 2816 
C 1331 2816 1069 2424 973 2166 
L 966 2166 
L 966 2816 
L 211 2745 
L 211 2578 
C 589 2578 646 2540 646 2231 
L 646 443 
C 646 198 621 166 211 166 
L 211 0 
C 365 12 646 12 813 12 
C 979 12 1267 12 1421 0 
L 1421 166 
C 1011 166 986 192 986 443 
L 986 1678 
C 986 2269 1344 2713 1792 2713 
C 2266 2713 2317 2289 2317 1980 
L 2317 443 
C 2317 198 2291 166 1882 166 
L 1882 0 
C 2035 12 2317 12 2483 12 
C 2650 12 2938 12 3091 0 
L 3091 166 
C 2682 166 2656 192 2656 443 
L 2656 1678 
C 2656 2269 3014 2713 3462 2713 
C 3936 2713 3987 2289 3987 1980 
L 3987 443 
C 3987 198 3962 166 3552 166 
L 3552 0 
C 3706 12 3987 12 4154 12 
C 4320 12 4608 12 4762 0 
L 4762 166 
C 4352 166 4326 192 4326 443 
L 4326 1954 
z
" transform="scale(0.015625)"/>
       <path id="CMR17-61" d="M 2304 1656 
C 2304 2048 2304 2275 2035 2534 
C 1798 2751 1523 2816 1306 2816 
C 800 2816 435 2408 435 1977 
C 435 1740 627 1728 666 1728 
C 749 1728 896 1779 896 1958 
C 896 2118 774 2188 666 2188 
C 640 2188 608 2182 589 2176 
C 723 2594 1069 2713 1293 2713 
C 1613 2713 1965 2421 1965 1875 
L 1965 1632 
C 1587 1619 1133 1568 774 1373 
C 371 1147 256 822 256 576 
C 256 77 832 -64 1171 -64 
C 1523 -64 1850 135 1990 505 
C 2003 219 2182 -39 2464 -39 
C 2598 -39 2938 51 2938 563 
L 2938 926 
L 2822 926 
L 2822 557 
C 2822 161 2650 109 2566 109 
C 2304 109 2304 446 2304 732 
L 2304 1656 
z
M 1965 887 
C 1965 323 1568 38 1216 38 
C 896 38 646 278 646 576 
C 646 771 730 1114 1101 1322 
C 1408 1497 1760 1523 1965 1536 
L 1965 887 
z
" transform="scale(0.015625)"/>
       <path id="CMR17-6e" d="M 2656 1954 
C 2656 2282 2592 2816 1837 2816 
C 1331 2816 1069 2424 973 2166 
L 966 2166 
L 966 2816 
L 211 2745 
L 211 2578 
C 589 2578 646 2540 646 2231 
L 646 443 
C 646 198 621 166 211 166 
L 211 0 
C 365 12 646 12 813 12 
C 979 12 1267 12 1421 0 
L 1421 166 
C 1011 166 986 192 986 443 
L 986 1678 
C 986 2269 1344 2713 1792 2713 
C 2266 2713 2317 2289 2317 1980 
L 2317 443 
C 2317 198 2291 166 1882 166 
L 1882 0 
C 2035 12 2317 12 2483 12 
C 2650 12 2938 12 3091 0 
L 3091 166 
C 2682 166 2656 192 2656 443 
L 2656 1954 
z
" transform="scale(0.015625)"/>
       <path id="CMR17-63" d="M 2234 2240 
C 2112 2240 1933 2240 1933 2015 
C 1933 1836 2080 1785 2163 1785 
C 2208 1785 2394 1804 2394 2028 
C 2394 2476 1958 2816 1466 2816 
C 787 2816 211 2201 211 1379 
C 211 521 813 -64 1466 -64 
C 2259 -64 2458 676 2458 747 
C 2458 773 2451 792 2406 792 
C 2362 792 2355 786 2330 702 
C 2163 180 1798 51 1523 51 
C 1114 51 621 431 621 1385 
C 621 2358 1094 2700 1472 2700 
C 1722 2700 2093 2582 2234 2240 
z
" transform="scale(0.015625)"/>
       <path id="CMR17-52" d="M 2509 2156 
C 3117 2278 3629 2689 3629 3203 
C 3629 3806 2950 4352 2054 4352 
L 333 4352 
L 333 4185 
C 774 4185 845 4185 845 3896 
L 845 428 
C 845 140 774 140 333 140 
L 333 -26 
C 518 -13 851 -13 1050 -13 
C 1248 -13 1581 -13 1766 -26 
L 1766 140 
C 1325 140 1254 140 1254 428 
L 1254 2112 
L 2003 2112 
C 2368 2112 2573 1964 2662 1881 
C 2918 1632 2918 1459 2918 1024 
C 2918 595 2918 377 3110 160 
C 3354 -103 3680 -128 3821 -128 
C 4294 -128 4365 403 4365 512 
C 4365 550 4365 595 4307 595 
C 4256 595 4250 556 4250 531 
C 4218 115 4032 -26 3834 -26 
C 3482 -26 3443 377 3405 768 
C 3386 902 3373 998 3360 1139 
C 3322 1459 3270 1926 2509 2156 
z
M 1984 2214 
L 1254 2214 
L 1254 3935 
C 1254 4153 1267 4185 1523 4185 
L 1990 4185 
C 2522 4185 3142 3999 3142 3203 
C 3142 2374 2464 2214 1984 2214 
z
" transform="scale(0.015625)"/>
       <path id="CMR17-74" d="M 966 2585 
L 1862 2585 
L 1862 2752 
L 966 2752 
L 966 3968 
L 851 3968 
C 838 3292 614 2700 70 2687 
L 70 2585 
L 627 2585 
L 627 778 
C 627 655 627 -64 1370 -64 
C 1747 -64 1965 308 1965 784 
L 1965 1151 
L 1850 1151 
L 1850 790 
C 1850 347 1677 51 1408 51 
C 1222 51 966 179 966 765 
L 966 2585 
z
" transform="scale(0.015625)"/>
       <path id="CMR17-69" d="M 992 3961 
C 992 4102 877 4224 730 4224 
C 589 4224 467 4108 467 3961 
C 467 3820 582 3699 730 3699 
C 870 3699 992 3814 992 3961 
z
M 243 2745 
L 243 2579 
C 602 2579 653 2540 653 2231 
L 653 443 
C 653 198 627 166 218 166 
L 218 0 
C 371 12 646 12 806 12 
C 960 12 1222 12 1370 0 
L 1370 166 
C 992 166 979 205 979 436 
L 979 2816 
L 243 2745 
z
" transform="scale(0.015625)"/>
      </defs>
      <use xlink:href="#CMR17-50" transform="scale(0.996264)"/>
      <use xlink:href="#CMR17-65" transform="translate(59.983847 0)scale(0.996264)"/>
      <use xlink:href="#CMR17-72" transform="translate(100.469507 0)scale(0.996264)"/>
      <use xlink:href="#CMR17-66" transform="translate(135.750275 0)scale(0.996264)"/>
      <use xlink:href="#CMR17-6f" transform="translate(163.223787 0)scale(0.996264)"/>
      <use xlink:href="#CMR17-72" transform="translate(208.914264 0)scale(0.996264)"/>
      <use xlink:href="#CMR17-6d" transform="translate(244.195032 0)scale(0.996264)"/>
      <use xlink:href="#CMR17-61" transform="translate(321.114622 0)scale(0.996264)"/>
      <use xlink:href="#CMR17-6e" transform="translate(366.805099 0)scale(0.996264)"/>
      <use xlink:href="#CMR17-63" transform="translate(417.700469 0)scale(0.996264)"/>
      <use xlink:href="#CMR17-65" transform="translate(458.186129 0)scale(0.996264)"/>
      <use xlink:href="#CMR17-52" transform="translate(528.747756 0)scale(0.996264)"/>
      <use xlink:href="#CMR17-61" transform="translate(596.538858 0)scale(0.996264)"/>
      <use xlink:href="#CMR17-74" transform="translate(642.229335 0)scale(0.996264)"/>
      <use xlink:href="#CMR17-69" transform="translate(677.510103 0)scale(0.996264)"/>
      <use xlink:href="#CMR17-6f" transform="translate(702.381162 0)scale(0.996264)"/>
     </g>
    </g>
   </g>
   <g id="matplotlib.axis_2">
    <g id="ytick_1">
     <g id="line2d_9">
      <defs>
       <path id="m382897bdde" d="M 0 0 
L -3.5 0 
" style="stroke: #000000; stroke-width: 0.8"/>
      </defs>
      <g>
       <use xlink:href="#m382897bdde" x="56.798167" y="158.813604" style="stroke: #000000; stroke-width: 0.8"/>
      </g>
     </g>
     <g id="text_10">
      <!-- $\mathdefault{0.0}$ -->
      <g transform="translate(29.854644 164.348398)scale(0.16 -0.16)">
       <use xlink:href="#CMR17-30" transform="scale(0.996264)"/>
       <use xlink:href="#CMMI12-3a" transform="translate(45.690477 0)scale(0.996264)"/>
       <use xlink:href="#CMR17-30" transform="translate(72.787654 0)scale(0.996264)"/>
      </g>
     </g>
    </g>
    <g id="ytick_2">
     <g id="line2d_10">
      <g>
       <use xlink:href="#m382897bdde" x="56.798167" y="130.620537" style="stroke: #000000; stroke-width: 0.8"/>
      </g>
     </g>
     <g id="text_11">
      <!-- $\mathdefault{0.2}$ -->
      <g transform="translate(29.854644 136.155331)scale(0.16 -0.16)">
       <use xlink:href="#CMR17-30" transform="scale(0.996264)"/>
       <use xlink:href="#CMMI12-3a" transform="translate(45.690477 0)scale(0.996264)"/>
       <use xlink:href="#CMR17-32" transform="translate(72.787654 0)scale(0.996264)"/>
      </g>
     </g>
    </g>
    <g id="ytick_3">
     <g id="line2d_11">
      <g>
       <use xlink:href="#m382897bdde" x="56.798167" y="102.427469" style="stroke: #000000; stroke-width: 0.8"/>
      </g>
     </g>
     <g id="text_12">
      <!-- $\mathdefault{0.4}$ -->
      <g transform="translate(29.854644 107.962263)scale(0.16 -0.16)">
       <use xlink:href="#CMR17-30" transform="scale(0.996264)"/>
       <use xlink:href="#CMMI12-3a" transform="translate(45.690477 0)scale(0.996264)"/>
       <use xlink:href="#CMR17-34" transform="translate(72.787654 0)scale(0.996264)"/>
      </g>
     </g>
    </g>
    <g id="ytick_4">
     <g id="line2d_12">
      <g>
       <use xlink:href="#m382897bdde" x="56.798167" y="74.234402" style="stroke: #000000; stroke-width: 0.8"/>
      </g>
     </g>
     <g id="text_13">
      <!-- $\mathdefault{0.6}$ -->
      <g transform="translate(29.854644 79.769196)scale(0.16 -0.16)">
       <defs>
        <path id="CMR17-36" d="M 678 2198 
C 678 3712 1395 4076 1811 4076 
C 1946 4076 2272 4049 2400 3782 
C 2298 3782 2106 3782 2106 3558 
C 2106 3385 2246 3328 2336 3328 
C 2394 3328 2566 3353 2566 3571 
C 2566 3987 2246 4224 1805 4224 
C 1043 4224 243 3411 243 2011 
C 243 257 966 -128 1478 -128 
C 2099 -128 2688 431 2688 1295 
C 2688 2101 2170 2688 1517 2688 
C 1126 2688 838 2430 678 1979 
L 678 2198 
z
M 1478 25 
C 691 25 691 1212 691 1450 
C 691 1914 909 2585 1504 2585 
C 1613 2585 1926 2585 2138 2140 
C 2253 1889 2253 1624 2253 1302 
C 2253 954 2253 696 2118 438 
C 1978 173 1773 25 1478 25 
z
" transform="scale(0.015625)"/>
       </defs>
       <use xlink:href="#CMR17-30" transform="scale(0.996264)"/>
       <use xlink:href="#CMMI12-3a" transform="translate(45.690477 0)scale(0.996264)"/>
       <use xlink:href="#CMR17-36" transform="translate(72.787654 0)scale(0.996264)"/>
      </g>
     </g>
    </g>
    <g id="ytick_5">
     <g id="line2d_13">
      <g>
       <use xlink:href="#m382897bdde" x="56.798167" y="46.041334" style="stroke: #000000; stroke-width: 0.8"/>
      </g>
     </g>
     <g id="text_14">
      <!-- $\mathdefault{0.8}$ -->
      <g transform="translate(29.854644 51.576128)scale(0.16 -0.16)">
       <defs>
        <path id="CMR17-38" d="M 1741 2289 
C 2144 2494 2554 2803 2554 3298 
C 2554 3884 1990 4224 1472 4224 
C 890 4224 378 3800 378 3215 
C 378 3054 416 2777 666 2533 
C 730 2469 998 2276 1171 2154 
C 883 2006 211 1652 211 945 
C 211 282 838 -128 1459 -128 
C 2144 -128 2720 366 2720 1022 
C 2720 1607 2330 1877 2074 2051 
L 1741 2289 
z
M 902 2855 
C 851 2887 595 3086 595 3388 
C 595 3781 998 4076 1459 4076 
C 1965 4076 2336 3716 2336 3298 
C 2336 2700 1670 2359 1638 2359 
C 1632 2359 1626 2359 1574 2398 
L 902 2855 
z
M 2080 1536 
C 2176 1466 2483 1253 2483 861 
C 2483 385 2010 25 1472 25 
C 890 25 448 443 448 951 
C 448 1459 838 1884 1280 2083 
L 2080 1536 
z
" transform="scale(0.015625)"/>
       </defs>
       <use xlink:href="#CMR17-30" transform="scale(0.996264)"/>
       <use xlink:href="#CMMI12-3a" transform="translate(45.690477 0)scale(0.996264)"/>
       <use xlink:href="#CMR17-38" transform="translate(72.787654 0)scale(0.996264)"/>
      </g>
     </g>
    </g>
    <g id="ytick_6">
     <g id="line2d_14">
      <g>
       <use xlink:href="#m382897bdde" x="56.798167" y="17.848267" style="stroke: #000000; stroke-width: 0.8"/>
      </g>
     </g>
     <g id="text_15">
      <!-- $\mathdefault{1.0}$ -->
      <g transform="translate(29.854644 23.383061)scale(0.16 -0.16)">
       <use xlink:href="#CMR17-31" transform="scale(0.996264)"/>
       <use xlink:href="#CMMI12-3a" transform="translate(45.690477 0)scale(0.996264)"/>
       <use xlink:href="#CMR17-30" transform="translate(72.787654 0)scale(0.996264)"/>
      </g>
     </g>
    </g>
    <g id="text_16">
     <!-- \% of Experiments -->
     <g transform="translate(22.755168 149.178981)rotate(-90)scale(0.16 -0.16)">
      <defs>
       <path id="CMR17-25" d="M 4640 928 
C 4640 1670 4275 2214 3846 2214 
C 3411 2214 2970 1708 2970 928 
C 2970 147 3405 -359 3846 -359 
C 4275 -359 4640 179 4640 928 
z
M 3853 -256 
C 3686 -256 3270 -103 3270 928 
C 3270 1964 3686 2112 3853 2112 
C 4205 2112 4525 1606 4525 928 
C 4525 249 4205 -256 3853 -256 
z
M 4083 4572 
C 4128 4644 4134 4651 4134 4684 
C 4134 4761 4077 4800 4026 4800 
C 3962 4800 3936 4755 3891 4703 
C 3520 4155 3008 4096 2746 4096 
C 2106 4096 1715 4479 1594 4598 
C 1510 4677 1389 4800 1171 4800 
C 736 4800 294 4281 294 3496 
C 294 2718 730 2214 1171 2214 
C 1600 2214 1965 2750 1965 3496 
C 1965 3936 1830 4241 1811 4281 
C 2202 4025 2586 3993 2752 3993 
C 3162 3993 3456 4148 3616 4261 
L 3622 4254 
L 858 -122 
C 800 -212 800 -224 800 -244 
C 800 -314 858 -359 915 -359 
C 973 -359 992 -327 1037 -256 
L 4083 4572 
z
M 1178 2316 
C 1011 2316 595 2469 595 3496 
C 595 4545 1011 4697 1178 4697 
C 1530 4697 1850 4175 1850 3496 
C 1850 2820 1530 2316 1178 2316 
z
" transform="scale(0.015625)"/>
       <path id="CMR17-45" d="M 3885 1614 
L 3770 1614 
C 3629 676 3546 166 2419 166 
L 1530 166 
C 1274 166 1261 198 1261 415 
L 1261 2176 
L 1862 2176 
C 2464 2176 2522 1959 2522 1429 
L 2637 1429 
L 2637 3086 
L 2522 3086 
C 2522 2558 2464 2342 1862 2342 
L 1261 2342 
L 1261 3924 
C 1261 4141 1274 4172 1530 4172 
L 2406 4172 
C 3398 4172 3514 3778 3603 2933 
L 3718 2933 
L 3565 4339 
L 326 4339 
L 326 4172 
C 768 4172 838 4172 838 3886 
L 838 453 
C 838 166 768 166 326 166 
L 326 0 
L 3654 0 
L 3885 1614 
z
" transform="scale(0.015625)"/>
       <path id="CMR17-78" d="M 1664 1491 
C 1856 1740 2074 2022 2253 2233 
C 2464 2476 2707 2579 2989 2585 
L 2989 2752 
C 2880 2745 2656 2739 2541 2739 
C 2368 2739 2170 2739 2022 2752 
L 2022 2585 
C 2112 2572 2163 2508 2163 2419 
C 2163 2304 2099 2233 2067 2188 
L 1594 1587 
L 1030 2323 
C 973 2393 973 2406 973 2438 
C 973 2515 1037 2579 1146 2585 
L 1146 2752 
C 992 2739 717 2739 557 2739 
C 384 2739 179 2739 38 2752 
L 38 2585 
C 384 2585 461 2560 614 2368 
L 1350 1414 
C 1363 1401 1395 1363 1395 1344 
C 1395 1318 838 633 768 544 
C 480 198 179 172 6 166 
L 6 0 
C 115 6 339 12 454 12 
C 582 12 864 12 979 0 
L 979 166 
C 941 172 838 185 838 332 
C 838 448 890 518 947 595 
L 1478 1248 
L 2035 524 
C 2086 454 2163 358 2163 313 
C 2163 224 2086 172 1984 166 
L 1984 0 
C 2138 12 2413 12 2573 12 
C 2746 12 2950 12 3091 0 
L 3091 166 
C 2771 166 2675 179 2522 377 
L 1664 1491 
z
" transform="scale(0.015625)"/>
       <path id="CMR17-70" d="M 1408 -1114 
C 998 -1114 973 -1088 973 -834 
L 973 380 
C 1158 109 1427 -64 1766 -64 
C 2406 -64 3053 503 3053 1382 
C 3053 2196 2496 2816 1837 2816 
C 1453 2816 1139 2603 960 2345 
L 960 2816 
L 198 2745 
L 198 2577 
C 576 2577 634 2539 634 2228 
L 634 -834 
C 634 -1081 608 -1114 198 -1114 
L 198 -1280 
C 352 -1268 634 -1268 800 -1268 
C 966 -1268 1254 -1268 1408 -1280 
L 1408 -1114 
z
M 973 2015 
C 973 2106 973 2241 1222 2481 
C 1254 2506 1472 2700 1792 2700 
C 2259 2700 2643 2112 2643 1376 
C 2643 639 2234 38 1728 38 
C 1498 38 1248 148 1056 451 
C 973 594 973 632 973 736 
L 973 2015 
z
" transform="scale(0.015625)"/>
       <path id="CMR17-73" d="M 1978 2688 
C 1978 2803 1971 2809 1933 2809 
C 1907 2809 1901 2803 1824 2707 
C 1805 2681 1747 2617 1728 2592 
C 1523 2809 1235 2816 1126 2816 
C 416 2816 160 2444 160 2073 
C 160 1497 813 1363 998 1324 
C 1402 1241 1542 1216 1677 1100 
C 1760 1024 1901 883 1901 652 
C 1901 384 1747 38 1158 38 
C 602 38 403 460 288 1024 
C 269 1113 269 1120 218 1120 
C 166 1120 160 1113 160 985 
L 160 64 
C 160 -52 166 -58 205 -58 
C 237 -58 243 -52 275 0 
C 314 57 410 211 448 275 
C 576 102 800 -64 1158 -64 
C 1792 -64 2131 281 2131 780 
C 2131 1107 1958 1280 1875 1356 
C 1683 1555 1459 1600 1190 1651 
C 838 1728 390 1817 390 2208 
C 390 2374 480 2726 1126 2726 
C 1811 2726 1850 2086 1862 1881 
C 1869 1849 1901 1843 1920 1843 
C 1978 1843 1978 1862 1978 1971 
L 1978 2688 
z
" transform="scale(0.015625)"/>
      </defs>
      <use xlink:href="#CMR17-25" transform="scale(0.996264)"/>
      <use xlink:href="#CMR17-6f" transform="translate(106.995556 0)scale(0.996264)"/>
      <use xlink:href="#CMR17-66" transform="translate(152.686033 0)scale(0.996264)"/>
      <use xlink:href="#CMR17-45" transform="translate(210.235512 0)scale(0.996264)"/>
      <use xlink:href="#CMR17-78" transform="translate(272.821813 0)scale(0.996264)"/>
      <use xlink:href="#CMR17-70" transform="translate(321.114728 0)scale(0.996264)"/>
      <use xlink:href="#CMR17-65" transform="translate(374.612537 0)scale(0.996264)"/>
      <use xlink:href="#CMR17-72" transform="translate(415.098197 0)scale(0.996264)"/>
      <use xlink:href="#CMR17-69" transform="translate(450.378965 0)scale(0.996264)"/>
      <use xlink:href="#CMR17-6d" transform="translate(475.250024 0)scale(0.996264)"/>
      <use xlink:href="#CMR17-65" transform="translate(552.169614 0)scale(0.996264)"/>
      <use xlink:href="#CMR17-6e" transform="translate(592.655274 0)scale(0.996264)"/>
      <use xlink:href="#CMR17-74" transform="translate(640.94819 0)scale(0.996264)"/>
      <use xlink:href="#CMR17-73" transform="translate(676.228958 0)scale(0.996264)"/>
     </g>
    </g>
   </g>
   <g id="line2d_15">
    <path d="M 73.361886 158.813604 
L 73.468635 151.823587 
L 74.560525 148.91108 
L 74.86262 148.328579 
L 75.04735 146.581075 
L 75.235913 145.416072 
L 75.566352 144.833571 
L 76.624331 144.251069 
L 76.69082 143.668568 
L 77.159477 142.503565 
L 79.154853 141.921064 
L 80.451522 140.756061 
L 80.541331 140.17356 
L 81.182525 139.591058 
L 82.548973 139.008557 
L 83.614429 138.426055 
L 84.407374 137.843554 
L 84.978775 137.261053 
L 84.993793 136.678551 
L 85.36227 136.09605 
L 85.738139 134.931047 
L 86.119411 134.348546 
L 86.249352 133.766044 
L 86.773065 133.183543 
L 87.341894 132.01854 
L 89.151028 129.688534 
L 89.190425 129.106033 
L 89.946907 127.358529 
L 90.765983 126.193526 
L 91.654112 125.611025 
L 92.798643 124.446022 
L 92.951414 123.863521 
L 93.459341 122.698518 
L 94.658077 122.116016 
L 94.837018 121.533515 
L 96.790698 120.368512 
L 97.501551 119.786011 
L 97.758563 119.203509 
L 98.622003 118.621008 
L 100.073355 118.038507 
L 100.643684 117.456005 
L 100.661942 116.873504 
L 101.950396 116.291002 
L 107.339856 115.708501 
L 109.466438 115.126 
L 110.029126 114.543498 
L 114.30007 113.960997 
L 115.315078 113.378495 
L 116.033816 112.795994 
L 117.93694 112.213493 
L 118.074454 111.630991 
L 118.556953 111.04849 
L 119.58197 110.465988 
L 121.061783 109.883487 
L 121.52126 109.300986 
L 122.887849 108.135983 
L 124.833777 106.97098 
L 124.967607 106.388479 
L 125.441587 105.805977 
L 125.572441 105.223476 
L 126.049939 104.640975 
L 126.10671 104.058473 
L 126.292279 103.475972 
L 127.431377 102.89347 
L 128.86816 101.728468 
L 128.984186 101.145966 
L 129.308688 100.563465 
L 129.501358 99.980963 
L 130.97578 97.068456 
L 132.816101 96.485955 
L 133.048933 95.903454 
L 133.680879 95.320952 
L 134.002362 94.738451 
L 134.313301 93.573448 
L 134.782845 92.990947 
L 135.086098 91.825944 
L 135.17885 91.243442 
L 135.789089 90.660941 
L 135.907509 88.913437 
L 136.179064 87.748434 
L 136.18463 87.165933 
L 136.485669 86.583431 
L 136.647106 85.418429 
L 136.917531 84.835927 
L 137.403617 84.253426 
L 137.501531 83.670924 
L 137.871336 83.088423 
L 138.297043 81.92342 
L 138.748402 81.340919 
L 138.938703 80.175916 
L 139.872192 79.593415 
L 139.87832 79.010913 
L 142.284026 78.428412 
L 142.495347 77.84591 
L 143.070772 77.263409 
L 143.228712 76.098406 
L 143.453946 75.515905 
L 144.843516 74.350902 
L 145.131494 73.768401 
L 145.295322 73.185899 
L 145.889949 72.020896 
L 146.715447 70.855894 
L 146.820136 70.273392 
L 147.348706 69.10839 
L 148.031925 68.525888 
L 148.287029 66.195883 
L 148.495367 65.613381 
L 149.192279 65.03088 
L 149.295606 63.865877 
L 149.811799 62.700874 
L 150.042401 62.118373 
L 150.099459 61.535871 
L 150.415775 60.95337 
L 151.795507 60.370869 
L 151.969025 58.623364 
L 152.667442 57.458362 
L 152.669358 56.87586 
L 153.015631 55.710857 
L 153.841056 55.128356 
L 154.144656 54.545855 
L 154.265059 53.380852 
L 154.474547 52.79835 
L 154.475879 52.215849 
L 154.897157 51.633348 
L 154.926188 51.050846 
L 155.449568 50.468345 
L 156.233541 49.885844 
L 156.384345 49.303342 
L 156.993186 48.720841 
L 157.425416 48.138339 
L 158.162801 46.390835 
L 158.455178 45.225832 
L 158.77151 44.643331 
L 158.886378 44.06083 
L 159.121699 43.478328 
L 159.123362 42.895827 
L 159.304302 42.313325 
L 159.991186 41.730824 
L 161.175921 41.148323 
L 161.499337 40.565821 
L 162.320585 39.98332 
L 163.074187 38.818317 
L 163.154818 38.235816 
L 163.399166 37.653314 
L 164.08284 37.070813 
L 164.594689 36.488311 
L 164.831031 35.90581 
L 165.457551 35.323309 
L 165.876592 34.158306 
L 166.836221 32.993303 
L 168.078399 32.410802 
L 168.194438 31.8283 
L 169.579005 31.245799 
L 171.879388 30.663298 
L 172.196063 30.080796 
L 173.158786 29.498295 
L 173.185827 28.915793 
L 173.979893 27.750791 
L 177.666282 27.168289 
L 177.878721 26.585788 
L 179.359386 26.003286 
L 180.299726 24.838284 
L 183.643081 23.673281 
L 184.25646 23.090779 
L 186.698092 22.508278 
L 188.374287 21.925777 
L 189.498337 20.760774 
L 194.404175 20.178272 
L 206.586196 19.595771 
L 210.351518 19.01327 
L 211.620608 18.430768 
L 220.524277 17.848267 
L 220.524277 17.848267 
" clip-path="url(#p0776f5717e)" style="fill: none; stroke: #1f77b4; stroke-width: 1.5; stroke-linecap: square"/>
   </g>
   <g id="line2d_16">
    <path d="M 73.361886 158.813604 
L 73.405974 150.076083 
L 73.535349 148.91108 
L 73.757699 147.163576 
L 74.416072 144.251069 
L 74.851443 143.668568 
L 75.329429 141.338562 
L 77.063778 136.678551 
L 77.603838 136.09605 
L 77.909508 134.931047 
L 78.446817 134.348546 
L 78.780446 133.766044 
L 78.931508 133.183543 
L 79.198225 132.601041 
L 79.606021 132.01854 
L 79.68927 130.853537 
L 80.127684 129.106033 
L 80.203191 128.523532 
L 80.980412 127.94103 
L 81.105591 126.776027 
L 81.564794 126.193526 
L 81.836484 125.611025 
L 81.917843 125.028523 
L 82.933004 122.698518 
L 83.439861 122.116016 
L 83.713655 121.533515 
L 83.853951 120.368512 
L 84.390824 119.203509 
L 85.105109 113.960997 
L 85.69923 111.630991 
L 85.866792 111.04849 
L 85.913044 110.465988 
L 86.192148 109.883487 
L 86.248803 108.718484 
L 86.891134 106.97098 
L 87.034603 105.805977 
L 87.30317 105.223476 
L 88.770377 104.640975 
L 88.788177 103.475972 
L 88.890984 102.89347 
L 89.427944 102.310969 
L 89.950057 101.145966 
L 90.232349 100.563465 
L 90.246547 99.980963 
L 90.454177 99.398462 
L 90.966197 98.815961 
L 91.264121 97.068456 
L 91.411607 96.485955 
L 91.424927 95.903454 
L 91.797999 95.320952 
L 92.303812 93.573448 
L 92.410014 92.990947 
L 92.675044 92.408445 
L 93.778319 91.243442 
L 93.955181 90.660941 
L 94.411251 90.07844 
L 94.65353 89.495938 
L 95.511106 88.913437 
L 95.726449 88.330936 
L 95.8193 87.748434 
L 96.261624 87.165933 
L 96.364384 86.00093 
L 96.635424 84.835927 
L 97.165106 84.253426 
L 98.884873 83.670924 
L 99.251117 83.088423 
L 99.310798 82.505922 
L 100.282724 81.92342 
L 100.738106 81.340919 
L 101.308229 80.175916 
L 101.493795 79.593415 
L 102.580998 79.010913 
L 102.742891 77.84591 
L 103.824212 76.680908 
L 105.56176 76.098406 
L 106.124426 75.515905 
L 107.004767 74.350902 
L 107.955111 73.768401 
L 108.082555 73.185899 
L 108.975627 72.603398 
L 109.639685 72.020896 
L 109.669699 71.438395 
L 110.045341 70.855894 
L 112.381427 70.273392 
L 117.087948 69.690891 
L 117.467576 69.10839 
L 119.345222 67.943387 
L 120.904427 67.360885 
L 121.602063 66.778384 
L 122.697887 66.195883 
L 123.069435 65.613381 
L 125.201618 65.03088 
L 125.833109 64.448378 
L 126.923408 63.865877 
L 127.118456 62.700874 
L 127.255013 62.118373 
L 130.547071 60.95337 
L 130.826344 60.370869 
L 131.573132 59.788367 
L 132.505179 59.205866 
L 132.627452 58.040863 
L 134.543832 57.458362 
L 134.877474 56.87586 
L 135.252929 55.710857 
L 136.068335 55.128356 
L 138.155729 54.545855 
L 138.307773 53.963353 
L 140.2944 53.380852 
L 141.075663 52.79835 
L 143.575851 51.633348 
L 145.084975 51.050846 
L 147.360362 49.885844 
L 154.448417 49.303342 
L 155.015198 48.720841 
L 157.935711 48.138339 
L 158.105795 47.555838 
L 160.639059 46.973337 
L 169.646508 45.808334 
L 169.845913 45.225832 
L 175.135516 44.643331 
L 175.298491 43.478328 
L 175.592868 42.895827 
L 176.365771 42.313325 
L 177.556216 41.730824 
L 178.492378 41.148323 
L 180.455154 40.565821 
L 184.795941 39.98332 
L 193.912097 39.400818 
L 205.264779 38.818317 
L 208.159644 38.235816 
L 229.158216 37.653314 
L 230.653462 37.070813 
L 231.491821 36.488311 
L 235.258956 35.90581 
L 237.851536 35.323309 
L 238.747245 34.740807 
L 244.77768 34.158306 
L 247.292158 33.575804 
L 258.461603 32.993303 
L 264.090192 32.410802 
L 267.10476 31.8283 
L 301.946486 31.245799 
L 302.223263 30.663298 
L 309.731228 30.080796 
L 324.504477 29.498295 
L 326.868644 28.915793 
L 328.387854 28.333292 
L 336.879785 27.750791 
L 336.97709 27.168289 
L 337.543279 26.585788 
L 341.767054 26.003286 
L 347.207657 25.420785 
L 350.962895 24.838284 
L 351.603775 24.255782 
L 351.968605 23.673281 
L 357.425455 23.090779 
L 358.957468 22.508278 
L 361.783279 21.925777 
L 371.972366 21.343275 
L 373.782526 20.760774 
L 376.982379 20.178272 
L 378.291619 19.595771 
L 382.159523 19.01327 
L 404.63628 17.848267 
L 404.63628 17.848267 
" clip-path="url(#p0776f5717e)" style="fill: none; stroke: #ff7f0e; stroke-width: 1.5; stroke-linecap: square"/>
   </g>
   <g id="line2d_17">
    <path d="M 73.361886 158.813604 
L 73.471771 27.750791 
L 73.502131 27.168289 
L 73.974575 26.585788 
L 73.979283 26.003286 
L 74.223707 25.420785 
L 74.277309 24.255782 
L 74.536965 22.508278 
L 75.084766 21.925777 
L 75.40298 21.343275 
L 76.156117 20.760774 
L 77.008732 19.595771 
L 77.252824 18.430768 
L 77.94663 17.848267 
L 77.94663 17.848267 
" clip-path="url(#p0776f5717e)" style="fill: none; stroke: #2ca02c; stroke-width: 1.5; stroke-linecap: square"/>
   </g>
   <g id="patch_3">
    <path d="M 56.798167 165.861871 
L 56.798167 10.8 
" style="fill: none; stroke: #000000; stroke-width: 0.8; stroke-linejoin: miter; stroke-linecap: square"/>
   </g>
   <g id="patch_4">
    <path d="M 421.2 165.861871 
L 421.2 10.8 
" style="fill: none; stroke: #000000; stroke-width: 0.8; stroke-linejoin: miter; stroke-linecap: square"/>
   </g>
   <g id="patch_5">
    <path d="M 56.798167 165.861871 
L 421.2 165.861871 
" style="fill: none; stroke: #000000; stroke-width: 0.8; stroke-linejoin: miter; stroke-linecap: square"/>
   </g>
   <g id="patch_6">
    <path d="M 56.798167 10.8 
L 421.2 10.8 
" style="fill: none; stroke: #000000; stroke-width: 0.8; stroke-linejoin: miter; stroke-linecap: square"/>
   </g>
   <g id="legend_1">
    <g id="patch_7">
     <path d="M 311.559063 157.861871 
L 410 157.861871 
Q 413.2 157.861871 413.2 154.661871 
L 413.2 89.363442 
Q 413.2 86.163442 410 86.163442 
L 311.559063 86.163442 
Q 308.359063 86.163442 308.359063 89.363442 
L 308.359063 154.661871 
Q 308.359063 157.861871 311.559063 157.861871 
z
" style="fill: #ffffff; opacity: 0.8; stroke: #cccccc; stroke-linejoin: miter"/>
    </g>
    <g id="line2d_18">
     <path d="M 314.759063 98.163442 
L 330.759063 98.163442 
L 346.759063 98.163442 
" style="fill: none; stroke: #1f77b4; stroke-width: 1.5; stroke-linecap: square"/>
    </g>
    <g id="text_17">
     <!-- PADM -->
     <g transform="translate(359.559063 103.763442)scale(0.16 -0.16)">
      <defs>
       <path id="CMR17-41" d="M 2323 4441 
C 2291 4524 2278 4544 2214 4544 
C 2150 4544 2138 4524 2106 4441 
L 749 580 
C 627 236 371 166 147 166 
L 147 0 
C 262 12 518 12 640 12 
C 800 12 1056 12 1210 0 
L 1210 166 
C 909 179 864 382 864 459 
C 864 516 877 548 890 586 
L 1229 1536 
L 2906 1536 
L 3290 453 
C 3322 376 3322 363 3322 338 
C 3322 166 3046 166 2925 166 
L 2925 0 
C 3110 12 3443 12 3642 12 
C 3808 12 4128 12 4282 0 
L 4282 166 
C 3942 166 3827 166 3744 402 
L 2323 4441 
z
M 2067 3924 
L 2848 1702 
L 1286 1702 
L 2067 3924 
z
" transform="scale(0.015625)"/>
       <path id="CMR17-44" d="M 333 4352 
L 333 4185 
C 774 4185 845 4185 845 3898 
L 845 453 
C 845 166 774 166 333 166 
L 333 0 
L 2368 0 
C 3398 0 4224 943 4224 2140 
C 4224 3344 3411 4352 2368 4352 
L 333 4352 
z
M 1523 166 
C 1267 166 1254 198 1254 414 
L 1254 3936 
C 1254 4153 1267 4185 1523 4185 
L 2240 4185 
C 2771 4185 3750 3873 3750 2140 
C 3750 1242 3488 879 3366 707 
C 3213 510 2848 166 2240 166 
L 1523 166 
z
" transform="scale(0.015625)"/>
       <path id="CMR17-4d" d="M 1338 4249 
C 1299 4345 1293 4352 1158 4352 
L 339 4352 
L 339 4185 
C 781 4185 851 4185 851 3898 
L 851 624 
C 851 465 851 166 339 166 
L 339 0 
C 486 12 755 12 915 12 
C 1075 12 1344 12 1491 0 
L 1491 166 
C 979 166 979 465 979 624 
L 979 4159 
L 986 4159 
L 2490 102 
C 2515 38 2528 0 2579 0 
C 2630 0 2643 38 2669 102 
L 4186 4191 
L 4192 4191 
L 4192 453 
C 4192 166 4122 166 3680 166 
L 3680 0 
C 3853 12 4198 12 4384 12 
C 4570 12 4922 12 5094 0 
L 5094 166 
C 4653 166 4582 166 4582 453 
L 4582 3898 
C 4582 4185 4653 4185 5094 4185 
L 5094 4352 
L 4282 4352 
C 4147 4352 4141 4345 4102 4249 
L 2720 516 
L 1338 4249 
z
" transform="scale(0.015625)"/>
      </defs>
      <use xlink:href="#CMR17-50" transform="scale(0.996264)"/>
      <use xlink:href="#CMR17-41" transform="translate(54.779045 0)scale(0.996264)"/>
      <use xlink:href="#CMR17-44" transform="translate(123.851475 0)scale(0.996264)"/>
      <use xlink:href="#CMR17-4d" transform="translate(194.245031 0)scale(0.996264)"/>
     </g>
    </g>
    <g id="line2d_19">
     <path d="M 314.759063 120.462919 
L 330.759063 120.462919 
L 346.759063 120.462919 
" style="fill: none; stroke: #ff7f0e; stroke-width: 1.5; stroke-linecap: square"/>
    </g>
    <g id="text_18">
     <!-- ADM -->
     <g transform="translate(359.559063 126.062919)scale(0.16 -0.16)">
      <use xlink:href="#CMR17-41" transform="scale(0.996264)"/>
      <use xlink:href="#CMR17-44" transform="translate(69.07243 0)scale(0.996264)"/>
      <use xlink:href="#CMR17-4d" transform="translate(139.465986 0)scale(0.996264)"/>
     </g>
    </g>
    <g id="line2d_20">
     <path d="M 314.759063 142.762395 
L 330.759063 142.762395 
L 346.759063 142.762395 
" style="fill: none; stroke: #2ca02c; stroke-width: 1.5; stroke-linecap: square"/>
    </g>
    <g id="text_19">
     <!-- Exact -->
     <g transform="translate(359.559063 148.362395)scale(0.16 -0.16)">
      <use xlink:href="#CMR17-45" transform="scale(0.996264)"/>
      <use xlink:href="#CMR17-78" transform="translate(62.586301 0)scale(0.996264)"/>
      <use xlink:href="#CMR17-61" transform="translate(110.879216 0)scale(0.996264)"/>
      <use xlink:href="#CMR17-63" transform="translate(156.569693 0)scale(0.996264)"/>
      <use xlink:href="#CMR17-74" transform="translate(197.055354 0)scale(0.996264)"/>
     </g>
    </g>
   </g>
  </g>
 </g>
 <defs>
  <clipPath id="p0776f5717e">
   <rect x="56.798167" y="10.8" width="364.401833" height="155.061871"/>
  </clipPath>
 </defs>
</svg>
