<?xml version="1.0" encoding="utf-8" standalone="no"?>
<!DOCTYPE svg PUBLIC "-//W3C//DTD SVG 1.1//EN"
  "http://www.w3.org/Graphics/SVG/1.1/DTD/svg11.dtd">
<svg xmlns:xlink="http://www.w3.org/1999/xlink" width="576pt" height="576pt" viewBox="0 0 576 576" xmlns="http://www.w3.org/2000/svg" version="1.1">
 <metadata>
  <rdf:RDF xmlns:dc="http://purl.org/dc/elements/1.1/" xmlns:cc="http://creativecommons.org/ns#" xmlns:rdf="http://www.w3.org/1999/02/22-rdf-syntax-ns#">
   <cc:Work>
    <dc:type rdf:resource="http://purl.org/dc/dcmitype/StillImage"/>
    <dc:date>2022-12-05T13:56:52.857193</dc:date>
    <dc:format>image/svg+xml</dc:format>
    <dc:creator>
     <cc:Agent>
      <dc:title>Matplotlib v3.5.2, https://matplotlib.org/</dc:title>
     </cc:Agent>
    </dc:creator>
   </cc:Work>
  </rdf:RDF>
 </metadata>
 <defs>
  <style type="text/css">*{stroke-linejoin: round; stroke-linecap: butt}</style>
 </defs>
 <g id="figure_1">
  <g id="patch_1">
   <path d="M 0 576 
L 576 576 
L 576 0 
L 0 0 
z
" style="fill: #ffffff"/>
  </g>
  <g id="axes_1">
   <g id="patch_2">
    <path d="M 72 165.537391 
L 429.12 165.537391 
L 429.12 69.12 
L 72 69.12 
z
" style="fill: #eaeaf2"/>
   </g>
   <g id="matplotlib.axis_1">
    <g id="xtick_1">
     <g id="line2d_1">
      <path d="M 133.724444 165.537391 
L 133.724444 69.12 
" clip-path="url(#pc02d06bb06)" style="fill: none; stroke: #ffffff; stroke-width: 0.8; stroke-linecap: round"/>
     </g>
    </g>
    <g id="xtick_2">
     <g id="line2d_2">
      <path d="M 221.902222 165.537391 
L 221.902222 69.12 
" clip-path="url(#pc02d06bb06)" style="fill: none; stroke: #ffffff; stroke-width: 0.8; stroke-linecap: round"/>
     </g>
    </g>
    <g id="xtick_3">
     <g id="line2d_3">
      <path d="M 310.08 165.537391 
L 310.08 69.12 
" clip-path="url(#pc02d06bb06)" style="fill: none; stroke: #ffffff; stroke-width: 0.8; stroke-linecap: round"/>
     </g>
    </g>
    <g id="xtick_4">
     <g id="line2d_4">
      <path d="M 398.257778 165.537391 
L 398.257778 69.12 
" clip-path="url(#pc02d06bb06)" style="fill: none; stroke: #ffffff; stroke-width: 0.8; stroke-linecap: round"/>
     </g>
    </g>
    <g id="xtick_5"/>
    <g id="xtick_6"/>
    <g id="xtick_7"/>
    <g id="xtick_8"/>
    <g id="xtick_9"/>
    <g id="xtick_10"/>
    <g id="xtick_11"/>
    <g id="xtick_12"/>
    <g id="xtick_13"/>
    <g id="xtick_14"/>
    <g id="xtick_15"/>
    <g id="xtick_16"/>
    <g id="xtick_17"/>
    <g id="xtick_18"/>
    <g id="xtick_19"/>
    <g id="xtick_20"/>
   </g>
   <g id="matplotlib.axis_2">
    <g id="ytick_1">
     <g id="line2d_5">
      <path d="M 72 161.154783 
L 429.12 161.154783 
" clip-path="url(#pc02d06bb06)" style="fill: none; stroke: #ffffff; stroke-width: 0.8; stroke-linecap: round"/>
     </g>
     <g id="text_1">
      <!-- 0.0 -->
      <g style="fill: #262626" transform="translate(46.93 165.807361)scale(0.13 -0.13)">
       <defs>
        <path id="ArialMT-30" d="M 266 2259 
Q 266 3072 433 3567 
Q 600 4063 929 4331 
Q 1259 4600 1759 4600 
Q 2128 4600 2406 4451 
Q 2684 4303 2865 4023 
Q 3047 3744 3150 3342 
Q 3253 2941 3253 2259 
Q 3253 1453 3087 958 
Q 2922 463 2592 192 
Q 2263 -78 1759 -78 
Q 1097 -78 719 397 
Q 266 969 266 2259 
z
M 844 2259 
Q 844 1131 1108 757 
Q 1372 384 1759 384 
Q 2147 384 2411 759 
Q 2675 1134 2675 2259 
Q 2675 3391 2411 3762 
Q 2147 4134 1753 4134 
Q 1366 4134 1134 3806 
Q 844 3388 844 2259 
z
" transform="scale(0.015625)"/>
        <path id="ArialMT-2e" d="M 581 0 
L 581 641 
L 1222 641 
L 1222 0 
L 581 0 
z
" transform="scale(0.015625)"/>
       </defs>
       <use xlink:href="#ArialMT-30"/>
       <use xlink:href="#ArialMT-2e" x="55.615234"/>
       <use xlink:href="#ArialMT-30" x="83.398438"/>
      </g>
     </g>
    </g>
    <g id="ytick_2">
     <g id="line2d_6">
      <path d="M 72 130.507169 
L 429.12 130.507169 
" clip-path="url(#pc02d06bb06)" style="fill: none; stroke: #ffffff; stroke-width: 0.8; stroke-linecap: round"/>
     </g>
     <g id="text_2">
      <!-- 0.1 -->
      <g style="fill: #262626" transform="translate(46.93 135.159748)scale(0.13 -0.13)">
       <defs>
        <path id="ArialMT-31" d="M 2384 0 
L 1822 0 
L 1822 3584 
Q 1619 3391 1289 3197 
Q 959 3003 697 2906 
L 697 3450 
Q 1169 3672 1522 3987 
Q 1875 4303 2022 4600 
L 2384 4600 
L 2384 0 
z
" transform="scale(0.015625)"/>
       </defs>
       <use xlink:href="#ArialMT-30"/>
       <use xlink:href="#ArialMT-2e" x="55.615234"/>
       <use xlink:href="#ArialMT-31" x="83.398438"/>
      </g>
     </g>
    </g>
    <g id="ytick_3">
     <g id="line2d_7">
      <path d="M 72 99.859556 
L 429.12 99.859556 
" clip-path="url(#pc02d06bb06)" style="fill: none; stroke: #ffffff; stroke-width: 0.8; stroke-linecap: round"/>
     </g>
     <g id="text_3">
      <!-- 0.2 -->
      <g style="fill: #262626" transform="translate(46.93 104.512134)scale(0.13 -0.13)">
       <defs>
        <path id="ArialMT-32" d="M 3222 541 
L 3222 0 
L 194 0 
Q 188 203 259 391 
Q 375 700 629 1000 
Q 884 1300 1366 1694 
Q 2113 2306 2375 2664 
Q 2638 3022 2638 3341 
Q 2638 3675 2398 3904 
Q 2159 4134 1775 4134 
Q 1369 4134 1125 3890 
Q 881 3647 878 3216 
L 300 3275 
Q 359 3922 746 4261 
Q 1134 4600 1788 4600 
Q 2447 4600 2831 4234 
Q 3216 3869 3216 3328 
Q 3216 3053 3103 2787 
Q 2991 2522 2730 2228 
Q 2469 1934 1863 1422 
Q 1356 997 1212 845 
Q 1069 694 975 541 
L 3222 541 
z
" transform="scale(0.015625)"/>
       </defs>
       <use xlink:href="#ArialMT-30"/>
       <use xlink:href="#ArialMT-2e" x="55.615234"/>
       <use xlink:href="#ArialMT-32" x="83.398438"/>
      </g>
     </g>
    </g>
    <g id="ytick_4">
     <g id="line2d_8">
      <path d="M 72 69.211943 
L 429.12 69.211943 
" clip-path="url(#pc02d06bb06)" style="fill: none; stroke: #ffffff; stroke-width: 0.8; stroke-linecap: round"/>
     </g>
     <g id="text_4">
      <!-- 0.3 -->
      <g style="fill: #262626" transform="translate(46.93 73.864521)scale(0.13 -0.13)">
       <defs>
        <path id="ArialMT-33" d="M 269 1209 
L 831 1284 
Q 928 806 1161 595 
Q 1394 384 1728 384 
Q 2125 384 2398 659 
Q 2672 934 2672 1341 
Q 2672 1728 2419 1979 
Q 2166 2231 1775 2231 
Q 1616 2231 1378 2169 
L 1441 2663 
Q 1497 2656 1531 2656 
Q 1891 2656 2178 2843 
Q 2466 3031 2466 3422 
Q 2466 3731 2256 3934 
Q 2047 4138 1716 4138 
Q 1388 4138 1169 3931 
Q 950 3725 888 3313 
L 325 3413 
Q 428 3978 793 4289 
Q 1159 4600 1703 4600 
Q 2078 4600 2393 4439 
Q 2709 4278 2876 4000 
Q 3044 3722 3044 3409 
Q 3044 3113 2884 2869 
Q 2725 2625 2413 2481 
Q 2819 2388 3044 2092 
Q 3269 1797 3269 1353 
Q 3269 753 2831 336 
Q 2394 -81 1725 -81 
Q 1122 -81 723 278 
Q 325 638 269 1209 
z
" transform="scale(0.015625)"/>
       </defs>
       <use xlink:href="#ArialMT-30"/>
       <use xlink:href="#ArialMT-2e" x="55.615234"/>
       <use xlink:href="#ArialMT-33" x="83.398438"/>
      </g>
     </g>
    </g>
   </g>
   <g id="line2d_9">
    <path d="M 72 161.154783 
L 79.348148 161.154783 
L 80.817778 73.502609 
L 82.287407 161.154783 
L 107.271111 161.154783 
L 108.740741 73.502609 
L 110.21037 161.154783 
L 117.558519 161.154783 
L 119.028148 73.502609 
L 120.497778 73.502609 
L 121.967407 161.154783 
L 123.437037 73.502609 
L 124.906667 161.154783 
L 126.376296 73.502609 
L 132.254815 73.502609 
L 133.724444 161.154783 
L 136.663704 161.154783 
L 138.133333 73.502609 
L 139.602963 161.154783 
L 142.542222 161.154783 
L 144.011852 73.502609 
L 145.481481 161.154783 
L 151.36 161.154783 
L 152.82963 73.502609 
L 154.299259 161.154783 
L 155.768889 73.586561 
L 157.238519 161.154783 
L 166.056296 161.154783 
L 167.525926 73.502609 
L 168.995556 161.154783 
L 170.465185 73.7165 
L 171.934815 161.154783 
L 185.161481 161.154783 
L 186.631111 73.502609 
L 188.100741 161.154783 
L 189.57037 73.502609 
L 192.50963 73.502609 
L 193.979259 73.776919 
L 195.448889 73.502609 
L 198.388148 73.502609 
L 199.857778 161.154783 
L 201.327407 73.502609 
L 202.797037 161.154783 
L 204.266667 73.502609 
L 205.736296 73.502609 
L 207.205926 161.154783 
L 226.311111 161.154783 
L 227.780741 73.583481 
L 230.72 73.502609 
L 238.068148 73.502609 
L 239.537778 161.154783 
L 241.007407 161.154783 
L 242.477037 73.502609 
L 246.885926 73.502609 
L 248.355556 161.154783 
L 251.294815 161.154783 
L 252.764444 73.502609 
L 258.642963 73.704507 
L 260.112593 161.154783 
L 270.4 161.154783 
L 271.86963 73.502609 
L 273.339259 73.502609 
L 274.808889 161.154783 
L 276.278519 73.507258 
L 277.748148 73.516262 
L 279.217778 161.154783 
L 285.096296 161.154783 
L 286.565926 73.502609 
L 295.383704 73.502609 
L 296.853333 161.154783 
L 298.322963 73.502609 
L 299.792593 161.154783 
L 338.002963 161.154783 
L 339.472593 73.645292 
L 340.942222 161.154783 
L 343.881481 161.154783 
L 345.351111 73.502609 
L 346.820741 161.154783 
L 357.108148 161.154783 
L 358.577778 73.502609 
L 362.986667 73.502609 
L 364.456296 161.154783 
L 367.395556 161.154783 
L 368.865185 73.60403 
L 370.334815 161.154783 
L 374.743704 161.154783 
L 376.213333 73.502609 
L 377.682963 73.840916 
L 379.152593 161.154783 
L 383.561481 161.154783 
L 385.031111 73.502609 
L 393.848889 73.502609 
L 395.318519 161.154783 
L 396.788148 73.502609 
L 398.257778 161.154783 
L 399.727407 73.502609 
L 401.197037 73.502609 
L 402.666667 161.154783 
L 405.605926 161.154783 
L 407.075556 73.552374 
L 411.484444 73.502609 
L 414.423704 73.502609 
L 415.893333 161.154783 
L 427.65037 161.154783 
L 429.12 73.502609 
L 429.12 73.502609 
" clip-path="url(#pc02d06bb06)" style="fill: none; stroke: #1f77b4; stroke-width: 1.5; stroke-linecap: round"/>
   </g>
   <g id="patch_3">
    <path d="M 72 165.537391 
L 72 69.12 
" style="fill: none; stroke: #ffffff; stroke-width: 0.8; stroke-linejoin: miter; stroke-linecap: square"/>
   </g>
   <g id="patch_4">
    <path d="M 429.12 165.537391 
L 429.12 69.12 
" style="fill: none; stroke: #ffffff; stroke-width: 0.8; stroke-linejoin: miter; stroke-linecap: square"/>
   </g>
   <g id="patch_5">
    <path d="M 72 165.537391 
L 429.12 165.537391 
" style="fill: none; stroke: #ffffff; stroke-width: 0.8; stroke-linejoin: miter; stroke-linecap: square"/>
   </g>
   <g id="patch_6">
    <path d="M 72 69.12 
L 429.12 69.12 
" style="fill: none; stroke: #ffffff; stroke-width: 0.8; stroke-linejoin: miter; stroke-linecap: square"/>
   </g>
   <g id="legend_1">
    <g id="patch_7">
     <path d="M 436.12 126.778696 
L 518.92 126.778696 
Q 520.92 126.778696 520.92 124.778696 
L 520.92 109.878696 
Q 520.92 107.878696 518.92 107.878696 
L 436.12 107.878696 
Q 434.12 107.878696 434.12 109.878696 
L 434.12 124.778696 
Q 434.12 126.778696 436.12 126.778696 
z
" style="fill: #eaeaf2; opacity: 0.8; stroke: #cccccc; stroke-linejoin: miter"/>
    </g>
    <g id="line2d_10">
     <path d="M 438.12 117.178696 
L 448.12 117.178696 
L 458.12 117.178696 
" style="fill: none; stroke: #1f77b4; stroke-width: 1.5; stroke-linecap: round"/>
    </g>
    <g id="text_5">
     <!-- PADM: $\rho^{\intercal} \xi$ -->
     <g style="fill: #262626" transform="translate(466.12 120.678696)scale(0.1 -0.1)">
      <defs>
       <path id="ArialMT-50" d="M 494 0 
L 494 4581 
L 2222 4581 
Q 2678 4581 2919 4538 
Q 3256 4481 3484 4323 
Q 3713 4166 3852 3881 
Q 3991 3597 3991 3256 
Q 3991 2672 3619 2267 
Q 3247 1863 2275 1863 
L 1100 1863 
L 1100 0 
L 494 0 
z
M 1100 2403 
L 2284 2403 
Q 2872 2403 3119 2622 
Q 3366 2841 3366 3238 
Q 3366 3525 3220 3729 
Q 3075 3934 2838 4000 
Q 2684 4041 2272 4041 
L 1100 4041 
L 1100 2403 
z
" transform="scale(0.015625)"/>
       <path id="ArialMT-41" d="M -9 0 
L 1750 4581 
L 2403 4581 
L 4278 0 
L 3588 0 
L 3053 1388 
L 1138 1388 
L 634 0 
L -9 0 
z
M 1313 1881 
L 2866 1881 
L 2388 3150 
Q 2169 3728 2063 4100 
Q 1975 3659 1816 3225 
L 1313 1881 
z
" transform="scale(0.015625)"/>
       <path id="ArialMT-44" d="M 494 0 
L 494 4581 
L 2072 4581 
Q 2606 4581 2888 4516 
Q 3281 4425 3559 4188 
Q 3922 3881 4101 3404 
Q 4281 2928 4281 2316 
Q 4281 1794 4159 1391 
Q 4038 988 3847 723 
Q 3656 459 3429 307 
Q 3203 156 2883 78 
Q 2563 0 2147 0 
L 494 0 
z
M 1100 541 
L 2078 541 
Q 2531 541 2789 625 
Q 3047 709 3200 863 
Q 3416 1078 3536 1442 
Q 3656 1806 3656 2325 
Q 3656 3044 3420 3430 
Q 3184 3816 2847 3947 
Q 2603 4041 2063 4041 
L 1100 4041 
L 1100 541 
z
" transform="scale(0.015625)"/>
       <path id="ArialMT-4d" d="M 475 0 
L 475 4581 
L 1388 4581 
L 2472 1338 
Q 2622 884 2691 659 
Q 2769 909 2934 1394 
L 4031 4581 
L 4847 4581 
L 4847 0 
L 4263 0 
L 4263 3834 
L 2931 0 
L 2384 0 
L 1059 3900 
L 1059 0 
L 475 0 
z
" transform="scale(0.015625)"/>
       <path id="ArialMT-3a" d="M 578 2678 
L 578 3319 
L 1219 3319 
L 1219 2678 
L 578 2678 
z
M 578 0 
L 578 641 
L 1219 641 
L 1219 0 
L 578 0 
z
" transform="scale(0.015625)"/>
       <path id="ArialMT-20" transform="scale(0.015625)"/>
       <path id="DejaVuSans-Oblique-3c1" d="M 1203 2875 
Q 1453 3194 1981 3475 
Q 2188 3584 2756 3584 
Q 3394 3584 3694 3078 
Q 3994 2572 3834 1747 
Q 3672 922 3175 415 
Q 2678 -91 2041 -91 
Q 1656 -91 1409 63 
Q 1163 213 1044 525 
L 681 -1331 
L 103 -1331 
L 697 1716 
Q 838 2438 1203 2875 
z
M 3238 1747 
Q 3359 2381 3169 2744 
Q 2978 3103 2522 3103 
Q 2066 3103 1734 2744 
Q 1403 2381 1281 1747 
Q 1156 1113 1347 750 
Q 1538 391 1994 391 
Q 2450 391 2781 750 
Q 3113 1113 3238 1747 
z
" transform="scale(0.015625)"/>
       <path id="DejaVuSans-22ba" d="M 1863 0 
L 1469 0 
L 1469 4088 
L 744 4088 
L 744 4484 
L 2588 4484 
L 2588 4088 
L 1863 4088 
L 1863 0 
z
" transform="scale(0.015625)"/>
       <path id="DejaVuSans-Oblique-3be" d="M 2016 397 
Q 2428 394 2628 159 
Q 2844 -88 2772 -463 
Q 2700 -822 2422 -1072 
Q 2119 -1344 1609 -1344 
Q 1656 -1109 1700 -872 
Q 1913 -888 2072 -750 
Q 2194 -641 2216 -525 
Q 2247 -359 2175 -222 
Q 2100 -91 1922 -91 
Q -25 -91 241 1275 
Q 422 2213 1516 2488 
Q 663 2600 822 3413 
Q 941 4028 1678 4284 
L 1028 4284 
L 1141 4863 
L 3606 4863 
L 3494 4284 
Q 1528 4284 1350 3375 
Q 1234 2778 2881 2750 
L 2778 2219 
Q 1009 2288 819 1275 
Q 659 428 2016 397 
z
" transform="scale(0.015625)"/>
      </defs>
      <use xlink:href="#ArialMT-50" transform="translate(0 0.675)"/>
      <use xlink:href="#ArialMT-41" transform="translate(66.699219 0.675)"/>
      <use xlink:href="#ArialMT-44" transform="translate(133.398438 0.675)"/>
      <use xlink:href="#ArialMT-4d" transform="translate(205.615234 0.675)"/>
      <use xlink:href="#ArialMT-3a" transform="translate(288.916016 0.675)"/>
      <use xlink:href="#ArialMT-20" transform="translate(316.699219 0.675)"/>
      <use xlink:href="#DejaVuSans-Oblique-3c1" transform="translate(344.482422 0.675)"/>
      <use xlink:href="#DejaVuSans-22ba" transform="translate(412.60888 38.95625)scale(0.7)"/>
      <use xlink:href="#DejaVuSans-Oblique-3be" transform="translate(451.778802 0.675)"/>
     </g>
    </g>
   </g>
  </g>
  <g id="axes_2">
   <g id="patch_8">
    <path d="M 72 281.238261 
L 429.12 281.238261 
L 429.12 184.82087 
L 72 184.82087 
z
" style="fill: #eaeaf2"/>
   </g>
   <g id="matplotlib.axis_3">
    <g id="xtick_21">
     <g id="line2d_11">
      <path d="M 133.724444 281.238261 
L 133.724444 184.82087 
" clip-path="url(#p574285d8c1)" style="fill: none; stroke: #ffffff; stroke-width: 0.8; stroke-linecap: round"/>
     </g>
    </g>
    <g id="xtick_22">
     <g id="line2d_12">
      <path d="M 221.902222 281.238261 
L 221.902222 184.82087 
" clip-path="url(#p574285d8c1)" style="fill: none; stroke: #ffffff; stroke-width: 0.8; stroke-linecap: round"/>
     </g>
    </g>
    <g id="xtick_23">
     <g id="line2d_13">
      <path d="M 310.08 281.238261 
L 310.08 184.82087 
" clip-path="url(#p574285d8c1)" style="fill: none; stroke: #ffffff; stroke-width: 0.8; stroke-linecap: round"/>
     </g>
    </g>
    <g id="xtick_24">
     <g id="line2d_14">
      <path d="M 398.257778 281.238261 
L 398.257778 184.82087 
" clip-path="url(#p574285d8c1)" style="fill: none; stroke: #ffffff; stroke-width: 0.8; stroke-linecap: round"/>
     </g>
    </g>
    <g id="xtick_25"/>
    <g id="xtick_26"/>
    <g id="xtick_27"/>
    <g id="xtick_28"/>
    <g id="xtick_29"/>
    <g id="xtick_30"/>
    <g id="xtick_31"/>
    <g id="xtick_32"/>
    <g id="xtick_33"/>
    <g id="xtick_34"/>
    <g id="xtick_35"/>
    <g id="xtick_36"/>
    <g id="xtick_37"/>
    <g id="xtick_38"/>
    <g id="xtick_39"/>
    <g id="xtick_40"/>
   </g>
   <g id="matplotlib.axis_4">
    <g id="ytick_5">
     <g id="line2d_15">
      <path d="M 72 276.855652 
L 429.12 276.855652 
" clip-path="url(#p574285d8c1)" style="fill: none; stroke: #ffffff; stroke-width: 0.8; stroke-linecap: round"/>
     </g>
     <g id="text_6">
      <!-- 0.0 -->
      <g style="fill: #262626" transform="translate(46.93 281.50823)scale(0.13 -0.13)">
       <use xlink:href="#ArialMT-30"/>
       <use xlink:href="#ArialMT-2e" x="55.615234"/>
       <use xlink:href="#ArialMT-30" x="83.398438"/>
      </g>
     </g>
    </g>
    <g id="ytick_6">
     <g id="line2d_16">
      <path d="M 72 246.208039 
L 429.12 246.208039 
" clip-path="url(#p574285d8c1)" style="fill: none; stroke: #ffffff; stroke-width: 0.8; stroke-linecap: round"/>
     </g>
     <g id="text_7">
      <!-- 0.1 -->
      <g style="fill: #262626" transform="translate(46.93 250.860617)scale(0.13 -0.13)">
       <use xlink:href="#ArialMT-30"/>
       <use xlink:href="#ArialMT-2e" x="55.615234"/>
       <use xlink:href="#ArialMT-31" x="83.398438"/>
      </g>
     </g>
    </g>
    <g id="ytick_7">
     <g id="line2d_17">
      <path d="M 72 215.560426 
L 429.12 215.560426 
" clip-path="url(#p574285d8c1)" style="fill: none; stroke: #ffffff; stroke-width: 0.8; stroke-linecap: round"/>
     </g>
     <g id="text_8">
      <!-- 0.2 -->
      <g style="fill: #262626" transform="translate(46.93 220.213004)scale(0.13 -0.13)">
       <use xlink:href="#ArialMT-30"/>
       <use xlink:href="#ArialMT-2e" x="55.615234"/>
       <use xlink:href="#ArialMT-32" x="83.398438"/>
      </g>
     </g>
    </g>
    <g id="ytick_8">
     <g id="line2d_18">
      <path d="M 72 184.912813 
L 429.12 184.912813 
" clip-path="url(#p574285d8c1)" style="fill: none; stroke: #ffffff; stroke-width: 0.8; stroke-linecap: round"/>
     </g>
     <g id="text_9">
      <!-- 0.3 -->
      <g style="fill: #262626" transform="translate(46.93 189.565391)scale(0.13 -0.13)">
       <use xlink:href="#ArialMT-30"/>
       <use xlink:href="#ArialMT-2e" x="55.615234"/>
       <use xlink:href="#ArialMT-33" x="83.398438"/>
      </g>
     </g>
    </g>
   </g>
   <g id="line2d_19">
    <path d="M 72 276.641964 
L 73.46963 276.855652 
L 74.939259 276.779883 
L 77.878519 276.855652 
L 79.348148 276.855652 
L 80.817778 189.203479 
L 82.287407 276.855652 
L 83.757037 276.751012 
L 85.226667 276.855652 
L 86.696296 276.773219 
L 89.635556 276.855652 
L 91.105185 276.855652 
L 92.574815 276.494139 
L 94.044444 276.855652 
L 99.922963 276.855652 
L 101.392593 276.466514 
L 102.862222 276.855652 
L 104.331852 276.376182 
L 105.801481 276.855652 
L 107.271111 276.855652 
L 108.740741 189.203479 
L 110.21037 276.855652 
L 113.14963 276.855652 
L 114.619259 276.319561 
L 116.088889 276.778188 
L 117.558519 276.855652 
L 119.028148 189.203479 
L 120.497778 189.203479 
L 121.967407 276.855652 
L 123.437037 189.203479 
L 124.906667 276.855652 
L 126.376296 189.203478 
L 127.845926 189.475823 
L 129.315556 189.203479 
L 132.254815 189.203479 
L 133.724444 276.855652 
L 136.663704 276.855652 
L 138.133333 189.203479 
L 139.602963 276.855652 
L 142.542222 276.855652 
L 144.011852 189.203478 
L 145.481481 276.600893 
L 146.951111 276.855652 
L 148.420741 276.855652 
L 149.89037 276.655993 
L 151.36 276.855652 
L 152.82963 189.203479 
L 154.299259 276.809142 
L 155.768889 189.287431 
L 157.238519 276.855652 
L 158.708148 276.772628 
L 161.647407 276.855652 
L 166.056296 276.855652 
L 167.525926 189.203479 
L 168.995556 276.855652 
L 170.465185 189.41737 
L 171.934815 276.855652 
L 185.161481 276.855652 
L 186.631111 189.680464 
L 188.100741 276.521257 
L 189.57037 189.536702 
L 191.04 189.37012 
L 192.50963 189.353265 
L 193.979259 189.525557 
L 195.448889 189.203479 
L 198.388148 189.258415 
L 199.857778 276.855652 
L 201.327407 189.203479 
L 202.797037 276.855652 
L 204.266667 189.2751 
L 205.736296 189.203479 
L 207.205926 276.84452 
L 211.614815 276.855652 
L 213.084444 276.593834 
L 214.554074 276.855652 
L 226.311111 276.855652 
L 227.780741 189.28435 
L 230.72 189.203479 
L 238.068148 189.203479 
L 239.537778 276.383884 
L 241.007407 276.630547 
L 242.477037 189.600336 
L 246.885926 189.391707 
L 248.355556 276.855652 
L 251.294815 276.855652 
L 252.764444 251.166555 
L 254.234074 189.258054 
L 257.173333 189.354154 
L 258.642963 276.284134 
L 260.112593 276.855652 
L 270.4 276.855652 
L 271.86963 189.203479 
L 274.808889 189.273783 
L 276.278519 189.375099 
L 277.748148 189.24142 
L 279.217778 276.855652 
L 280.687407 276.600643 
L 282.157037 276.855652 
L 285.096296 276.855652 
L 286.565926 189.203479 
L 295.383704 189.203479 
L 296.853333 276.045322 
L 298.322963 189.203479 
L 299.792593 276.841017 
L 302.731852 276.855652 
L 304.201481 276.558642 
L 305.671111 276.690194 
L 307.140741 276.699615 
L 308.61037 276.855652 
L 313.019259 276.855652 
L 314.488889 276.468285 
L 315.958519 276.25206 
L 318.897778 276.388706 
L 320.367407 276.855652 
L 323.306667 276.812083 
L 324.776296 276.663899 
L 326.245926 276.779687 
L 327.715556 276.306154 
L 329.185185 276.855652 
L 332.124444 276.745017 
L 333.594074 276.003594 
L 335.063704 276.806314 
L 338.002963 276.855652 
L 339.472593 189.346161 
L 340.942222 276.746119 
L 342.411852 276.52293 
L 343.881481 276.584747 
L 345.351111 189.306953 
L 346.820741 276.855652 
L 348.29037 276.855652 
L 349.76 276.27678 
L 351.22963 276.652987 
L 352.699259 276.816944 
L 355.638519 276.806441 
L 357.108148 276.693411 
L 358.577778 189.375906 
L 360.047407 189.203479 
L 361.517037 189.26203 
L 362.986667 189.203479 
L 364.456296 276.663196 
L 367.395556 276.855652 
L 368.865185 189.304899 
L 370.334815 189.290583 
L 371.804444 276.107804 
L 373.274074 276.702511 
L 374.743704 276.373621 
L 376.213333 189.337553 
L 377.682963 189.541786 
L 379.152593 276.679811 
L 380.622222 276.855652 
L 383.561481 276.855652 
L 385.031111 189.203479 
L 386.500741 189.50542 
L 387.97037 189.203478 
L 393.848889 189.303418 
L 395.318519 276.855652 
L 396.788148 189.29213 
L 398.257778 276.855652 
L 399.727407 189.389239 
L 401.197037 189.306193 
L 402.666667 276.855652 
L 405.605926 276.855652 
L 407.075556 189.253244 
L 412.954074 189.203478 
L 414.423704 189.203479 
L 415.893333 276.855652 
L 421.771852 276.855652 
L 423.241481 276.736839 
L 424.711111 276.855652 
L 427.65037 276.855652 
L 429.12 189.354949 
L 429.12 189.354949 
" clip-path="url(#p574285d8c1)" style="fill: none; stroke: #ff7f0e; stroke-width: 1.5; stroke-linecap: round"/>
   </g>
   <g id="patch_9">
    <path d="M 72 281.238261 
L 72 184.82087 
" style="fill: none; stroke: #ffffff; stroke-width: 0.8; stroke-linejoin: miter; stroke-linecap: square"/>
   </g>
   <g id="patch_10">
    <path d="M 429.12 281.238261 
L 429.12 184.82087 
" style="fill: none; stroke: #ffffff; stroke-width: 0.8; stroke-linejoin: miter; stroke-linecap: square"/>
   </g>
   <g id="patch_11">
    <path d="M 72 281.238261 
L 429.12 281.238261 
" style="fill: none; stroke: #ffffff; stroke-width: 0.8; stroke-linejoin: miter; stroke-linecap: square"/>
   </g>
   <g id="patch_12">
    <path d="M 72 184.82087 
L 429.12 184.82087 
" style="fill: none; stroke: #ffffff; stroke-width: 0.8; stroke-linejoin: miter; stroke-linecap: square"/>
   </g>
   <g id="legend_2">
    <g id="patch_13">
     <path d="M 436.12 242.479565 
L 524.92 242.479565 
Q 526.92 242.479565 526.92 240.479565 
L 526.92 225.579565 
Q 526.92 223.579565 524.92 223.579565 
L 436.12 223.579565 
Q 434.12 223.579565 434.12 225.579565 
L 434.12 240.479565 
Q 434.12 242.479565 436.12 242.479565 
z
" style="fill: #eaeaf2; opacity: 0.8; stroke: #cccccc; stroke-linejoin: miter"/>
    </g>
    <g id="line2d_20">
     <path d="M 438.12 232.879565 
L 448.12 232.879565 
L 458.12 232.879565 
" style="fill: none; stroke: #ff7f0e; stroke-width: 1.5; stroke-linecap: round"/>
    </g>
    <g id="text_10">
     <!-- PADM: $\rho 1^{\intercal}\xi$ -->
     <g style="fill: #262626" transform="translate(466.12 236.379565)scale(0.1 -0.1)">
      <defs>
       <path id="DejaVuSans-31" d="M 794 531 
L 1825 531 
L 1825 4091 
L 703 3866 
L 703 4441 
L 1819 4666 
L 2450 4666 
L 2450 531 
L 3481 531 
L 3481 0 
L 794 0 
L 794 531 
z
" transform="scale(0.015625)"/>
      </defs>
      <use xlink:href="#ArialMT-50" transform="translate(0 0.675)"/>
      <use xlink:href="#ArialMT-41" transform="translate(66.699219 0.675)"/>
      <use xlink:href="#ArialMT-44" transform="translate(133.398438 0.675)"/>
      <use xlink:href="#ArialMT-4d" transform="translate(205.615234 0.675)"/>
      <use xlink:href="#ArialMT-3a" transform="translate(288.916016 0.675)"/>
      <use xlink:href="#ArialMT-20" transform="translate(316.699219 0.675)"/>
      <use xlink:href="#DejaVuSans-Oblique-3c1" transform="translate(344.482422 0.675)"/>
      <use xlink:href="#DejaVuSans-31" transform="translate(407.958984 0.675)"/>
      <use xlink:href="#DejaVuSans-22ba" transform="translate(472.539062 38.95625)scale(0.7)"/>
      <use xlink:href="#DejaVuSans-Oblique-3be" transform="translate(511.708984 0.675)"/>
     </g>
    </g>
   </g>
  </g>
  <g id="axes_3">
   <g id="patch_14">
    <path d="M 72 396.93913 
L 429.12 396.93913 
L 429.12 300.521739 
L 72 300.521739 
z
" style="fill: #eaeaf2"/>
   </g>
   <g id="matplotlib.axis_5">
    <g id="xtick_41">
     <g id="line2d_21">
      <path d="M 133.724444 396.93913 
L 133.724444 300.521739 
" clip-path="url(#pbda371f9f3)" style="fill: none; stroke: #ffffff; stroke-width: 0.8; stroke-linecap: round"/>
     </g>
    </g>
    <g id="xtick_42">
     <g id="line2d_22">
      <path d="M 221.902222 396.93913 
L 221.902222 300.521739 
" clip-path="url(#pbda371f9f3)" style="fill: none; stroke: #ffffff; stroke-width: 0.8; stroke-linecap: round"/>
     </g>
    </g>
    <g id="xtick_43">
     <g id="line2d_23">
      <path d="M 310.08 396.93913 
L 310.08 300.521739 
" clip-path="url(#pbda371f9f3)" style="fill: none; stroke: #ffffff; stroke-width: 0.8; stroke-linecap: round"/>
     </g>
    </g>
    <g id="xtick_44">
     <g id="line2d_24">
      <path d="M 398.257778 396.93913 
L 398.257778 300.521739 
" clip-path="url(#pbda371f9f3)" style="fill: none; stroke: #ffffff; stroke-width: 0.8; stroke-linecap: round"/>
     </g>
    </g>
    <g id="xtick_45"/>
    <g id="xtick_46"/>
    <g id="xtick_47"/>
    <g id="xtick_48"/>
    <g id="xtick_49"/>
    <g id="xtick_50"/>
    <g id="xtick_51"/>
    <g id="xtick_52"/>
    <g id="xtick_53"/>
    <g id="xtick_54"/>
    <g id="xtick_55"/>
    <g id="xtick_56"/>
    <g id="xtick_57"/>
    <g id="xtick_58"/>
    <g id="xtick_59"/>
    <g id="xtick_60"/>
   </g>
   <g id="matplotlib.axis_6">
    <g id="ytick_9">
     <g id="line2d_25">
      <path d="M 72 392.556522 
L 429.12 392.556522 
" clip-path="url(#pbda371f9f3)" style="fill: none; stroke: #ffffff; stroke-width: 0.8; stroke-linecap: round"/>
     </g>
     <g id="text_11">
      <!-- 0.0 -->
      <g style="fill: #262626" transform="translate(46.93 397.2091)scale(0.13 -0.13)">
       <use xlink:href="#ArialMT-30"/>
       <use xlink:href="#ArialMT-2e" x="55.615234"/>
       <use xlink:href="#ArialMT-30" x="83.398438"/>
      </g>
     </g>
    </g>
    <g id="ytick_10">
     <g id="line2d_26">
      <path d="M 72 361.908908 
L 429.12 361.908908 
" clip-path="url(#pbda371f9f3)" style="fill: none; stroke: #ffffff; stroke-width: 0.8; stroke-linecap: round"/>
     </g>
     <g id="text_12">
      <!-- 0.1 -->
      <g style="fill: #262626" transform="translate(46.93 366.561487)scale(0.13 -0.13)">
       <use xlink:href="#ArialMT-30"/>
       <use xlink:href="#ArialMT-2e" x="55.615234"/>
       <use xlink:href="#ArialMT-31" x="83.398438"/>
      </g>
     </g>
    </g>
    <g id="ytick_11">
     <g id="line2d_27">
      <path d="M 72 331.261295 
L 429.12 331.261295 
" clip-path="url(#pbda371f9f3)" style="fill: none; stroke: #ffffff; stroke-width: 0.8; stroke-linecap: round"/>
     </g>
     <g id="text_13">
      <!-- 0.2 -->
      <g style="fill: #262626" transform="translate(46.93 335.913873)scale(0.13 -0.13)">
       <use xlink:href="#ArialMT-30"/>
       <use xlink:href="#ArialMT-2e" x="55.615234"/>
       <use xlink:href="#ArialMT-32" x="83.398438"/>
      </g>
     </g>
    </g>
    <g id="ytick_12">
     <g id="line2d_28">
      <path d="M 72 300.613682 
L 429.12 300.613682 
" clip-path="url(#pbda371f9f3)" style="fill: none; stroke: #ffffff; stroke-width: 0.8; stroke-linecap: round"/>
     </g>
     <g id="text_14">
      <!-- 0.3 -->
      <g style="fill: #262626" transform="translate(46.93 305.26626)scale(0.13 -0.13)">
       <use xlink:href="#ArialMT-30"/>
       <use xlink:href="#ArialMT-2e" x="55.615234"/>
       <use xlink:href="#ArialMT-33" x="83.398438"/>
      </g>
     </g>
    </g>
   </g>
   <g id="line2d_29">
    <path d="M 72 392.556522 
L 185.161481 392.556522 
L 186.631111 304.904348 
L 188.100741 392.556522 
L 251.294815 392.556522 
L 252.764444 357.00529 
L 254.234074 392.556522 
L 429.12 392.556522 
L 429.12 392.556522 
" clip-path="url(#pbda371f9f3)" style="fill: none; stroke: #2ca02c; stroke-width: 1.5; stroke-linecap: round"/>
   </g>
   <g id="patch_15">
    <path d="M 72 396.93913 
L 72 300.521739 
" style="fill: none; stroke: #ffffff; stroke-width: 0.8; stroke-linejoin: miter; stroke-linecap: square"/>
   </g>
   <g id="patch_16">
    <path d="M 429.12 396.93913 
L 429.12 300.521739 
" style="fill: none; stroke: #ffffff; stroke-width: 0.8; stroke-linejoin: miter; stroke-linecap: square"/>
   </g>
   <g id="patch_17">
    <path d="M 72 396.93913 
L 429.12 396.93913 
" style="fill: none; stroke: #ffffff; stroke-width: 0.8; stroke-linejoin: miter; stroke-linecap: square"/>
   </g>
   <g id="patch_18">
    <path d="M 72 300.521739 
L 429.12 300.521739 
" style="fill: none; stroke: #ffffff; stroke-width: 0.8; stroke-linejoin: miter; stroke-linecap: square"/>
   </g>
   <g id="legend_3">
    <g id="patch_19">
     <path d="M 436.12 358.180435 
L 559.52 358.180435 
Q 561.52 358.180435 561.52 356.180435 
L 561.52 341.280435 
Q 561.52 339.280435 559.52 339.280435 
L 436.12 339.280435 
Q 434.12 339.280435 434.12 341.280435 
L 434.12 356.180435 
Q 434.12 358.180435 436.12 358.180435 
z
" style="fill: #eaeaf2; opacity: 0.8; stroke: #cccccc; stroke-linejoin: miter"/>
    </g>
    <g id="line2d_30">
     <path d="M 438.12 348.580435 
L 448.12 348.580435 
L 458.12 348.580435 
" style="fill: none; stroke: #2ca02c; stroke-width: 1.5; stroke-linecap: round"/>
    </g>
    <g id="text_15">
     <!-- Random PADM: $\rho^{\intercal} \xi$ -->
     <g style="fill: #262626" transform="translate(466.12 352.080435)scale(0.1 -0.1)">
      <defs>
       <path id="ArialMT-52" d="M 503 0 
L 503 4581 
L 2534 4581 
Q 3147 4581 3465 4457 
Q 3784 4334 3975 4021 
Q 4166 3709 4166 3331 
Q 4166 2844 3850 2509 
Q 3534 2175 2875 2084 
Q 3116 1969 3241 1856 
Q 3506 1613 3744 1247 
L 4541 0 
L 3778 0 
L 3172 953 
Q 2906 1366 2734 1584 
Q 2563 1803 2427 1890 
Q 2291 1978 2150 2013 
Q 2047 2034 1813 2034 
L 1109 2034 
L 1109 0 
L 503 0 
z
M 1109 2559 
L 2413 2559 
Q 2828 2559 3062 2645 
Q 3297 2731 3419 2920 
Q 3541 3109 3541 3331 
Q 3541 3656 3305 3865 
Q 3069 4075 2559 4075 
L 1109 4075 
L 1109 2559 
z
" transform="scale(0.015625)"/>
       <path id="ArialMT-61" d="M 2588 409 
Q 2275 144 1986 34 
Q 1697 -75 1366 -75 
Q 819 -75 525 192 
Q 231 459 231 875 
Q 231 1119 342 1320 
Q 453 1522 633 1644 
Q 813 1766 1038 1828 
Q 1203 1872 1538 1913 
Q 2219 1994 2541 2106 
Q 2544 2222 2544 2253 
Q 2544 2597 2384 2738 
Q 2169 2928 1744 2928 
Q 1347 2928 1158 2789 
Q 969 2650 878 2297 
L 328 2372 
Q 403 2725 575 2942 
Q 747 3159 1072 3276 
Q 1397 3394 1825 3394 
Q 2250 3394 2515 3294 
Q 2781 3194 2906 3042 
Q 3031 2891 3081 2659 
Q 3109 2516 3109 2141 
L 3109 1391 
Q 3109 606 3145 398 
Q 3181 191 3288 0 
L 2700 0 
Q 2613 175 2588 409 
z
M 2541 1666 
Q 2234 1541 1622 1453 
Q 1275 1403 1131 1340 
Q 988 1278 909 1158 
Q 831 1038 831 891 
Q 831 666 1001 516 
Q 1172 366 1500 366 
Q 1825 366 2078 508 
Q 2331 650 2450 897 
Q 2541 1088 2541 1459 
L 2541 1666 
z
" transform="scale(0.015625)"/>
       <path id="ArialMT-6e" d="M 422 0 
L 422 3319 
L 928 3319 
L 928 2847 
Q 1294 3394 1984 3394 
Q 2284 3394 2536 3286 
Q 2788 3178 2913 3003 
Q 3038 2828 3088 2588 
Q 3119 2431 3119 2041 
L 3119 0 
L 2556 0 
L 2556 2019 
Q 2556 2363 2490 2533 
Q 2425 2703 2258 2804 
Q 2091 2906 1866 2906 
Q 1506 2906 1245 2678 
Q 984 2450 984 1813 
L 984 0 
L 422 0 
z
" transform="scale(0.015625)"/>
       <path id="ArialMT-64" d="M 2575 0 
L 2575 419 
Q 2259 -75 1647 -75 
Q 1250 -75 917 144 
Q 584 363 401 755 
Q 219 1147 219 1656 
Q 219 2153 384 2558 
Q 550 2963 881 3178 
Q 1213 3394 1622 3394 
Q 1922 3394 2156 3267 
Q 2391 3141 2538 2938 
L 2538 4581 
L 3097 4581 
L 3097 0 
L 2575 0 
z
M 797 1656 
Q 797 1019 1065 703 
Q 1334 388 1700 388 
Q 2069 388 2326 689 
Q 2584 991 2584 1609 
Q 2584 2291 2321 2609 
Q 2059 2928 1675 2928 
Q 1300 2928 1048 2622 
Q 797 2316 797 1656 
z
" transform="scale(0.015625)"/>
       <path id="ArialMT-6f" d="M 213 1659 
Q 213 2581 725 3025 
Q 1153 3394 1769 3394 
Q 2453 3394 2887 2945 
Q 3322 2497 3322 1706 
Q 3322 1066 3130 698 
Q 2938 331 2570 128 
Q 2203 -75 1769 -75 
Q 1072 -75 642 372 
Q 213 819 213 1659 
z
M 791 1659 
Q 791 1022 1069 705 
Q 1347 388 1769 388 
Q 2188 388 2466 706 
Q 2744 1025 2744 1678 
Q 2744 2294 2464 2611 
Q 2184 2928 1769 2928 
Q 1347 2928 1069 2612 
Q 791 2297 791 1659 
z
" transform="scale(0.015625)"/>
       <path id="ArialMT-6d" d="M 422 0 
L 422 3319 
L 925 3319 
L 925 2853 
Q 1081 3097 1340 3245 
Q 1600 3394 1931 3394 
Q 2300 3394 2536 3241 
Q 2772 3088 2869 2813 
Q 3263 3394 3894 3394 
Q 4388 3394 4653 3120 
Q 4919 2847 4919 2278 
L 4919 0 
L 4359 0 
L 4359 2091 
Q 4359 2428 4304 2576 
Q 4250 2725 4106 2815 
Q 3963 2906 3769 2906 
Q 3419 2906 3187 2673 
Q 2956 2441 2956 1928 
L 2956 0 
L 2394 0 
L 2394 2156 
Q 2394 2531 2256 2718 
Q 2119 2906 1806 2906 
Q 1569 2906 1367 2781 
Q 1166 2656 1075 2415 
Q 984 2175 984 1722 
L 984 0 
L 422 0 
z
" transform="scale(0.015625)"/>
      </defs>
      <use xlink:href="#ArialMT-52" transform="translate(0 0.675)"/>
      <use xlink:href="#ArialMT-61" transform="translate(72.216797 0.675)"/>
      <use xlink:href="#ArialMT-6e" transform="translate(127.832031 0.675)"/>
      <use xlink:href="#ArialMT-64" transform="translate(183.447266 0.675)"/>
      <use xlink:href="#ArialMT-6f" transform="translate(239.0625 0.675)"/>
      <use xlink:href="#ArialMT-6d" transform="translate(294.677734 0.675)"/>
      <use xlink:href="#ArialMT-20" transform="translate(377.978516 0.675)"/>
      <use xlink:href="#ArialMT-50" transform="translate(405.761719 0.675)"/>
      <use xlink:href="#ArialMT-41" transform="translate(472.460938 0.675)"/>
      <use xlink:href="#ArialMT-44" transform="translate(539.160156 0.675)"/>
      <use xlink:href="#ArialMT-4d" transform="translate(611.376953 0.675)"/>
      <use xlink:href="#ArialMT-3a" transform="translate(694.677734 0.675)"/>
      <use xlink:href="#ArialMT-20" transform="translate(722.460938 0.675)"/>
      <use xlink:href="#DejaVuSans-Oblique-3c1" transform="translate(750.244141 0.675)"/>
      <use xlink:href="#DejaVuSans-22ba" transform="translate(818.370599 38.95625)scale(0.7)"/>
      <use xlink:href="#DejaVuSans-Oblique-3be" transform="translate(857.540521 0.675)"/>
     </g>
    </g>
   </g>
  </g>
  <g id="axes_4">
   <g id="patch_20">
    <path d="M 72 512.64 
L 429.12 512.64 
L 429.12 416.222609 
L 72 416.222609 
z
" style="fill: #eaeaf2"/>
   </g>
   <g id="matplotlib.axis_7">
    <g id="xtick_61">
     <g id="line2d_31">
      <path d="M 133.724444 512.64 
L 133.724444 416.222609 
" clip-path="url(#p6e0d9ea9db)" style="fill: none; stroke: #ffffff; stroke-width: 0.8; stroke-linecap: round"/>
     </g>
     <g id="text_16">
      <!-- 2004 -->
      <g style="fill: #262626" transform="translate(119.266007 528.945156)scale(0.13 -0.13)">
       <defs>
        <path id="ArialMT-34" d="M 2069 0 
L 2069 1097 
L 81 1097 
L 81 1613 
L 2172 4581 
L 2631 4581 
L 2631 1613 
L 3250 1613 
L 3250 1097 
L 2631 1097 
L 2631 0 
L 2069 0 
z
M 2069 1613 
L 2069 3678 
L 634 1613 
L 2069 1613 
z
" transform="scale(0.015625)"/>
       </defs>
       <use xlink:href="#ArialMT-32"/>
       <use xlink:href="#ArialMT-30" x="55.615234"/>
       <use xlink:href="#ArialMT-30" x="111.230469"/>
       <use xlink:href="#ArialMT-34" x="166.845703"/>
      </g>
     </g>
    </g>
    <g id="xtick_62">
     <g id="line2d_32">
      <path d="M 221.902222 512.64 
L 221.902222 416.222609 
" clip-path="url(#p6e0d9ea9db)" style="fill: none; stroke: #ffffff; stroke-width: 0.8; stroke-linecap: round"/>
     </g>
     <g id="text_17">
      <!-- 2009 -->
      <g style="fill: #262626" transform="translate(207.443785 528.945156)scale(0.13 -0.13)">
       <defs>
        <path id="ArialMT-39" d="M 350 1059 
L 891 1109 
Q 959 728 1153 556 
Q 1347 384 1650 384 
Q 1909 384 2104 503 
Q 2300 622 2425 820 
Q 2550 1019 2634 1356 
Q 2719 1694 2719 2044 
Q 2719 2081 2716 2156 
Q 2547 1888 2255 1720 
Q 1963 1553 1622 1553 
Q 1053 1553 659 1965 
Q 266 2378 266 3053 
Q 266 3750 677 4175 
Q 1088 4600 1706 4600 
Q 2153 4600 2523 4359 
Q 2894 4119 3086 3673 
Q 3278 3228 3278 2384 
Q 3278 1506 3087 986 
Q 2897 466 2520 194 
Q 2144 -78 1638 -78 
Q 1100 -78 759 220 
Q 419 519 350 1059 
z
M 2653 3081 
Q 2653 3566 2395 3850 
Q 2138 4134 1775 4134 
Q 1400 4134 1122 3828 
Q 844 3522 844 3034 
Q 844 2597 1108 2323 
Q 1372 2050 1759 2050 
Q 2150 2050 2401 2323 
Q 2653 2597 2653 3081 
z
" transform="scale(0.015625)"/>
       </defs>
       <use xlink:href="#ArialMT-32"/>
       <use xlink:href="#ArialMT-30" x="55.615234"/>
       <use xlink:href="#ArialMT-30" x="111.230469"/>
       <use xlink:href="#ArialMT-39" x="166.845703"/>
      </g>
     </g>
    </g>
    <g id="xtick_63">
     <g id="line2d_33">
      <path d="M 310.08 512.64 
L 310.08 416.222609 
" clip-path="url(#p6e0d9ea9db)" style="fill: none; stroke: #ffffff; stroke-width: 0.8; stroke-linecap: round"/>
     </g>
     <g id="text_18">
      <!-- 2014 -->
      <g style="fill: #262626" transform="translate(295.621563 528.945156)scale(0.13 -0.13)">
       <use xlink:href="#ArialMT-32"/>
       <use xlink:href="#ArialMT-30" x="55.615234"/>
       <use xlink:href="#ArialMT-31" x="111.230469"/>
       <use xlink:href="#ArialMT-34" x="166.845703"/>
      </g>
     </g>
    </g>
    <g id="xtick_64">
     <g id="line2d_34">
      <path d="M 398.257778 512.64 
L 398.257778 416.222609 
" clip-path="url(#p6e0d9ea9db)" style="fill: none; stroke: #ffffff; stroke-width: 0.8; stroke-linecap: round"/>
     </g>
     <g id="text_19">
      <!-- 2019 -->
      <g style="fill: #262626" transform="translate(383.79934 528.945156)scale(0.13 -0.13)">
       <use xlink:href="#ArialMT-32"/>
       <use xlink:href="#ArialMT-30" x="55.615234"/>
       <use xlink:href="#ArialMT-31" x="111.230469"/>
       <use xlink:href="#ArialMT-39" x="166.845703"/>
      </g>
     </g>
    </g>
    <g id="xtick_65"/>
    <g id="xtick_66"/>
    <g id="xtick_67"/>
    <g id="xtick_68"/>
    <g id="xtick_69"/>
    <g id="xtick_70"/>
    <g id="xtick_71"/>
    <g id="xtick_72"/>
    <g id="xtick_73"/>
    <g id="xtick_74"/>
    <g id="xtick_75"/>
    <g id="xtick_76"/>
    <g id="xtick_77"/>
    <g id="xtick_78"/>
    <g id="xtick_79"/>
    <g id="xtick_80"/>
    <g id="text_20">
     <!-- StartMonth -->
     <g style="fill: #262626" transform="translate(226.106094 542.686719)scale(0.1 -0.1)">
      <defs>
       <path id="ArialMT-53" d="M 288 1472 
L 859 1522 
Q 900 1178 1048 958 
Q 1197 738 1509 602 
Q 1822 466 2213 466 
Q 2559 466 2825 569 
Q 3091 672 3220 851 
Q 3350 1031 3350 1244 
Q 3350 1459 3225 1620 
Q 3100 1781 2813 1891 
Q 2628 1963 1997 2114 
Q 1366 2266 1113 2400 
Q 784 2572 623 2826 
Q 463 3081 463 3397 
Q 463 3744 659 4045 
Q 856 4347 1234 4503 
Q 1613 4659 2075 4659 
Q 2584 4659 2973 4495 
Q 3363 4331 3572 4012 
Q 3781 3694 3797 3291 
L 3216 3247 
Q 3169 3681 2898 3903 
Q 2628 4125 2100 4125 
Q 1550 4125 1298 3923 
Q 1047 3722 1047 3438 
Q 1047 3191 1225 3031 
Q 1400 2872 2139 2705 
Q 2878 2538 3153 2413 
Q 3553 2228 3743 1945 
Q 3934 1663 3934 1294 
Q 3934 928 3725 604 
Q 3516 281 3123 101 
Q 2731 -78 2241 -78 
Q 1619 -78 1198 103 
Q 778 284 539 648 
Q 300 1013 288 1472 
z
" transform="scale(0.015625)"/>
       <path id="ArialMT-74" d="M 1650 503 
L 1731 6 
Q 1494 -44 1306 -44 
Q 1000 -44 831 53 
Q 663 150 594 308 
Q 525 466 525 972 
L 525 2881 
L 113 2881 
L 113 3319 
L 525 3319 
L 525 4141 
L 1084 4478 
L 1084 3319 
L 1650 3319 
L 1650 2881 
L 1084 2881 
L 1084 941 
Q 1084 700 1114 631 
Q 1144 563 1211 522 
Q 1278 481 1403 481 
Q 1497 481 1650 503 
z
" transform="scale(0.015625)"/>
       <path id="ArialMT-72" d="M 416 0 
L 416 3319 
L 922 3319 
L 922 2816 
Q 1116 3169 1280 3281 
Q 1444 3394 1641 3394 
Q 1925 3394 2219 3213 
L 2025 2691 
Q 1819 2813 1613 2813 
Q 1428 2813 1281 2702 
Q 1134 2591 1072 2394 
Q 978 2094 978 1738 
L 978 0 
L 416 0 
z
" transform="scale(0.015625)"/>
       <path id="ArialMT-68" d="M 422 0 
L 422 4581 
L 984 4581 
L 984 2938 
Q 1378 3394 1978 3394 
Q 2347 3394 2619 3248 
Q 2891 3103 3008 2847 
Q 3125 2591 3125 2103 
L 3125 0 
L 2563 0 
L 2563 2103 
Q 2563 2525 2380 2717 
Q 2197 2909 1863 2909 
Q 1613 2909 1392 2779 
Q 1172 2650 1078 2428 
Q 984 2206 984 1816 
L 984 0 
L 422 0 
z
" transform="scale(0.015625)"/>
      </defs>
      <use xlink:href="#ArialMT-53"/>
      <use xlink:href="#ArialMT-74" x="66.699219"/>
      <use xlink:href="#ArialMT-61" x="94.482422"/>
      <use xlink:href="#ArialMT-72" x="150.097656"/>
      <use xlink:href="#ArialMT-74" x="183.398438"/>
      <use xlink:href="#ArialMT-4d" x="211.181641"/>
      <use xlink:href="#ArialMT-6f" x="294.482422"/>
      <use xlink:href="#ArialMT-6e" x="350.097656"/>
      <use xlink:href="#ArialMT-74" x="405.712891"/>
      <use xlink:href="#ArialMT-68" x="433.496094"/>
     </g>
    </g>
   </g>
   <g id="matplotlib.axis_8">
    <g id="ytick_13">
     <g id="line2d_35">
      <path d="M 72 508.257391 
L 429.12 508.257391 
" clip-path="url(#p6e0d9ea9db)" style="fill: none; stroke: #ffffff; stroke-width: 0.8; stroke-linecap: round"/>
     </g>
     <g id="text_21">
      <!-- −0.05 -->
      <g style="fill: #262626" transform="translate(32.107969 512.909969)scale(0.13 -0.13)">
       <defs>
        <path id="ArialMT-2212" d="M 3381 1997 
L 356 1997 
L 356 2522 
L 3381 2522 
L 3381 1997 
z
" transform="scale(0.015625)"/>
        <path id="ArialMT-35" d="M 266 1200 
L 856 1250 
Q 922 819 1161 601 
Q 1400 384 1738 384 
Q 2144 384 2425 690 
Q 2706 997 2706 1503 
Q 2706 1984 2436 2262 
Q 2166 2541 1728 2541 
Q 1456 2541 1237 2417 
Q 1019 2294 894 2097 
L 366 2166 
L 809 4519 
L 3088 4519 
L 3088 3981 
L 1259 3981 
L 1013 2750 
Q 1425 3038 1878 3038 
Q 2478 3038 2890 2622 
Q 3303 2206 3303 1553 
Q 3303 931 2941 478 
Q 2500 -78 1738 -78 
Q 1113 -78 717 272 
Q 322 622 266 1200 
z
" transform="scale(0.015625)"/>
       </defs>
       <use xlink:href="#ArialMT-2212"/>
       <use xlink:href="#ArialMT-30" x="58.398438"/>
       <use xlink:href="#ArialMT-2e" x="114.013672"/>
       <use xlink:href="#ArialMT-30" x="141.796875"/>
       <use xlink:href="#ArialMT-35" x="197.412109"/>
      </g>
     </g>
    </g>
    <g id="ytick_14">
     <g id="line2d_36">
      <path d="M 72 464.431304 
L 429.12 464.431304 
" clip-path="url(#p6e0d9ea9db)" style="fill: none; stroke: #ffffff; stroke-width: 0.8; stroke-linecap: round"/>
     </g>
     <g id="text_22">
      <!-- 0.00 -->
      <g style="fill: #262626" transform="translate(39.700781 469.083882)scale(0.13 -0.13)">
       <use xlink:href="#ArialMT-30"/>
       <use xlink:href="#ArialMT-2e" x="55.615234"/>
       <use xlink:href="#ArialMT-30" x="83.398438"/>
       <use xlink:href="#ArialMT-30" x="139.013672"/>
      </g>
     </g>
    </g>
    <g id="ytick_15">
     <g id="line2d_37">
      <path d="M 72 420.605217 
L 429.12 420.605217 
" clip-path="url(#p6e0d9ea9db)" style="fill: none; stroke: #ffffff; stroke-width: 0.8; stroke-linecap: round"/>
     </g>
     <g id="text_23">
      <!-- 0.05 -->
      <g style="fill: #262626" transform="translate(39.700781 425.257796)scale(0.13 -0.13)">
       <use xlink:href="#ArialMT-30"/>
       <use xlink:href="#ArialMT-2e" x="55.615234"/>
       <use xlink:href="#ArialMT-30" x="83.398438"/>
       <use xlink:href="#ArialMT-35" x="139.013672"/>
      </g>
     </g>
    </g>
   </g>
   <g id="line2d_38">
    <path d="M 72 464.431304 
L 429.12 464.431304 
L 429.12 464.431304 
" clip-path="url(#p6e0d9ea9db)" style="fill: none; stroke: #d62728; stroke-width: 1.5; stroke-linecap: round"/>
   </g>
   <g id="patch_21">
    <path d="M 72 512.64 
L 72 416.222609 
" style="fill: none; stroke: #ffffff; stroke-width: 0.8; stroke-linejoin: miter; stroke-linecap: square"/>
   </g>
   <g id="patch_22">
    <path d="M 429.12 512.64 
L 429.12 416.222609 
" style="fill: none; stroke: #ffffff; stroke-width: 0.8; stroke-linejoin: miter; stroke-linecap: square"/>
   </g>
   <g id="patch_23">
    <path d="M 72 512.64 
L 429.12 512.64 
" style="fill: none; stroke: #ffffff; stroke-width: 0.8; stroke-linejoin: miter; stroke-linecap: square"/>
   </g>
   <g id="patch_24">
    <path d="M 72 416.222609 
L 429.12 416.222609 
" style="fill: none; stroke: #ffffff; stroke-width: 0.8; stroke-linejoin: miter; stroke-linecap: square"/>
   </g>
   <g id="legend_4">
    <g id="patch_25">
     <path d="M 436.12 473.003961 
L 520.921563 473.003961 
Q 522.921563 473.003961 522.921563 471.003961 
L 522.921563 457.858648 
Q 522.921563 455.858648 520.921563 455.858648 
L 436.12 455.858648 
Q 434.12 455.858648 434.12 457.858648 
L 434.12 471.003961 
Q 434.12 473.003961 436.12 473.003961 
z
" style="fill: #eaeaf2; opacity: 0.8; stroke: #cccccc; stroke-linejoin: miter"/>
    </g>
    <g id="line2d_39">
     <path d="M 438.12 463.516461 
L 448.12 463.516461 
L 458.12 463.516461 
" style="fill: none; stroke: #d62728; stroke-width: 1.5; stroke-linecap: round"/>
    </g>
    <g id="text_24">
     <!-- Exact Solve -->
     <g style="fill: #262626" transform="translate(466.12 467.016461)scale(0.1 -0.1)">
      <defs>
       <path id="ArialMT-45" d="M 506 0 
L 506 4581 
L 3819 4581 
L 3819 4041 
L 1113 4041 
L 1113 2638 
L 3647 2638 
L 3647 2100 
L 1113 2100 
L 1113 541 
L 3925 541 
L 3925 0 
L 506 0 
z
" transform="scale(0.015625)"/>
       <path id="ArialMT-78" d="M 47 0 
L 1259 1725 
L 138 3319 
L 841 3319 
L 1350 2541 
Q 1494 2319 1581 2169 
Q 1719 2375 1834 2534 
L 2394 3319 
L 3066 3319 
L 1919 1756 
L 3153 0 
L 2463 0 
L 1781 1031 
L 1600 1309 
L 728 0 
L 47 0 
z
" transform="scale(0.015625)"/>
       <path id="ArialMT-63" d="M 2588 1216 
L 3141 1144 
Q 3050 572 2676 248 
Q 2303 -75 1759 -75 
Q 1078 -75 664 370 
Q 250 816 250 1647 
Q 250 2184 428 2587 
Q 606 2991 970 3192 
Q 1334 3394 1763 3394 
Q 2303 3394 2647 3120 
Q 2991 2847 3088 2344 
L 2541 2259 
Q 2463 2594 2264 2762 
Q 2066 2931 1784 2931 
Q 1359 2931 1093 2626 
Q 828 2322 828 1663 
Q 828 994 1084 691 
Q 1341 388 1753 388 
Q 2084 388 2306 591 
Q 2528 794 2588 1216 
z
" transform="scale(0.015625)"/>
       <path id="ArialMT-6c" d="M 409 0 
L 409 4581 
L 972 4581 
L 972 0 
L 409 0 
z
" transform="scale(0.015625)"/>
       <path id="ArialMT-76" d="M 1344 0 
L 81 3319 
L 675 3319 
L 1388 1331 
Q 1503 1009 1600 663 
Q 1675 925 1809 1294 
L 2547 3319 
L 3125 3319 
L 1869 0 
L 1344 0 
z
" transform="scale(0.015625)"/>
       <path id="ArialMT-65" d="M 2694 1069 
L 3275 997 
Q 3138 488 2766 206 
Q 2394 -75 1816 -75 
Q 1088 -75 661 373 
Q 234 822 234 1631 
Q 234 2469 665 2931 
Q 1097 3394 1784 3394 
Q 2450 3394 2872 2941 
Q 3294 2488 3294 1666 
Q 3294 1616 3291 1516 
L 816 1516 
Q 847 969 1125 678 
Q 1403 388 1819 388 
Q 2128 388 2347 550 
Q 2566 713 2694 1069 
z
M 847 1978 
L 2700 1978 
Q 2663 2397 2488 2606 
Q 2219 2931 1791 2931 
Q 1403 2931 1139 2672 
Q 875 2413 847 1978 
z
" transform="scale(0.015625)"/>
      </defs>
      <use xlink:href="#ArialMT-45"/>
      <use xlink:href="#ArialMT-78" x="66.699219"/>
      <use xlink:href="#ArialMT-61" x="116.699219"/>
      <use xlink:href="#ArialMT-63" x="172.314453"/>
      <use xlink:href="#ArialMT-74" x="222.314453"/>
      <use xlink:href="#ArialMT-20" x="250.097656"/>
      <use xlink:href="#ArialMT-53" x="277.880859"/>
      <use xlink:href="#ArialMT-6f" x="344.580078"/>
      <use xlink:href="#ArialMT-6c" x="400.195312"/>
      <use xlink:href="#ArialMT-76" x="422.412109"/>
      <use xlink:href="#ArialMT-65" x="472.412109"/>
     </g>
    </g>
   </g>
  </g>
  <g id="text_25">
   <!-- Comparing $\sum_i \xi_i$ for different solution methods -->
   <g style="fill: #262626" transform="translate(167.82 23.76)scale(0.12 -0.12)">
    <defs>
     <path id="ArialMT-43" d="M 3763 1606 
L 4369 1453 
Q 4178 706 3683 314 
Q 3188 -78 2472 -78 
Q 1731 -78 1267 223 
Q 803 525 561 1097 
Q 319 1669 319 2325 
Q 319 3041 592 3573 
Q 866 4106 1370 4382 
Q 1875 4659 2481 4659 
Q 3169 4659 3637 4309 
Q 4106 3959 4291 3325 
L 3694 3184 
Q 3534 3684 3231 3912 
Q 2928 4141 2469 4141 
Q 1941 4141 1586 3887 
Q 1231 3634 1087 3207 
Q 944 2781 944 2328 
Q 944 1744 1114 1308 
Q 1284 872 1643 656 
Q 2003 441 2422 441 
Q 2931 441 3284 734 
Q 3638 1028 3763 1606 
z
" transform="scale(0.015625)"/>
     <path id="ArialMT-70" d="M 422 -1272 
L 422 3319 
L 934 3319 
L 934 2888 
Q 1116 3141 1344 3267 
Q 1572 3394 1897 3394 
Q 2322 3394 2647 3175 
Q 2972 2956 3137 2557 
Q 3303 2159 3303 1684 
Q 3303 1175 3120 767 
Q 2938 359 2589 142 
Q 2241 -75 1856 -75 
Q 1575 -75 1351 44 
Q 1128 163 984 344 
L 984 -1272 
L 422 -1272 
z
M 931 1641 
Q 931 1000 1190 694 
Q 1450 388 1819 388 
Q 2194 388 2461 705 
Q 2728 1022 2728 1688 
Q 2728 2322 2467 2637 
Q 2206 2953 1844 2953 
Q 1484 2953 1207 2617 
Q 931 2281 931 1641 
z
" transform="scale(0.015625)"/>
     <path id="ArialMT-69" d="M 425 3934 
L 425 4581 
L 988 4581 
L 988 3934 
L 425 3934 
z
M 425 0 
L 425 3319 
L 988 3319 
L 988 0 
L 425 0 
z
" transform="scale(0.015625)"/>
     <path id="ArialMT-67" d="M 319 -275 
L 866 -356 
Q 900 -609 1056 -725 
Q 1266 -881 1628 -881 
Q 2019 -881 2231 -725 
Q 2444 -569 2519 -288 
Q 2563 -116 2559 434 
Q 2191 0 1641 0 
Q 956 0 581 494 
Q 206 988 206 1678 
Q 206 2153 378 2554 
Q 550 2956 876 3175 
Q 1203 3394 1644 3394 
Q 2231 3394 2613 2919 
L 2613 3319 
L 3131 3319 
L 3131 450 
Q 3131 -325 2973 -648 
Q 2816 -972 2473 -1159 
Q 2131 -1347 1631 -1347 
Q 1038 -1347 672 -1080 
Q 306 -813 319 -275 
z
M 784 1719 
Q 784 1066 1043 766 
Q 1303 466 1694 466 
Q 2081 466 2343 764 
Q 2606 1063 2606 1700 
Q 2606 2309 2336 2618 
Q 2066 2928 1684 2928 
Q 1309 2928 1046 2623 
Q 784 2319 784 1719 
z
" transform="scale(0.015625)"/>
     <path id="DejaVuSansDisplay-2211" d="M 244 6509 
L 5803 6509 
L 5803 5656 
L 1566 5656 
L 4534 2488 
L 1469 -888 
L 5919 -888 
L 5919 -1738 
L 109 -1738 
L 109 -1078 
L 3316 2463 
L 244 5728 
L 244 6509 
z
" transform="scale(0.015625)"/>
     <path id="DejaVuSans-Oblique-69" d="M 1172 4863 
L 1747 4863 
L 1606 4134 
L 1031 4134 
L 1172 4863 
z
M 909 3500 
L 1484 3500 
L 800 0 
L 225 0 
L 909 3500 
z
" transform="scale(0.015625)"/>
     <path id="ArialMT-66" d="M 556 0 
L 556 2881 
L 59 2881 
L 59 3319 
L 556 3319 
L 556 3672 
Q 556 4006 616 4169 
Q 697 4388 901 4523 
Q 1106 4659 1475 4659 
Q 1713 4659 2000 4603 
L 1916 4113 
Q 1741 4144 1584 4144 
Q 1328 4144 1222 4034 
Q 1116 3925 1116 3625 
L 1116 3319 
L 1763 3319 
L 1763 2881 
L 1116 2881 
L 1116 0 
L 556 0 
z
" transform="scale(0.015625)"/>
     <path id="ArialMT-73" d="M 197 991 
L 753 1078 
Q 800 744 1014 566 
Q 1228 388 1613 388 
Q 2000 388 2187 545 
Q 2375 703 2375 916 
Q 2375 1106 2209 1216 
Q 2094 1291 1634 1406 
Q 1016 1563 777 1677 
Q 538 1791 414 1992 
Q 291 2194 291 2438 
Q 291 2659 392 2848 
Q 494 3038 669 3163 
Q 800 3259 1026 3326 
Q 1253 3394 1513 3394 
Q 1903 3394 2198 3281 
Q 2494 3169 2634 2976 
Q 2775 2784 2828 2463 
L 2278 2388 
Q 2241 2644 2061 2787 
Q 1881 2931 1553 2931 
Q 1166 2931 1000 2803 
Q 834 2675 834 2503 
Q 834 2394 903 2306 
Q 972 2216 1119 2156 
Q 1203 2125 1616 2013 
Q 2213 1853 2448 1751 
Q 2684 1650 2818 1456 
Q 2953 1263 2953 975 
Q 2953 694 2789 445 
Q 2625 197 2315 61 
Q 2006 -75 1616 -75 
Q 969 -75 630 194 
Q 291 463 197 991 
z
" transform="scale(0.015625)"/>
     <path id="ArialMT-75" d="M 2597 0 
L 2597 488 
Q 2209 -75 1544 -75 
Q 1250 -75 995 37 
Q 741 150 617 320 
Q 494 491 444 738 
Q 409 903 409 1263 
L 409 3319 
L 972 3319 
L 972 1478 
Q 972 1038 1006 884 
Q 1059 663 1231 536 
Q 1403 409 1656 409 
Q 1909 409 2131 539 
Q 2353 669 2445 892 
Q 2538 1116 2538 1541 
L 2538 3319 
L 3100 3319 
L 3100 0 
L 2597 0 
z
" transform="scale(0.015625)"/>
    </defs>
    <use xlink:href="#ArialMT-43" transform="translate(0 0.296875)"/>
    <use xlink:href="#ArialMT-6f" transform="translate(72.216797 0.296875)"/>
    <use xlink:href="#ArialMT-6d" transform="translate(127.832031 0.296875)"/>
    <use xlink:href="#ArialMT-70" transform="translate(211.132812 0.296875)"/>
    <use xlink:href="#ArialMT-61" transform="translate(266.748047 0.296875)"/>
    <use xlink:href="#ArialMT-72" transform="translate(322.363281 0.296875)"/>
    <use xlink:href="#ArialMT-69" transform="translate(355.664062 0.296875)"/>
    <use xlink:href="#ArialMT-6e" transform="translate(377.880859 0.296875)"/>
    <use xlink:href="#ArialMT-67" transform="translate(433.496094 0.296875)"/>
    <use xlink:href="#ArialMT-20" transform="translate(489.111328 0.296875)"/>
    <use xlink:href="#DejaVuSansDisplay-2211" transform="translate(516.894531 0.296875)"/>
    <use xlink:href="#DejaVuSans-Oblique-69" transform="translate(553.894531 -98.798438)scale(0.7)"/>
    <use xlink:href="#DejaVuSans-Oblique-3be" transform="translate(607.660156 0.296875)"/>
    <use xlink:href="#DejaVuSans-Oblique-69" transform="translate(663.421875 -16.109375)scale(0.7)"/>
    <use xlink:href="#ArialMT-20" transform="translate(685.604492 0.296875)"/>
    <use xlink:href="#ArialMT-66" transform="translate(713.387695 0.296875)"/>
    <use xlink:href="#ArialMT-6f" transform="translate(741.170898 0.296875)"/>
    <use xlink:href="#ArialMT-72" transform="translate(796.786133 0.296875)"/>
    <use xlink:href="#ArialMT-20" transform="translate(830.086914 0.296875)"/>
    <use xlink:href="#ArialMT-64" transform="translate(857.870117 0.296875)"/>
    <use xlink:href="#ArialMT-69" transform="translate(913.485352 0.296875)"/>
    <use xlink:href="#ArialMT-66" transform="translate(935.702148 0.296875)"/>
    <use xlink:href="#ArialMT-66" transform="translate(963.485352 0.296875)"/>
    <use xlink:href="#ArialMT-65" transform="translate(991.268555 0.296875)"/>
    <use xlink:href="#ArialMT-72" transform="translate(1046.883789 0.296875)"/>
    <use xlink:href="#ArialMT-65" transform="translate(1080.18457 0.296875)"/>
    <use xlink:href="#ArialMT-6e" transform="translate(1135.799805 0.296875)"/>
    <use xlink:href="#ArialMT-74" transform="translate(1191.415039 0.296875)"/>
    <use xlink:href="#ArialMT-20" transform="translate(1219.198242 0.296875)"/>
    <use xlink:href="#ArialMT-73" transform="translate(1246.981445 0.296875)"/>
    <use xlink:href="#ArialMT-6f" transform="translate(1296.981445 0.296875)"/>
    <use xlink:href="#ArialMT-6c" transform="translate(1352.59668 0.296875)"/>
    <use xlink:href="#ArialMT-75" transform="translate(1374.813477 0.296875)"/>
    <use xlink:href="#ArialMT-74" transform="translate(1430.428711 0.296875)"/>
    <use xlink:href="#ArialMT-69" transform="translate(1458.211914 0.296875)"/>
    <use xlink:href="#ArialMT-6f" transform="translate(1480.428711 0.296875)"/>
    <use xlink:href="#ArialMT-6e" transform="translate(1536.043945 0.296875)"/>
    <use xlink:href="#ArialMT-20" transform="translate(1591.65918 0.296875)"/>
    <use xlink:href="#ArialMT-6d" transform="translate(1619.442383 0.296875)"/>
    <use xlink:href="#ArialMT-65" transform="translate(1702.743164 0.296875)"/>
    <use xlink:href="#ArialMT-74" transform="translate(1758.358398 0.296875)"/>
    <use xlink:href="#ArialMT-68" transform="translate(1786.141602 0.296875)"/>
    <use xlink:href="#ArialMT-6f" transform="translate(1841.756836 0.296875)"/>
    <use xlink:href="#ArialMT-64" transform="translate(1897.37207 0.296875)"/>
    <use xlink:href="#ArialMT-73" transform="translate(1952.987305 0.296875)"/>
   </g>
  </g>
 </g>
 <defs>
  <clipPath id="pc02d06bb06">
   <rect x="72" y="69.12" width="357.12" height="96.417391"/>
  </clipPath>
  <clipPath id="p574285d8c1">
   <rect x="72" y="184.82087" width="357.12" height="96.417391"/>
  </clipPath>
  <clipPath id="pbda371f9f3">
   <rect x="72" y="300.521739" width="357.12" height="96.417391"/>
  </clipPath>
  <clipPath id="p6e0d9ea9db">
   <rect x="72" y="416.222609" width="357.12" height="96.417391"/>
  </clipPath>
 </defs>
</svg>
